<svg width="596" height="637" viewBox="0 0 596 637" fill="none" xmlns="http://www.w3.org/2000/svg">
<path d="M552.791 204.789C555.612 200.216 561.999 197.479 567.015 198.677C572.031 199.874 573.802 204.579 570.98 209.152C529.48 276.214 492.061 276.691 453.891 277.191C324.266 278.878 377.809 408.008 228.484 409.953C198.077 410.345 168.24 410.734 134.554 465.184C131.732 469.757 125.346 472.493 120.329 471.296C115.313 470.099 113.542 465.393 116.364 460.82C157.864 393.759 195.283 393.281 233.454 392.781C363.078 391.095 309.535 261.964 458.822 260.039C489.268 259.628 519.104 259.239 552.791 204.789ZM42.3167 276.065C39.4952 280.639 33.1088 283.375 28.0924 282.178C23.0761 280.98 21.3054 276.275 24.127 271.702C65.6273 204.641 103.046 204.163 141.217 203.663C270.841 201.977 217.298 72.8461 366.585 70.9203C396.992 70.5283 426.829 70.1396 460.515 15.6895C463.337 11.1163 469.723 8.37974 474.74 9.57706C479.756 10.7744 481.527 15.4798 478.705 20.0529C437.205 87.1143 399.786 87.5917 361.615 88.0918C232.029 89.7595 285.586 218.918 136.247 220.835C105.84 221.227 76.0033 221.615 42.3167 276.065ZM73.0624 339.105C70.2408 343.678 63.8545 346.415 58.8381 345.217C53.8217 344.02 52.051 339.315 54.8726 334.741C96.3729 267.68 133.792 267.203 171.962 266.702C301.587 265.016 248.044 135.886 397.331 133.96C427.738 133.568 457.574 133.179 491.261 78.7289C494.083 74.1558 500.469 71.4192 505.485 72.6165C510.502 73.8138 512.272 78.5192 509.451 83.0924C467.95 150.154 430.531 150.631 392.361 151.131C262.775 152.799 316.331 281.957 166.992 283.874C136.585 284.266 106.749 284.655 73.0624 339.105ZM103.808 402.144C100.986 406.717 94.6001 409.454 89.5837 408.257C84.5673 407.059 82.7966 402.354 85.6182 397.781C127.119 330.719 164.538 330.242 202.708 329.742C332.333 328.055 278.79 198.925 428.077 196.999C458.483 196.607 488.32 196.218 522.007 141.768C524.828 137.195 531.214 134.459 536.231 135.656C541.247 136.853 543.018 141.559 540.196 146.132C498.696 213.193 461.277 213.671 423.107 214.171C293.521 215.838 347.077 344.997 197.738 346.913C167.331 347.305 137.495 347.694 103.808 402.144Z" fill="#444444"/>
<path d="M566.091 420.798C577.932 459.999 560.983 497.343 540.551 528.889C520.119 560.435 496.204 586.181 455.572 595.924C414.94 605.434 357.824 598.939 341.339 569.713C324.854 540.487 349.233 488.529 377.791 439.587C406.35 390.876 439.32 345.413 476.236 343.094C513.153 340.774 554.017 381.83 566.091 420.798Z" fill="#647687"/>
<path d="M344.06 427.374C341.952 444.672 309.565 488.746 300.258 526.88C290.951 565.015 305.005 593.829 278.194 605.889C239.21 623.424 211.386 606.888 205.727 588.846C200.072 570.822 209.044 516.013 238.636 485.145C268.022 454.491 338.875 407.136 344.06 427.374Z" fill="#00BAE9"/>
</svg>
