<svg width="1440" height="1245" viewBox="0 0 1440 1245" fill="none" xmlns="http://www.w3.org/2000/svg">
<g clip-path="url(#clip0_606_115)">
<rect width="1440" height="1161" fill="#F3F9FF"/>
<path d="M-450.707 183.196L592.303 -269.019L657.54 -80.7928C657.54 -80.7928 654.225 22.483 582.033 96.7658C515.514 165.212 458.766 137.283 372.039 203.943C309.762 251.81 278.926 326.134 215.007 366.301C147.423 408.771 102.617 361.768 -36.94 436.87C-111.775 477.141 -118.751 496.51 -221.184 540.975C-323.945 585.583 -350.099 415.242 -350.099 415.242L-450.707 183.196Z" fill="#00BAE9"/>
<path d="M-319.015 381.079L-319.1 380.768L-319.262 380.489L-432.222 185.666L448.704 -325.101L525.33 -166.459C525.341 -166.31 525.353 -166.125 525.367 -165.904C525.409 -165.226 525.464 -164.214 525.515 -162.895C525.617 -160.257 525.7 -156.392 525.624 -151.518C525.472 -141.768 524.683 -127.989 522.134 -111.916C517.032 -79.7484 504.9 -38.5216 476.84 -1.97501C451.077 31.581 425.069 43.6519 396.394 55.9489C395.139 56.4871 393.879 57.0257 392.614 57.5665C364.854 69.4322 334.601 82.3639 300.5 115.539C276.668 138.724 259.608 166.354 242.965 193.308C241.723 195.32 240.483 197.328 239.243 199.329C221.323 228.259 203.328 255.979 177.222 276.977C153.569 296.002 132.085 299.98 105.354 304.931C101.111 305.717 96.7355 306.527 92.1981 307.426C59.0622 313.991 18.2431 325.204 -40.5648 366.308C-64.9183 383.33 -80.5241 396.512 -95.4599 409.128C-99.8203 412.811 -104.124 416.446 -108.571 420.114C-128.228 436.328 -150.907 453.378 -194.263 478.542C-215.449 490.838 -233.55 490.868 -248.889 484.301C-264.388 477.666 -277.382 464.158 -287.862 448.8C-298.319 433.475 -306.114 416.545 -311.301 403.407C-313.891 396.846 -315.824 391.25 -317.107 387.299C-317.749 385.324 -318.228 383.761 -318.545 382.696C-318.704 382.164 -318.823 381.755 -318.901 381.482C-318.92 381.416 -318.936 381.358 -318.95 381.308C-318.966 381.255 -318.978 381.21 -318.988 381.175L-319.009 381.1L-319.014 381.083L-319.015 381.079C-319.015 381.079 -319.015 381.079 -319.093 381.101L-319.015 381.079Z" stroke="#D4F7FF" stroke-width="5"/>
<path d="M-460.825 386.619L-460.922 386.451L-546.847 238.256L122.403 -149.78L180.774 -28.9315C180.783 -28.8067 180.795 -28.6394 180.808 -28.4311C180.84 -27.9135 180.882 -27.1423 180.921 -26.1381C180.998 -24.1295 181.061 -21.1894 181.003 -17.4825C180.888 -10.0676 180.288 0.408074 178.35 12.6279C174.471 37.0799 165.248 68.4369 143.899 96.2417C124.284 121.79 104.468 130.984 82.6902 140.323C81.739 140.731 80.7841 141.139 79.8253 141.549C58.7638 150.552 35.8618 160.342 10.0363 185.466C-8.013 203.026 -20.9356 223.954 -33.5711 244.417C-34.5119 245.941 -35.4512 247.462 -36.3909 248.979C-49.9885 270.931 -63.6762 292.023 -83.5478 308.006C-101.58 322.511 -117.986 325.548 -138.273 329.304C-141.492 329.9 -144.808 330.514 -148.244 331.194C-173.347 336.168 -204.271 344.659 -248.847 375.816C-267.313 388.722 -279.14 398.712 -290.473 408.285C-293.784 411.081 -297.052 413.842 -300.432 416.63C-315.367 428.948 -332.596 441.9 -365.517 461.008C-381.694 470.397 -395.563 470.438 -407.329 465.401C-419.191 460.322 -429.105 450 -437.078 438.317C-445.036 426.654 -450.964 413.776 -454.907 403.79C-456.876 398.803 -458.345 394.548 -459.321 391.543C-459.809 390.041 -460.174 388.852 -460.415 388.041C-460.536 387.635 -460.627 387.324 -460.686 387.115C-460.716 387.011 -460.738 386.932 -460.753 386.88L-460.769 386.823L-460.773 386.809L-460.774 386.806C-460.774 386.806 -460.774 386.806 -461.367 386.969L-460.774 386.806L-460.825 386.619Z" stroke="#D4F7FF" stroke-width="3"/>
</g>
<defs>
<clipPath id="clip0_606_115">
<rect width="1440" height="1245" fill="white"/>
</clipPath>
</defs>
</svg>
