<svg width="572" height="315" viewBox="0 0 572 315" fill="none" xmlns="http://www.w3.org/2000/svg">
<rect width="572" height="315" fill="url(#paint0_linear_423_170)"/>
<path d="M508.779 216.648C492.967 197.574 464.911 190.986 444.613 207.103C427.611 220.607 431.063 248.8 443.504 264.002C456.966 280.446 485.028 279.361 499.266 264.572C507.024 256.513 508.58 243.779 504.275 233.707C500.051 223.765 491.035 217.796 480.417 216.583C469.47 215.329 457.418 217.988 453.319 229.264C448.332 242.964 463.471 253.484 475.71 250.169C481.859 248.506 479.246 239.024 473.078 240.687C463.039 243.408 458.338 230.477 468.34 227.095C475.995 224.509 485.693 226.237 491.475 231.83C498.845 238.965 498.259 251.411 491.407 258.528C484.711 265.483 472.792 267.464 463.69 265.399C445.963 261.395 438.248 236.928 445.412 221.602C450.058 211.682 461.79 207.466 472.081 207.613C483.978 207.789 494.467 214.753 501.795 223.591C505.862 228.484 512.816 221.487 508.785 216.646" fill="white"/>
<rect x="70" y="58" width="112" height="199" rx="20" fill="#F5D9AE" fill-opacity="0.5"/>
<path d="M34.9318 180.912C34.2326 180.03 33.9113 178.91 34.0375 177.794C34.1637 176.679 34.7273 175.658 35.6061 174.952C36.032 174.6 40.078 171.532 46.4664 169.945C52.8547 168.358 61.763 168.076 71.8779 174.741C86.1453 184.191 97.9638 175.058 98.0702 174.952C98.5083 174.605 99.011 174.347 99.5495 174.192C100.088 174.038 100.652 173.991 101.209 174.053C101.766 174.115 102.305 174.286 102.796 174.555C103.286 174.824 103.719 175.187 104.068 175.622C104.418 176.057 104.678 176.557 104.833 177.092C104.988 177.627 105.036 178.187 104.973 178.741C104.911 179.294 104.739 179.83 104.468 180.317C104.197 180.805 103.832 181.234 103.394 181.582C102.968 181.934 98.922 185.002 92.5336 186.589C90.1326 187.196 87.6647 187.504 85.187 187.506C79.9698 187.506 73.7234 186.166 67.1221 181.793C52.8547 172.343 41.0362 181.476 40.9298 181.582C40.0423 182.276 38.9151 182.595 37.7923 182.47C36.6696 182.345 35.6418 181.785 34.9318 180.912V180.912ZM98.0702 194.699C97.9638 194.805 86.1453 203.938 71.8779 194.488C61.763 187.823 52.4643 188.176 46.4664 189.692C40.4684 191.208 36.032 194.347 35.6061 194.699C35.168 195.047 34.803 195.476 34.532 195.964C34.2611 196.451 34.0894 196.987 34.0267 197.54C33.9641 198.094 34.0118 198.654 34.1671 199.189C34.3224 199.724 34.5822 200.223 34.9318 200.659C35.2813 201.094 35.7138 201.457 36.2044 201.726C36.695 201.995 37.2342 202.166 37.7911 202.228C38.3481 202.29 38.9119 202.243 39.4505 202.088C39.989 201.934 40.4917 201.676 40.9298 201.329C41.0362 201.223 52.8547 192.09 67.1221 201.54C73.7234 205.913 79.9698 207.253 85.187 207.253C87.6647 207.251 90.1326 206.943 92.5336 206.336C98.922 204.749 102.968 201.681 103.394 201.329C104.279 200.627 104.847 199.605 104.973 198.488C105.1 197.37 104.774 196.248 104.068 195.369C103.362 194.49 102.334 193.926 101.209 193.8C100.084 193.674 98.955 193.998 98.0702 194.699V194.699ZM98.0702 214.446C97.9638 214.552 86.1453 223.685 71.8779 214.235C61.763 207.57 52.4643 207.923 46.4664 209.439C40.4684 210.955 36.032 214.094 35.6061 214.446C34.7213 215.148 34.1532 216.17 34.0267 217.287C33.9003 218.405 34.2258 219.527 34.9318 220.406C35.6378 221.285 36.6663 221.849 37.7911 221.975C38.916 222.101 40.045 221.777 40.9298 221.076C41.0362 220.97 52.8547 211.837 67.1221 221.287C73.7234 225.66 79.9698 227 85.187 227C87.6647 226.999 90.1326 226.691 92.5336 226.083C98.922 224.496 102.968 221.428 103.394 221.076C104.279 220.374 104.847 219.353 104.973 218.235C105.1 217.117 104.774 215.996 104.068 215.116C103.362 214.237 102.334 213.673 101.209 213.547C100.084 213.422 98.955 213.745 98.0702 214.446V214.446Z" fill="#FFF2E3"/>
<path d="M182 98.3334C194.887 98.3334 205.333 87.8867 205.333 75.0001C205.333 62.1134 194.887 51.6667 182 51.6667C169.113 51.6667 158.667 62.1134 158.667 75.0001C158.667 87.8867 169.113 98.3334 182 98.3334Z" stroke="white" stroke-width="2"/>
<path d="M432.5 26L465.842 83.75H399.158L432.5 26Z" fill="#FFD1B5" fill-opacity="0.6"/>
<defs>
<linearGradient id="paint0_linear_423_170" x1="0" y1="0" x2="609.643" y2="200.595" gradientUnits="userSpaceOnUse">
<stop stop-color="#8B2427"/>
<stop offset="0.227671" stop-color="#BA5237"/>
<stop offset="0.461046" stop-color="#D3611D"/>
<stop offset="0.726897" stop-color="#F09E34"/>
<stop offset="1" stop-color="#FADACF"/>
</linearGradient>
</defs>
</svg>
