<svg width="300" height="300" viewBox="0 0 300 300" fill="none" xmlns="http://www.w3.org/2000/svg">
<g clip-path="url(#clip0)">
<rect width="300" height="300" fill="white"/>
<path d="M135.426 301.68C129.746 273.786 133.805 244.646 146.844 219.701C159.884 194.756 181.012 175.711 206.286 166.122C201.535 166.538 196.812 167.249 192.139 168.252C163.484 174.856 138.47 193.298 122.598 219.519C106.727 245.74 101.299 277.594 107.508 308.072C113.717 338.55 131.055 365.157 155.707 382.038C180.36 398.92 210.307 404.694 238.962 398.09C243.629 396.938 248.228 395.493 252.733 393.762C226.005 396.163 199.368 388.146 177.786 371.205C156.203 354.264 141.148 329.554 135.426 301.68V301.68Z" fill="#044E59" fill-opacity="0.4"/>
<path d="M245.747 155.373C241.114 156.505 236.554 157.952 232.094 159.708C258.71 157.297 285.236 165.331 306.72 182.311C328.204 199.29 343.176 224.055 348.842 251.98C354.507 279.905 350.477 309.081 337.505 334.06C324.534 359.039 303.507 378.114 278.351 387.722C283.023 387.302 287.667 386.567 292.253 385.521C306.707 382.613 320.471 376.636 332.73 367.944C344.99 359.251 355.497 348.018 363.631 334.91C371.765 321.801 377.362 307.081 380.09 291.62C382.818 276.158 382.622 260.269 379.515 244.89C376.407 229.511 370.45 214.954 361.996 202.079C353.542 189.204 342.762 178.271 330.293 169.927C317.824 161.582 303.918 155.995 289.397 153.496C274.876 150.996 260.033 151.635 245.747 155.373V155.373Z" fill="#007157" fill-opacity="0.4"/>
<g clip-path="url(#clip1)">
<path d="M88.0079 156.914C86.0069 156.914 84.3913 155.755 84.3913 153.464C84.3913 151.174 86.496 150.3 88.623 150.126L91.0909 149.944V149.651C91.0909 148.243 90.2164 147.582 88.7935 147.582C87.7524 147.569 86.7311 147.886 85.8587 148.492L85.0286 146.629C86.2513 145.876 87.6375 145.477 89.0492 145.474C90.876 145.474 91.9173 145.972 92.6843 146.744C93.4514 147.515 93.796 148.516 93.796 150.375V156.665H91.1798L91.1391 155.395C90.7278 156.186 89.5383 156.914 88.0079 156.914ZM87.1149 153.373C87.1149 154.303 87.7707 154.956 88.9009 154.956C89.3326 154.957 89.7585 154.85 90.1446 154.644C90.5307 154.438 90.8662 154.138 91.1243 153.769V151.716L89.2715 151.831C87.8152 151.918 87.1149 152.44 87.1149 153.373V153.373Z" fill="#292D2E"/>
<path d="M98.2056 145.676L98.1722 147.448H98.2352C98.4174 146.882 98.7576 146.389 99.2101 146.035C99.6625 145.682 100.206 145.484 100.766 145.47C101.137 145.456 101.507 145.524 101.852 145.672L101.659 148.192H101.533C101.163 148.098 100.783 148.053 100.403 148.057C100.039 148.038 99.6769 148.128 99.358 148.316C99.0392 148.505 98.7761 148.785 98.5984 149.125C98.3265 149.797 98.1999 150.526 98.2278 151.257V156.665H95.5042V145.676H98.2056Z" fill="#292D2E"/>
<path d="M113.854 147.855C112.491 147.855 111.79 149.105 111.79 150.988V156.665H109.067V150.494C109.067 148.994 108.696 147.859 107.41 147.859C106.006 147.859 105.391 149.267 105.391 150.992V156.665H102.667V145.676H105.391L105.368 147.329H105.431C105.898 146.309 107.155 145.47 108.492 145.47C109.974 145.47 110.875 146.103 111.364 147.559C111.692 146.911 112.182 146.373 112.779 146.004C113.376 145.636 114.058 145.451 114.747 145.47C117.449 145.47 118.19 147.511 118.19 150.031V156.665H115.47V150.513C115.47 149.172 115.192 147.855 113.854 147.855Z" fill="#292D2E"/>
<path d="M119.353 151.218C119.353 147.744 121.777 145.474 124.945 145.474C128.113 145.474 130.503 147.744 130.503 151.218C130.503 154.691 128.076 156.914 124.945 156.914C121.814 156.914 119.353 154.691 119.353 151.218ZM124.945 147.812C123.159 147.812 122.181 149.263 122.181 151.146C122.181 153.029 123.159 154.509 124.945 154.509C126.731 154.509 127.709 153.033 127.709 151.146C127.709 149.259 126.705 147.812 124.945 147.812Z" fill="#292D2E"/>
<path d="M136.71 147.855C135.031 147.855 134.457 149.354 134.457 151.194V156.665H131.733V145.676H134.457L134.442 147.329H134.505C135.061 146.17 136.102 145.47 137.588 145.47C140.553 145.47 141.294 147.511 141.294 150.146V156.665H138.563V150.786C138.563 149.149 138.292 147.855 136.71 147.855Z" fill="#292D2E"/>
<path d="M144.344 145.676L147.086 153.464L149.765 145.676H152.592L147.79 158.14C147.049 160.07 146.196 161 144.747 161C143.92 161.015 143.097 160.86 142.324 160.545L142.876 158.322C143.274 158.472 143.689 158.563 144.11 158.595C144.644 158.595 145.088 158.437 145.303 157.867L145.748 156.732L141.494 145.676H144.344Z" fill="#292D2E"/>
<path d="M151.358 141H152.381L157.057 154.916L161.737 141H162.693L157.335 156.688H156.698L151.358 141Z" fill="#292D2E"/>
<path d="M166.725 156.89C163.898 156.89 162.089 154.6 162.089 151.443C162.089 148.219 164.194 146.016 166.788 146.016C169.486 146.016 171.172 148.12 171.172 150.889C171.166 151.141 171.144 151.392 171.109 151.641H163.042C163.149 154.228 164.639 155.992 166.914 155.992C168.162 156.017 169.371 155.53 170.293 154.631L170.742 155.312C170.801 155.304 169.571 156.89 166.725 156.89ZM166.725 146.902C164.428 146.902 163.131 149.038 163.068 150.739H170.256C170.253 149.331 169.274 146.902 166.725 146.902V146.902Z" fill="#292D2E"/>
<path d="M179.58 150.375C179.58 148.698 179.153 146.878 176.963 146.878C174.836 146.878 173.84 148.9 173.84 151.487V156.665H172.947V146.198H173.817V148.219C174.089 147.554 174.539 146.989 175.111 146.597C175.682 146.205 176.351 146.003 177.03 146.016C179.835 146.016 180.473 147.922 180.473 150.399V156.665H179.58V150.375Z" fill="#292D2E"/>
<path d="M185.508 156.89C185.167 156.921 184.824 156.855 184.514 156.699C184.204 156.544 183.937 156.304 183.741 156.004C183.37 155.347 183.296 154.303 183.296 152.578V147.151H181.814V146.245H183.296V142.863H184.189V146.245H186.698V147.151H184.167V153.48C184.167 154.999 184.338 156.044 185.649 156.044C186.022 156.047 186.389 155.946 186.713 155.751L186.817 156.589C186.419 156.828 185.963 156.933 185.508 156.89Z" fill="#292D2E"/>
<path d="M194.943 154.691C194.662 155.348 194.211 155.904 193.641 156.294C193.072 156.684 192.41 156.891 191.734 156.89C189.095 156.89 188.351 155.213 188.351 152.42V146.198H189.244V152.669C189.244 154.279 189.544 156.028 191.797 156.028C194.05 156.028 194.943 153.69 194.943 151.601V146.198H195.836V156.665H194.943V154.691Z" fill="#292D2E"/>
<path d="M198.467 146.198H199.334V148.061C199.823 146.676 200.783 146.016 201.846 146.016C202.239 146.019 202.63 146.066 203.014 146.154L202.888 147.151C202.506 147.039 202.112 146.986 201.717 146.993C201.395 147.006 201.08 147.094 200.794 147.251C200.507 147.408 200.257 147.631 200.06 147.903C199.719 148.377 199.319 149.089 199.319 150.695V156.665H198.448L198.467 146.198Z" fill="#292D2E"/>
<path d="M208.031 156.89C205.204 156.89 203.395 154.6 203.395 151.443C203.395 148.219 205.5 146.016 208.098 146.016C210.795 146.016 212.5 148.104 212.5 150.897C212.493 151.149 212.471 151.4 212.433 151.649H204.355C204.459 154.236 205.948 156 208.224 156C209.473 156.024 210.683 155.537 211.607 154.639L212.051 155.32C212.096 155.304 210.88 156.89 208.031 156.89ZM208.031 146.902C205.737 146.902 204.436 149.038 204.374 150.739H211.562C211.562 149.331 210.584 146.902 208.031 146.902V146.902Z" fill="#292D2E"/>
<path d="M215.953 141H216.869V155.755H222.123V156.665H215.953V141Z" fill="#292D2E"/>
<path d="M229.86 155.074C229.43 155.632 228.891 156.083 228.281 156.396C227.672 156.71 227.006 156.878 226.329 156.89C224.435 156.89 223.138 155.506 223.138 153.757C223.138 152.009 224.435 150.672 227.244 150.593L229.879 150.502V149.877C229.879 147.855 228.689 146.902 226.914 146.902C225.919 146.925 224.946 147.214 224.083 147.745L223.713 147.04C224.656 146.399 225.745 146.045 226.863 146.016C229.542 146.016 230.794 147.333 230.794 150.193V156.665H229.883L229.86 155.074ZM227.348 151.419C224.925 151.487 224.094 152.487 224.094 153.793C224.094 154.979 224.988 156.016 226.562 156.016C228.008 156.016 229.367 154.829 229.86 153.998V151.352L227.348 151.419Z" fill="#292D2E"/>
<path d="M232.847 141H233.718V148.674C234.207 147.092 235.845 146.016 237.505 146.016C240.44 146.016 242.322 148.286 242.322 151.419C242.322 154.552 240.666 156.89 237.731 156.89C235.923 156.89 234.348 156.004 233.733 154.6V156.665H232.84L232.847 141ZM241.37 151.443C241.37 148.923 239.965 146.878 237.501 146.878C235.278 146.878 233.692 148.923 233.692 151.443C233.692 153.963 235.122 156.032 237.59 156.032C240.058 156.032 241.373 153.987 241.373 151.443H241.37Z" fill="#292D2E"/>
<path d="M246.724 156.004C248.151 156.004 249.129 155.324 249.129 153.987C249.129 152.737 247.747 152.056 246.535 151.613C245.131 151.091 243.812 150.426 243.812 148.777C243.812 146.89 245.387 146.028 246.747 146.028C247.305 145.995 247.862 146.108 248.369 146.358C248.877 146.607 249.32 146.986 249.659 147.46L249.085 148.12C248.344 147.329 247.81 146.894 246.706 146.894C245.602 146.894 244.705 147.531 244.705 148.666C244.705 149.687 245.727 150.209 247.043 150.755C248.662 151.411 250.007 152.072 250.007 153.864C250.007 155.818 248.525 156.882 246.672 156.882C245.975 156.891 245.287 156.708 244.674 156.351C244.062 155.994 243.545 155.476 243.174 154.845L243.834 154.208C244.597 155.241 245.427 156.004 246.724 156.004Z" fill="#292D2E"/>
<path d="M73.2338 147.266V141H70.4695V156.665H73.2338V149.738H79.3999V147.266H73.2338Z" fill="#292D2E"/>
<path d="M80.0817 141V145.676V147.266V149.738V151.716V156.665H82.8275V141H80.0817Z" fill="#292D2E"/>
<path d="M51.8009 150.359C51.4647 148.702 51.7049 146.971 52.4768 145.489C53.2487 144.007 54.4995 142.875 55.9956 142.305C55.7144 142.33 55.4347 142.372 55.1581 142.432C53.4619 142.824 51.9811 143.92 51.0415 145.478C50.102 147.036 49.7807 148.928 50.1482 150.739C50.5158 152.55 51.5421 154.13 53.0015 155.133C54.4608 156.136 56.2336 156.479 57.9299 156.087C58.2061 156.019 58.4784 155.933 58.7451 155.83C57.1629 155.973 55.586 155.496 54.3084 154.49C53.0308 153.483 52.1396 152.015 51.8009 150.359V150.359Z" fill="#044E59"/>
<path d="M58.3523 141.692C58.077 141.759 57.8059 141.845 57.5408 141.949C59.1229 141.806 60.6996 142.283 61.9766 143.29C63.2537 144.297 64.1436 145.766 64.4804 147.422C64.8171 149.079 64.5776 150.809 63.8065 152.291C63.0355 153.773 61.7856 154.904 60.2903 155.474C60.5681 155.449 60.8441 155.405 61.1167 155.343C61.9759 155.171 62.794 154.816 63.5227 154.301C64.2514 153.785 64.876 153.119 65.3595 152.341C65.843 151.564 66.1756 150.691 66.3378 149.774C66.4999 148.857 66.4883 147.914 66.3036 147.002C66.1189 146.09 65.7648 145.226 65.2623 144.463C64.7598 143.699 64.119 143.05 63.3778 142.555C62.6366 142.06 61.8101 141.729 60.9469 141.581C60.0838 141.433 59.2015 141.47 58.3523 141.692V141.692Z" fill="#007157"/>
</g>
<path fill-rule="evenodd" clip-rule="evenodd" d="M49 20H22H20V22.3V49H22V22.3H49V20Z" fill="#007157"/>
<path fill-rule="evenodd" clip-rule="evenodd" d="M20 251V278V280H22.3H49V278H22.3V251H20Z" fill="#007157"/>
<path fill-rule="evenodd" clip-rule="evenodd" d="M251 280H278H280V277.7L280 251H278L278 277.7H251V280Z" fill="#007157"/>
<path fill-rule="evenodd" clip-rule="evenodd" d="M280 49V22V20H277.7H251V22H277.7V49H280Z" fill="#007157"/>
<path d="M73.78 173.05C73.22 173.05 72.7467 172.95 72.36 172.75C71.98 172.55 71.6733 172.28 71.44 171.94C71.2067 171.6 71.04 171.22 70.94 170.8C70.84 170.373 70.79 169.933 70.79 169.48V165.9H71.48V169.48C71.48 169.853 71.5167 170.217 71.59 170.57C71.67 170.917 71.7967 171.23 71.97 171.51C72.1433 171.79 72.3767 172.013 72.67 172.18C72.9633 172.34 73.33 172.42 73.77 172.42C74.2233 172.42 74.5967 172.337 74.89 172.17C75.19 172.003 75.4267 171.78 75.6 171.5C75.7733 171.213 75.8933 170.897 75.96 170.55C76.0333 170.197 76.07 169.84 76.07 169.48V165.9H76.77V169.48C76.77 169.953 76.7167 170.407 76.61 170.84C76.5033 171.267 76.33 171.647 76.09 171.98C75.8567 172.313 75.55 172.577 75.17 172.77C74.79 172.957 74.3267 173.05 73.78 173.05ZM78.3988 165.9L80.7188 168.99L83.0288 165.9H83.8188L81.0988 169.5L83.7388 173H82.9488L80.7188 170.01L78.4788 173H77.6788L80.3188 169.5L77.5988 165.9H78.3988ZM87.1986 173V165.9H89.6086C90.3619 165.9 90.9886 166.06 91.4886 166.38C91.9953 166.693 92.3753 167.12 92.6286 167.66C92.8819 168.193 93.0086 168.787 93.0086 169.44C93.0086 170.16 92.8686 170.787 92.5886 171.32C92.3086 171.853 91.9153 172.267 91.4086 172.56C90.9019 172.853 90.3019 173 89.6086 173H87.1986ZM92.3086 169.44C92.3086 168.873 92.2019 168.37 91.9886 167.93C91.7819 167.49 91.4753 167.147 91.0686 166.9C90.6686 166.647 90.1819 166.52 89.6086 166.52H87.8986V172.38H89.6086C90.1953 172.38 90.6886 172.25 91.0886 171.99C91.4886 171.73 91.7919 171.38 91.9986 170.94C92.2053 170.5 92.3086 170 92.3086 169.44ZM96.457 173.1C95.957 173.1 95.5104 172.977 95.117 172.73C94.7237 172.483 94.4137 172.153 94.187 171.74C93.9604 171.327 93.847 170.873 93.847 170.38C93.847 169.893 93.957 169.447 94.177 169.04C94.4037 168.633 94.7137 168.31 95.107 168.07C95.5004 167.823 95.947 167.7 96.447 167.7C96.9604 167.7 97.4104 167.823 97.797 168.07C98.1837 168.317 98.4837 168.643 98.697 169.05C98.917 169.45 99.027 169.89 99.027 170.37C99.027 170.477 99.0237 170.567 99.017 170.64H94.557C94.5904 171.013 94.697 171.347 94.877 171.64C95.057 171.927 95.287 172.157 95.567 172.33C95.847 172.497 96.1537 172.58 96.487 172.58C96.827 172.58 97.147 172.493 97.447 172.32C97.747 172.147 97.9604 171.92 98.087 171.64L98.677 171.8C98.5704 172.053 98.4037 172.28 98.177 172.48C97.957 172.673 97.7004 172.827 97.407 172.94C97.1137 173.047 96.797 173.1 96.457 173.1ZM94.537 170.15H98.387C98.3604 169.777 98.257 169.447 98.077 169.16C97.897 168.867 97.667 168.64 97.387 168.48C97.107 168.313 96.797 168.23 96.457 168.23C96.117 168.23 95.807 168.313 95.527 168.48C95.247 168.64 95.017 168.867 94.837 169.16C94.6637 169.447 94.5637 169.777 94.537 170.15ZM101.786 173.1C101.36 173.1 100.963 173.03 100.596 172.89C100.236 172.743 99.9195 172.53 99.6462 172.25L99.9262 171.77C100.22 172.043 100.513 172.243 100.806 172.37C101.106 172.49 101.423 172.55 101.756 172.55C102.156 172.55 102.483 172.47 102.736 172.31C102.996 172.143 103.126 171.907 103.126 171.6C103.126 171.393 103.063 171.237 102.936 171.13C102.816 171.017 102.64 170.927 102.406 170.86C102.18 170.793 101.906 170.717 101.586 170.63C101.226 170.53 100.923 170.427 100.676 170.32C100.436 170.207 100.253 170.067 100.126 169.9C100.006 169.727 99.9462 169.503 99.9462 169.23C99.9462 168.897 100.03 168.617 100.196 168.39C100.37 168.163 100.603 167.993 100.896 167.88C101.196 167.76 101.53 167.7 101.896 167.7C102.296 167.7 102.65 167.763 102.956 167.89C103.263 168.017 103.513 168.193 103.706 168.42L103.376 168.88C103.196 168.667 102.973 168.51 102.706 168.41C102.446 168.303 102.163 168.25 101.856 168.25C101.643 168.25 101.44 168.28 101.246 168.34C101.053 168.393 100.893 168.487 100.766 168.62C100.646 168.747 100.586 168.923 100.586 169.15C100.586 169.43 100.69 169.623 100.896 169.73C101.103 169.837 101.416 169.95 101.836 170.07C102.23 170.177 102.573 170.283 102.866 170.39C103.16 170.497 103.386 170.64 103.546 170.82C103.706 170.993 103.786 171.237 103.786 171.55C103.786 172.037 103.603 172.417 103.236 172.69C102.87 172.963 102.386 173.1 101.786 173.1ZM104.91 166.7V165.7H105.59V166.7H104.91ZM104.91 173V167.79H105.59V173H104.91ZM109.178 173.07C108.818 173.07 108.488 172.997 108.188 172.85C107.895 172.703 107.638 172.507 107.418 172.26C107.205 172.007 107.038 171.72 106.918 171.4C106.798 171.08 106.738 170.75 106.738 170.41C106.738 169.923 106.841 169.477 107.048 169.07C107.255 168.657 107.538 168.327 107.898 168.08C108.265 167.827 108.685 167.7 109.158 167.7C109.605 167.7 109.991 167.813 110.318 168.04C110.651 168.267 110.931 168.547 111.158 168.88V167.79H111.768V173.02C111.768 173.507 111.651 173.913 111.418 174.24C111.185 174.567 110.875 174.813 110.488 174.98C110.101 175.147 109.678 175.23 109.218 175.23C108.618 175.23 108.135 175.123 107.768 174.91C107.408 174.697 107.111 174.41 106.878 174.05L107.298 173.72C107.505 174.047 107.778 174.29 108.118 174.45C108.465 174.61 108.831 174.69 109.218 174.69C109.558 174.69 109.868 174.627 110.148 174.5C110.435 174.38 110.661 174.197 110.828 173.95C111.001 173.703 111.088 173.393 111.088 173.02V171.99C110.888 172.317 110.615 172.58 110.268 172.78C109.921 172.973 109.558 173.07 109.178 173.07ZM109.368 172.5C109.641 172.5 109.901 172.437 110.148 172.31C110.395 172.183 110.601 172.023 110.768 171.83C110.941 171.63 111.048 171.423 111.088 171.21V169.6C110.988 169.347 110.845 169.123 110.658 168.93C110.471 168.73 110.258 168.577 110.018 168.47C109.778 168.357 109.535 168.3 109.288 168.3C108.901 168.3 108.568 168.407 108.288 168.62C108.015 168.827 107.801 169.093 107.648 169.42C107.501 169.74 107.428 170.073 107.428 170.42C107.428 170.793 107.515 171.14 107.688 171.46C107.861 171.773 108.095 172.027 108.388 172.22C108.681 172.407 109.008 172.5 109.368 172.5ZM117.65 173H116.97V170.09C116.97 169.477 116.876 169.03 116.69 168.75C116.51 168.463 116.23 168.32 115.85 168.32C115.583 168.32 115.32 168.387 115.06 168.52C114.8 168.647 114.57 168.823 114.37 169.05C114.176 169.27 114.036 169.523 113.95 169.81V173H113.27V167.79H113.89V168.97C114.096 168.59 114.4 168.283 114.8 168.05C115.2 167.817 115.633 167.7 116.1 167.7C116.486 167.7 116.793 167.793 117.02 167.98C117.246 168.16 117.406 168.42 117.5 168.76C117.6 169.093 117.65 169.49 117.65 169.95V173ZM121.788 173V165.9H122.488V173H121.788ZM128.509 173H127.829V170.09C127.829 169.477 127.736 169.03 127.549 168.75C127.369 168.463 127.089 168.32 126.709 168.32C126.442 168.32 126.179 168.387 125.919 168.52C125.659 168.647 125.429 168.823 125.229 169.05C125.036 169.27 124.896 169.523 124.809 169.81V173H124.129V167.79H124.749V168.97C124.956 168.59 125.259 168.283 125.659 168.05C126.059 167.817 126.492 167.7 126.959 167.7C127.346 167.7 127.652 167.793 127.879 167.98C128.106 168.16 128.266 168.42 128.359 168.76C128.459 169.093 128.509 169.49 128.509 169.95V173ZM132.41 172.75C132.33 172.783 132.183 172.843 131.97 172.93C131.757 173.017 131.51 173.06 131.23 173.06C130.937 173.06 130.68 172.977 130.46 172.81C130.24 172.643 130.13 172.393 130.13 172.06V168.33H129.41V167.79H130.13V166.03H130.81V167.79H132.01V168.33H130.81V171.87C130.823 172.063 130.89 172.207 131.01 172.3C131.137 172.387 131.28 172.43 131.44 172.43C131.627 172.43 131.793 172.4 131.94 172.34C132.093 172.273 132.19 172.227 132.23 172.2L132.41 172.75ZM135.422 173.1C134.922 173.1 134.475 172.977 134.082 172.73C133.689 172.483 133.379 172.153 133.152 171.74C132.925 171.327 132.812 170.873 132.812 170.38C132.812 169.893 132.922 169.447 133.142 169.04C133.369 168.633 133.679 168.31 134.072 168.07C134.465 167.823 134.912 167.7 135.412 167.7C135.925 167.7 136.375 167.823 136.762 168.07C137.149 168.317 137.449 168.643 137.662 169.05C137.882 169.45 137.992 169.89 137.992 170.37C137.992 170.477 137.989 170.567 137.982 170.64H133.522C133.555 171.013 133.662 171.347 133.842 171.64C134.022 171.927 134.252 172.157 134.532 172.33C134.812 172.497 135.119 172.58 135.452 172.58C135.792 172.58 136.112 172.493 136.412 172.32C136.712 172.147 136.925 171.92 137.052 171.64L137.642 171.8C137.535 172.053 137.369 172.28 137.142 172.48C136.922 172.673 136.665 172.827 136.372 172.94C136.079 173.047 135.762 173.1 135.422 173.1ZM133.502 170.15H137.352C137.325 169.777 137.222 169.447 137.042 169.16C136.862 168.867 136.632 168.64 136.352 168.48C136.072 168.313 135.762 168.23 135.422 168.23C135.082 168.23 134.772 168.313 134.492 168.48C134.212 168.64 133.982 168.867 133.802 169.16C133.629 169.447 133.529 169.777 133.502 170.15ZM141.641 168.39C141.188 168.403 140.788 168.53 140.441 168.77C140.101 169.01 139.861 169.34 139.721 169.76V173H139.041V167.79H139.681V169.04C139.861 168.673 140.098 168.377 140.391 168.15C140.691 167.923 141.008 167.797 141.341 167.77C141.408 167.763 141.464 167.76 141.511 167.76C141.558 167.76 141.601 167.763 141.641 167.77V168.39ZM146.927 173H146.247V170.09C146.247 169.477 146.154 169.03 145.967 168.75C145.787 168.463 145.507 168.32 145.127 168.32C144.86 168.32 144.597 168.387 144.337 168.52C144.077 168.647 143.847 168.823 143.647 169.05C143.454 169.27 143.314 169.523 143.227 169.81V173H142.547V167.79H143.167V168.97C143.374 168.59 143.677 168.283 144.077 168.05C144.477 167.817 144.91 167.7 145.377 167.7C145.764 167.7 146.07 167.793 146.297 167.98C146.524 168.16 146.684 168.42 146.777 168.76C146.877 169.093 146.927 169.49 146.927 169.95V173ZM150.616 173C150.616 172.7 150.652 172.397 150.726 172.09C150.806 171.777 150.962 171.477 151.196 171.19C151.436 170.897 151.796 170.627 152.276 170.38C152.469 170.28 152.669 170.183 152.876 170.09C153.082 169.99 153.276 169.883 153.456 169.77C153.636 169.65 153.782 169.517 153.896 169.37C154.009 169.217 154.066 169.037 154.066 168.83C154.066 168.663 154.016 168.503 153.916 168.35C153.816 168.19 153.669 168.06 153.476 167.96C153.282 167.853 153.039 167.8 152.746 167.8C152.466 167.8 152.216 167.85 151.996 167.95C151.782 168.05 151.602 168.167 151.456 168.3C151.316 168.427 151.209 168.53 151.136 168.61L150.706 168.14C150.746 168.1 150.822 168.03 150.936 167.93C151.049 167.823 151.196 167.713 151.376 167.6C151.562 167.487 151.779 167.39 152.026 167.31C152.272 167.23 152.549 167.19 152.856 167.19C153.262 167.19 153.609 167.263 153.896 167.41C154.189 167.557 154.412 167.75 154.566 167.99C154.719 168.223 154.796 168.48 154.796 168.76C154.796 169.033 154.736 169.27 154.616 169.47C154.502 169.663 154.352 169.833 154.166 169.98C153.986 170.12 153.796 170.243 153.596 170.35C153.402 170.45 153.226 170.537 153.066 170.61C152.646 170.81 152.316 171.01 152.076 171.21C151.836 171.403 151.659 171.597 151.546 171.79C151.439 171.983 151.366 172.18 151.326 172.38H154.906V173H150.616ZM160.961 170.07C160.961 170.657 160.851 171.18 160.631 171.64C160.411 172.093 160.111 172.45 159.731 172.71C159.357 172.97 158.931 173.1 158.451 173.1C157.971 173.1 157.541 172.97 157.161 172.71C156.781 172.45 156.481 172.093 156.261 171.64C156.047 171.18 155.941 170.657 155.941 170.07C155.941 169.483 156.047 168.963 156.261 168.51C156.481 168.05 156.781 167.69 157.161 167.43C157.541 167.163 157.971 167.03 158.451 167.03C158.931 167.03 159.357 167.163 159.731 167.43C160.111 167.69 160.411 168.05 160.631 168.51C160.851 168.963 160.961 169.483 160.961 170.07ZM160.271 170.07C160.271 169.597 160.194 169.18 160.041 168.82C159.887 168.453 159.674 168.17 159.401 167.97C159.127 167.77 158.811 167.67 158.451 167.67C158.091 167.67 157.774 167.77 157.501 167.97C157.227 168.17 157.011 168.453 156.851 168.82C156.697 169.18 156.621 169.597 156.621 170.07C156.621 170.543 156.697 170.96 156.851 171.32C157.011 171.68 157.227 171.96 157.501 172.16C157.774 172.36 158.091 172.46 158.451 172.46C158.811 172.46 159.127 172.36 159.401 172.16C159.674 171.96 159.887 171.68 160.041 171.32C160.194 170.96 160.271 170.543 160.271 170.07ZM161.954 173C161.954 172.7 161.99 172.397 162.064 172.09C162.144 171.777 162.3 171.477 162.534 171.19C162.774 170.897 163.134 170.627 163.614 170.38C163.807 170.28 164.007 170.183 164.214 170.09C164.42 169.99 164.614 169.883 164.794 169.77C164.974 169.65 165.12 169.517 165.234 169.37C165.347 169.217 165.404 169.037 165.404 168.83C165.404 168.663 165.354 168.503 165.254 168.35C165.154 168.19 165.007 168.06 164.814 167.96C164.62 167.853 164.377 167.8 164.084 167.8C163.804 167.8 163.554 167.85 163.334 167.95C163.12 168.05 162.94 168.167 162.794 168.3C162.654 168.427 162.547 168.53 162.474 168.61L162.044 168.14C162.084 168.1 162.16 168.03 162.274 167.93C162.387 167.823 162.534 167.713 162.714 167.6C162.9 167.487 163.117 167.39 163.364 167.31C163.61 167.23 163.887 167.19 164.194 167.19C164.6 167.19 164.947 167.263 165.234 167.41C165.527 167.557 165.75 167.75 165.904 167.99C166.057 168.223 166.134 168.48 166.134 168.76C166.134 169.033 166.074 169.27 165.954 169.47C165.84 169.663 165.69 169.833 165.504 169.98C165.324 170.12 165.134 170.243 164.934 170.35C164.74 170.45 164.564 170.537 164.404 170.61C163.984 170.81 163.654 171.01 163.414 171.21C163.174 171.403 162.997 171.597 162.884 171.79C162.777 171.983 162.704 172.18 162.664 172.38H166.244V173H161.954ZM170.789 172.38V173H167.399V172.38H168.819V168.1C168.745 168.2 168.612 168.313 168.419 168.44C168.225 168.567 168.015 168.677 167.789 168.77C167.562 168.857 167.362 168.9 167.189 168.9V168.24C167.342 168.24 167.509 168.197 167.689 168.11C167.875 168.023 168.049 167.923 168.209 167.81C168.375 167.69 168.515 167.58 168.629 167.48C168.742 167.38 168.805 167.317 168.819 167.29H169.519V172.38H170.789Z" fill="black"/>
</g>
<defs>
<clipPath id="clip0">
<rect width="300" height="300" fill="white"/>
</clipPath>
<clipPath id="clip1">
<rect width="200" height="20" fill="white" transform="translate(50 141)"/>
</clipPath>
</defs>
</svg>
