<svg width="650" height="650" viewBox="0 0 650 650" fill="none" xmlns="http://www.w3.org/2000/svg">
<g clip-path="url(#clip0_327_1187)">
<rect width="650" height="650" fill="url(#paint0_linear_327_1187)"/>
<g filter="url(#filter0_d_327_1187)">
<path d="M242.141 309.519C242.141 308.089 241.916 306.827 241.468 305.733C241.047 304.611 240.29 303.602 239.196 302.704C238.13 301.807 236.644 300.951 234.737 300.138C232.858 299.325 230.474 298.497 227.585 297.656C224.556 296.759 221.822 295.763 219.382 294.669C216.942 293.547 214.853 292.271 213.114 290.841C211.375 289.411 210.043 287.77 209.118 285.919C208.192 284.068 207.729 281.951 207.729 279.567C207.729 277.183 208.22 274.982 209.202 272.962C210.183 270.943 211.586 269.19 213.408 267.704C215.259 266.189 217.461 265.012 220.013 264.17C222.565 263.329 225.412 262.908 228.553 262.908C233.152 262.908 237.05 263.792 240.248 265.558C243.473 267.297 245.927 269.583 247.609 272.415C249.292 275.22 250.133 278.221 250.133 281.418H242.057C242.057 279.118 241.566 277.085 240.584 275.318C239.603 273.523 238.116 272.121 236.125 271.111C234.134 270.074 231.61 269.555 228.553 269.555C225.664 269.555 223.28 269.99 221.401 270.859C219.522 271.728 218.12 272.906 217.195 274.393C216.297 275.879 215.848 277.576 215.848 279.483C215.848 280.773 216.115 281.951 216.648 283.016C217.209 284.054 218.064 285.022 219.214 285.919C220.392 286.817 221.878 287.644 223.673 288.401C225.496 289.158 227.669 289.888 230.193 290.589C233.671 291.57 236.672 292.664 239.196 293.87C241.72 295.076 243.795 296.436 245.422 297.951C247.077 299.437 248.297 301.134 249.082 303.041C249.895 304.92 250.302 307.051 250.302 309.435C250.302 311.931 249.797 314.189 248.787 316.208C247.778 318.227 246.333 319.952 244.454 321.382C242.575 322.812 240.318 323.92 237.681 324.706C235.073 325.463 232.157 325.841 228.931 325.841C226.099 325.841 223.308 325.449 220.56 324.663C217.84 323.878 215.358 322.7 213.114 321.13C210.898 319.559 209.118 317.624 207.771 315.324C206.453 312.997 205.794 310.304 205.794 307.247H213.871C213.871 309.351 214.278 311.16 215.091 312.674C215.904 314.161 217.012 315.395 218.414 316.376C219.845 317.358 221.457 318.087 223.252 318.564C225.075 319.012 226.968 319.237 228.931 319.237C231.764 319.237 234.162 318.844 236.125 318.059C238.088 317.274 239.575 316.152 240.584 314.693C241.622 313.235 242.141 311.51 242.141 309.519ZM288.121 342.5V288.233L288.794 279.483H295.945V342.5H288.121ZM257.537 302.746V301.863C257.537 298.385 257.944 295.23 258.757 292.398C259.571 289.537 260.763 287.083 262.333 285.036C263.904 282.988 265.797 281.418 268.012 280.324C270.256 279.202 272.808 278.641 275.669 278.641C278.529 278.641 281.039 279.146 283.199 280.156C285.386 281.137 287.237 282.582 288.752 284.489C290.294 286.368 291.514 288.64 292.411 291.304C293.309 293.968 293.926 296.983 294.262 300.348V304.219C293.954 307.556 293.351 310.557 292.454 313.221C291.556 315.885 290.336 318.157 288.794 320.036C287.279 321.915 285.414 323.359 283.199 324.369C281.011 325.351 278.473 325.841 275.584 325.841C272.78 325.841 270.256 325.266 268.012 324.117C265.797 322.967 263.904 321.354 262.333 319.279C260.791 317.203 259.599 314.764 258.757 311.959C257.944 309.126 257.537 306.056 257.537 302.746ZM265.362 301.863V302.746C265.362 305.018 265.6 307.163 266.077 309.183C266.554 311.174 267.283 312.941 268.265 314.483C269.274 316.026 270.536 317.246 272.051 318.143C273.593 319.012 275.416 319.447 277.52 319.447C280.1 319.447 282.245 318.886 283.956 317.764C285.695 316.643 287.083 315.17 288.121 313.347C289.158 311.496 289.958 309.519 290.518 307.416V297.277C290.21 295.735 289.719 294.235 289.046 292.776C288.401 291.318 287.56 290.014 286.522 288.864C285.484 287.686 284.222 286.761 282.736 286.087C281.278 285.386 279.567 285.036 277.604 285.036C275.472 285.036 273.635 285.484 272.093 286.382C270.55 287.279 269.274 288.513 268.265 290.084C267.283 291.626 266.554 293.407 266.077 295.426C265.6 297.446 265.362 299.591 265.362 301.863ZM336.288 314.483V279.483H344.113V325H336.667L336.288 314.483ZM337.76 304.892L341 304.808C341 307.836 340.677 310.641 340.032 313.221C339.415 315.773 338.405 317.989 337.003 319.868C335.601 321.747 333.764 323.219 331.492 324.285C329.221 325.323 326.458 325.841 323.205 325.841C320.989 325.841 318.956 325.519 317.105 324.874C315.282 324.229 313.712 323.233 312.394 321.887C311.075 320.541 310.052 318.788 309.323 316.629C308.622 314.469 308.271 311.875 308.271 308.846V279.483H316.054V308.93C316.054 310.977 316.278 312.674 316.727 314.02C317.203 315.338 317.834 316.39 318.62 317.175C319.433 317.933 320.33 318.465 321.312 318.774C322.322 319.082 323.359 319.237 324.425 319.237C327.734 319.237 330.357 318.606 332.292 317.344C334.227 316.054 335.615 314.329 336.456 312.169C337.326 309.982 337.76 307.556 337.76 304.892ZM382.815 317.217V293.786C382.815 291.991 382.45 290.434 381.721 289.116C381.02 287.77 379.954 286.732 378.524 286.003C377.094 285.274 375.327 284.91 373.223 284.91C371.26 284.91 369.536 285.246 368.049 285.919C366.591 286.592 365.441 287.476 364.6 288.569C363.786 289.663 363.38 290.841 363.38 292.103H355.597C355.597 290.476 356.018 288.864 356.859 287.265C357.7 285.667 358.906 284.222 360.477 282.932C362.076 281.614 363.983 280.577 366.198 279.819C368.442 279.034 370.938 278.641 373.686 278.641C376.995 278.641 379.912 279.202 382.436 280.324C384.988 281.446 386.98 283.143 388.41 285.414C389.868 287.658 390.597 290.476 390.597 293.87V315.072C390.597 316.586 390.724 318.199 390.976 319.91C391.256 321.621 391.663 323.093 392.196 324.327V325H384.077C383.684 324.103 383.376 322.911 383.151 321.424C382.927 319.91 382.815 318.508 382.815 317.217ZM384.161 297.404L384.245 302.872H376.379C374.163 302.872 372.186 303.055 370.447 303.419C368.708 303.756 367.25 304.275 366.072 304.976C364.894 305.677 363.997 306.56 363.38 307.626C362.763 308.664 362.454 309.884 362.454 311.286C362.454 312.716 362.777 314.02 363.422 315.198C364.067 316.376 365.034 317.316 366.324 318.017C367.642 318.69 369.255 319.026 371.162 319.026C373.546 319.026 375.649 318.522 377.472 317.512C379.295 316.502 380.74 315.268 381.805 313.81C382.899 312.352 383.488 310.935 383.572 309.561L386.895 313.305C386.699 314.483 386.166 315.787 385.297 317.217C384.427 318.648 383.264 320.022 381.805 321.34C380.375 322.63 378.664 323.71 376.673 324.579C374.71 325.421 372.494 325.841 370.026 325.841C366.941 325.841 364.235 325.238 361.907 324.032C359.608 322.827 357.813 321.214 356.523 319.195C355.261 317.147 354.63 314.862 354.63 312.338C354.63 309.898 355.106 307.752 356.06 305.901C357.013 304.022 358.388 302.466 360.182 301.232C361.977 299.97 364.137 299.016 366.661 298.371C369.185 297.726 372.003 297.404 375.116 297.404H384.161ZM431.529 316.166V260.384H439.354V325H432.202L431.529 316.166ZM400.904 302.746V301.863C400.904 298.385 401.325 295.23 402.166 292.398C403.035 289.537 404.255 287.083 405.826 285.036C407.424 282.988 409.317 281.418 411.505 280.324C413.721 279.202 416.189 278.641 418.909 278.641C421.769 278.641 424.266 279.146 426.397 280.156C428.556 281.137 430.379 282.582 431.866 284.489C433.38 286.368 434.572 288.64 435.441 291.304C436.311 293.968 436.914 296.983 437.25 300.348V304.219C436.942 307.556 436.339 310.557 435.441 313.221C434.572 315.885 433.38 318.157 431.866 320.036C430.379 321.915 428.556 323.359 426.397 324.369C424.237 325.351 421.713 325.841 418.825 325.841C416.16 325.841 413.721 325.266 411.505 324.117C409.317 322.967 407.424 321.354 405.826 319.279C404.255 317.203 403.035 314.764 402.166 311.959C401.325 309.126 400.904 306.056 400.904 302.746ZM408.729 301.863V302.746C408.729 305.018 408.953 307.149 409.402 309.14C409.878 311.132 410.608 312.885 411.589 314.399C412.571 315.913 413.819 317.105 415.333 317.975C416.848 318.816 418.656 319.237 420.76 319.237C423.34 319.237 425.457 318.69 427.112 317.596C428.795 316.502 430.141 315.058 431.151 313.263C432.16 311.468 432.945 309.519 433.506 307.416V297.277C433.17 295.735 432.679 294.249 432.034 292.818C431.417 291.36 430.604 290.07 429.594 288.948C428.612 287.798 427.393 286.887 425.934 286.214C424.504 285.541 422.807 285.204 420.844 285.204C418.713 285.204 416.876 285.653 415.333 286.55C413.819 287.42 412.571 288.626 411.589 290.168C410.608 291.682 409.878 293.449 409.402 295.469C408.953 297.46 408.729 299.591 408.729 301.863ZM487.69 263.75H495.766V305.186C495.766 309.786 494.743 313.614 492.696 316.671C490.648 319.728 487.928 322.027 484.534 323.57C481.169 325.084 477.509 325.841 473.555 325.841C469.404 325.841 465.646 325.084 462.281 323.57C458.943 322.027 456.293 319.728 454.33 316.671C452.395 313.614 451.427 309.786 451.427 305.186V263.75H459.462V305.186C459.462 308.383 460.051 311.02 461.229 313.095C462.407 315.17 464.047 316.713 466.151 317.722C468.282 318.732 470.75 319.237 473.555 319.237C476.387 319.237 478.855 318.732 480.959 317.722C483.09 316.713 484.745 315.17 485.923 313.095C487.101 311.02 487.69 308.383 487.69 305.186V263.75ZM515.118 288.233V342.5H507.293V279.483H514.445L515.118 288.233ZM545.785 301.863V302.746C545.785 306.056 545.392 309.126 544.607 311.959C543.822 314.764 542.672 317.203 541.157 319.279C539.671 321.354 537.834 322.967 535.647 324.117C533.459 325.266 530.949 325.841 528.117 325.841C525.228 325.841 522.676 325.365 520.46 324.411C518.245 323.458 516.366 322.069 514.823 320.246C513.281 318.423 512.047 316.236 511.121 313.684C510.224 311.132 509.607 308.257 509.27 305.06V300.348C509.607 296.983 510.238 293.968 511.163 291.304C512.089 288.64 513.309 286.368 514.823 284.489C516.366 282.582 518.231 281.137 520.418 280.156C522.606 279.146 525.13 278.641 527.99 278.641C530.851 278.641 533.389 279.202 535.605 280.324C537.82 281.418 539.685 282.988 541.2 285.036C542.714 287.083 543.85 289.537 544.607 292.398C545.392 295.23 545.785 298.385 545.785 301.863ZM537.96 302.746V301.863C537.96 299.591 537.722 297.46 537.245 295.469C536.768 293.449 536.025 291.682 535.016 290.168C534.034 288.626 532.772 287.42 531.23 286.55C529.687 285.653 527.85 285.204 525.719 285.204C523.756 285.204 522.045 285.541 520.586 286.214C519.156 286.887 517.936 287.798 516.927 288.948C515.917 290.07 515.09 291.36 514.445 292.818C513.828 294.249 513.365 295.735 513.056 297.277V308.173C513.617 310.136 514.402 311.987 515.412 313.726C516.422 315.437 517.768 316.825 519.451 317.891C521.133 318.928 523.251 319.447 525.803 319.447C527.906 319.447 529.715 319.012 531.23 318.143C532.772 317.246 534.034 316.026 535.016 314.483C536.025 312.941 536.768 311.174 537.245 309.183C537.722 307.163 537.96 305.018 537.96 302.746Z" fill="white"/>
</g>
<g filter="url(#filter1_d_327_1187)">
<rect x="99.001" y="253.616" width="86.1545" height="86.1545" rx="17.2309" fill="white"/>
</g>
<path d="M145.008 273.258V281.08L142.079 284.009L139.149 281.08V273.258H145.008ZM165.513 293.763V299.622H157.692L154.762 296.692L157.692 293.763H165.513ZM126.466 293.763L129.395 296.692L126.466 299.622H118.645V293.763H126.466ZM142.079 309.376L145.008 312.305V320.126H139.149V312.305L142.079 309.376ZM150.866 267.4H133.291V283.511L142.079 292.299L150.866 283.511V267.4ZM171.371 287.905H155.26L146.473 296.692L155.26 305.48H171.371V287.905ZM128.897 287.905H112.786V305.48H128.897L137.685 296.692L128.897 287.905ZM142.079 301.086L133.291 309.874V325.985H150.866V309.874L142.079 301.086Z" fill="url(#paint1_linear_327_1187)"/>
<path d="M113.973 374.441V375.453C113.973 375.801 113.919 376.04 113.81 376.171C113.723 376.28 113.506 376.334 113.157 376.334H107.738V384.497H112.994V385.509C112.994 385.857 112.94 386.096 112.831 386.227C112.744 386.336 112.526 386.39 112.178 386.39H107.738V396.413C107.738 396.762 107.672 397.001 107.542 397.132C107.433 397.241 107.204 397.295 106.856 397.295H105.126V375.322C105.126 374.974 105.18 374.745 105.289 374.637C105.419 374.506 105.659 374.441 106.007 374.441H113.973ZM116.946 377.216C116.946 376.868 117 376.639 117.109 376.53C117.24 376.4 117.479 376.334 117.828 376.334H119.819V378.065C119.819 378.413 119.754 378.652 119.623 378.783C119.514 378.892 119.286 378.946 118.938 378.946H116.946V377.216ZM119.689 380.709V396.413C119.689 396.762 119.623 397.001 119.493 397.132C119.384 397.241 119.155 397.295 118.807 397.295H117.077V381.591C117.077 381.243 117.131 381.014 117.24 380.905C117.37 380.775 117.61 380.709 117.958 380.709H119.689ZM131.604 380.709C132.736 380.709 133.53 380.949 133.987 381.428C134.466 381.885 134.706 382.679 134.706 383.811V396.413C134.706 396.762 134.64 397.001 134.51 397.132C134.401 397.241 134.173 397.295 133.824 397.295H132.094V384.464C132.094 383.789 132.007 383.31 131.833 383.027C131.659 382.744 131.234 382.603 130.559 382.603H126.544V396.413C126.544 396.762 126.478 397.001 126.348 397.132C126.239 397.241 126.01 397.295 125.662 397.295H123.932V381.591C123.932 381.243 123.986 381.014 124.095 380.905C124.225 380.775 124.465 380.709 124.813 380.709H126.544V382.603C126.674 381.972 126.87 381.504 127.131 381.199C127.414 380.873 127.871 380.709 128.502 380.709H131.604ZM149.626 374.441V396.413C149.626 396.762 149.56 397.001 149.43 397.132C149.321 397.241 149.093 397.295 148.744 397.295H147.014V375.322C147.014 374.974 147.068 374.745 147.177 374.637C147.308 374.506 147.547 374.441 147.895 374.441H149.626ZM141.953 397.295C140.821 397.295 140.016 397.066 139.537 396.609C139.08 396.13 138.852 395.325 138.852 394.193V383.811C138.852 382.679 139.08 381.885 139.537 381.428C140.016 380.949 140.821 380.709 141.953 380.709H145.055C145.686 380.709 146.132 380.873 146.394 381.199C146.677 381.504 146.883 381.972 147.014 382.603H142.998C142.323 382.603 141.899 382.744 141.725 383.027C141.551 383.31 141.464 383.789 141.464 384.464V393.54C141.464 394.215 141.551 394.694 141.725 394.977C141.899 395.26 142.323 395.401 142.998 395.401H145.708V396.413C145.708 396.762 145.654 397.001 145.545 397.132C145.458 397.241 145.24 397.295 144.892 397.295H141.953ZM171.119 374.441V375.453C171.119 375.801 171.054 376.04 170.923 376.171C170.814 376.28 170.586 376.334 170.238 376.334H166.32V396.413C166.32 396.762 166.255 397.001 166.124 397.132C166.015 397.241 165.787 397.295 165.438 397.295H163.708V376.334H158.974V375.322C158.974 374.974 159.028 374.745 159.137 374.637C159.268 374.506 159.507 374.441 159.855 374.441H171.119ZM181.145 395.401V396.413C181.145 396.762 181.091 397.001 180.982 397.132C180.895 397.241 180.678 397.295 180.329 397.295H175.399C174.267 397.295 173.462 397.066 172.983 396.609C172.526 396.13 172.298 395.325 172.298 394.193V383.811C172.298 382.679 172.526 381.885 172.983 381.428C173.462 380.949 174.267 380.709 175.399 380.709H178.991C180.122 380.709 180.917 380.949 181.374 381.428C181.853 381.885 182.092 382.679 182.092 383.811V387.468C182.092 388.599 181.853 389.405 181.374 389.884C180.917 390.341 180.122 390.569 178.991 390.569H177.032C176.683 390.569 176.455 390.515 176.346 390.406C176.259 390.275 176.216 390.036 176.216 389.688V388.676H178.109C178.784 388.676 179.208 388.534 179.382 388.251C179.557 387.968 179.644 387.489 179.644 386.815V384.301C179.644 383.626 179.535 383.18 179.317 382.962C179.099 382.723 178.653 382.603 177.979 382.603H176.575C175.856 382.603 175.399 382.734 175.203 382.995C175.007 383.234 174.91 383.724 174.91 384.464V393.54C174.91 394.215 174.997 394.694 175.171 394.977C175.345 395.26 175.769 395.401 176.444 395.401H181.145ZM193.228 384.464C193.228 383.789 193.141 383.31 192.967 383.027C192.793 382.744 192.369 382.603 191.694 382.603H186.046C186.176 381.972 186.372 381.504 186.633 381.199C186.916 380.873 187.373 380.709 188.005 380.709H192.739C193.87 380.709 194.665 380.949 195.122 381.428C195.601 381.885 195.84 382.679 195.84 383.811V397.295H194.11C193.762 397.295 193.522 397.241 193.392 397.132C193.283 397.001 193.228 396.762 193.228 396.413V384.464ZM188.494 397.295C187.362 397.295 186.557 397.066 186.078 396.609C185.621 396.13 185.393 395.325 185.393 394.193V390.602C185.393 389.47 185.621 388.676 186.078 388.219C186.557 387.74 187.362 387.5 188.494 387.5H191.269C191.901 387.5 192.347 387.664 192.608 387.99C192.891 388.295 193.098 388.763 193.228 389.394H189.539C188.864 389.394 188.44 389.535 188.266 389.818C188.092 390.101 188.005 390.58 188.005 391.255V393.801C188.005 394.476 188.124 394.912 188.364 395.107C188.625 395.303 189.093 395.401 189.768 395.401H191.922V396.413C191.922 396.762 191.868 397.001 191.759 397.132C191.672 397.241 191.454 397.295 191.106 397.295H188.494ZM210.648 396.413C210.648 396.762 210.583 397.001 210.452 397.132C210.343 397.241 210.115 397.295 209.767 397.295H208.036V384.464C208.036 383.789 207.949 383.31 207.775 383.027C207.601 382.744 207.176 382.603 206.502 382.603H202.682V396.413C202.682 396.762 202.616 397.001 202.486 397.132C202.377 397.241 202.149 397.295 201.8 397.295H200.07V381.591C200.07 381.243 200.124 381.014 200.233 380.905C200.364 380.775 200.603 380.709 200.951 380.709H202.682V382.603C202.812 381.972 203.008 381.504 203.269 381.199C203.552 380.873 204.009 380.709 204.641 380.709H207.546C208.678 380.709 209.473 380.949 209.93 381.428C210.409 381.885 210.648 382.679 210.648 383.811V396.413ZM218.614 396.413C218.614 396.762 218.549 397.001 218.419 397.132C218.31 397.241 218.081 397.295 217.733 397.295H216.003V384.464C216.003 383.789 215.915 383.31 215.741 383.027C215.567 382.744 215.143 382.603 214.468 382.603H210.55C210.681 381.972 210.877 381.504 211.138 381.199C211.421 380.873 211.878 380.709 212.509 380.709H215.513C216.645 380.709 217.439 380.949 217.896 381.428C218.375 381.885 218.614 382.679 218.614 383.811V396.413ZM233.413 396.413C233.413 396.762 233.348 397.001 233.217 397.132C233.108 397.241 232.88 397.295 232.532 397.295H230.801V384.464C230.801 383.789 230.714 383.31 230.54 383.027C230.366 382.744 229.941 382.603 229.267 382.603H225.447V396.413C225.447 396.762 225.381 397.001 225.251 397.132C225.142 397.241 224.913 397.295 224.565 397.295H222.835V381.591C222.835 381.243 222.889 381.014 222.998 380.905C223.129 380.775 223.368 380.709 223.716 380.709H225.447V382.603C225.577 381.972 225.773 381.504 226.034 381.199C226.317 380.873 226.774 380.709 227.406 380.709H230.311C231.443 380.709 232.238 380.949 232.695 381.428C233.174 381.885 233.413 382.679 233.413 383.811V396.413ZM241.379 396.413C241.379 396.762 241.314 397.001 241.183 397.132C241.075 397.241 240.846 397.295 240.498 397.295H238.767V384.464C238.767 383.789 238.68 383.31 238.506 383.027C238.332 382.744 237.908 382.603 237.233 382.603H233.315C233.446 381.972 233.642 381.504 233.903 381.199C234.186 380.873 234.643 380.709 235.274 380.709H238.278C239.41 380.709 240.204 380.949 240.661 381.428C241.14 381.885 241.379 382.679 241.379 383.811V396.413ZM252.978 384.464C252.978 383.789 252.891 383.31 252.717 383.027C252.543 382.744 252.119 382.603 251.444 382.603H245.796C245.926 381.972 246.122 381.504 246.383 381.199C246.666 380.873 247.123 380.709 247.755 380.709H252.489C253.62 380.709 254.415 380.949 254.872 381.428C255.351 381.885 255.59 382.679 255.59 383.811V397.295H253.86C253.512 397.295 253.272 397.241 253.142 397.132C253.033 397.001 252.978 396.762 252.978 396.413V384.464ZM248.244 397.295C247.112 397.295 246.307 397.066 245.828 396.609C245.371 396.13 245.143 395.325 245.143 394.193V390.602C245.143 389.47 245.371 388.676 245.828 388.219C246.307 387.74 247.112 387.5 248.244 387.5H251.019C251.651 387.5 252.097 387.664 252.358 387.99C252.641 388.295 252.848 388.763 252.978 389.394H249.289C248.614 389.394 248.19 389.535 248.016 389.818C247.842 390.101 247.755 390.58 247.755 391.255V393.801C247.755 394.476 247.874 394.912 248.114 395.107C248.375 395.303 248.843 395.401 249.518 395.401H251.672V396.413C251.672 396.762 251.618 397.001 251.509 397.132C251.422 397.241 251.204 397.295 250.856 397.295H248.244ZM265.664 380.709C266.012 380.709 266.23 380.775 266.317 380.905C266.426 381.014 266.48 381.243 266.48 381.591V382.603H262.464V393.54C262.464 394.215 262.551 394.694 262.726 394.977C262.9 395.26 263.324 395.401 263.999 395.401H266.839C266.796 396.032 266.665 396.511 266.448 396.838C266.252 397.143 265.838 397.295 265.207 397.295H262.954C261.822 397.295 261.017 397.066 260.538 396.609C260.081 396.13 259.853 395.325 259.853 394.193V377.804C259.853 377.455 259.907 377.227 260.016 377.118C260.146 376.987 260.386 376.922 260.734 376.922H262.464V380.709H265.664ZM278.518 395.401V396.413C278.518 396.762 278.464 397.001 278.355 397.132C278.268 397.241 278.05 397.295 277.702 397.295H272.772C271.64 397.295 270.835 397.066 270.356 396.609C269.899 396.13 269.67 395.325 269.67 394.193V383.811C269.67 382.679 269.899 381.885 270.356 381.428C270.835 380.949 271.64 380.709 272.772 380.709H276.363C277.495 380.709 278.29 380.949 278.747 381.428C279.226 381.885 279.465 382.679 279.465 383.811V387.468C279.465 388.599 279.226 389.405 278.747 389.884C278.29 390.341 277.495 390.569 276.363 390.569H274.404C274.056 390.569 273.828 390.515 273.719 390.406C273.632 390.275 273.588 390.036 273.588 389.688V388.676H275.482C276.157 388.676 276.581 388.534 276.755 388.251C276.929 387.968 277.016 387.489 277.016 386.815V384.301C277.016 383.626 276.908 383.18 276.69 382.962C276.472 382.723 276.026 382.603 275.351 382.603H273.947C273.229 382.603 272.772 382.734 272.576 382.995C272.38 383.234 272.282 383.724 272.282 384.464V393.54C272.282 394.215 272.369 394.694 272.543 394.977C272.718 395.26 273.142 395.401 273.817 395.401H278.518ZM285.736 389.949C285.171 389.949 284.703 389.905 284.333 389.818C283.984 389.731 283.701 389.579 283.484 389.361C283.288 389.122 283.146 388.817 283.059 388.447C282.994 388.077 282.961 387.609 282.961 387.043V383.811C282.961 382.679 283.19 381.885 283.647 381.428C284.126 380.949 284.931 380.709 286.063 380.709H290.438C290.786 380.709 291.004 380.775 291.091 380.905C291.2 381.014 291.254 381.243 291.254 381.591V382.603H286.944C286.27 382.603 285.845 382.744 285.671 383.027C285.497 383.31 285.41 383.789 285.41 384.464V386.194C285.41 386.586 285.421 386.913 285.443 387.174C285.486 387.413 285.562 387.598 285.671 387.729C285.78 387.859 285.932 387.946 286.128 387.99C286.346 388.034 286.618 388.055 286.944 388.055H288.805C289.371 388.055 289.828 388.099 290.177 388.186C290.547 388.273 290.83 388.436 291.026 388.676C291.243 388.893 291.385 389.187 291.45 389.557C291.537 389.927 291.581 390.395 291.581 390.961V394.193C291.581 395.325 291.341 396.13 290.862 396.609C290.405 397.066 289.611 397.295 288.479 397.295H283.778C283.429 397.295 283.201 397.241 283.092 397.132C283.005 397.001 282.961 396.762 282.961 396.413V395.401H287.597C288.272 395.401 288.697 395.26 288.871 394.977C289.045 394.694 289.132 394.215 289.132 393.54V391.81C289.132 391.135 289.045 390.656 288.871 390.373C288.697 390.09 288.272 389.949 287.597 389.949H285.736ZM298.339 397.295H296.347C295.999 397.295 295.76 397.241 295.629 397.132C295.52 397.001 295.466 396.762 295.466 396.413V394.683H297.457C297.806 394.683 298.034 394.748 298.143 394.879C298.274 394.988 298.339 395.216 298.339 395.565V397.295ZM317.933 374.441V375.453C317.933 375.801 317.879 376.04 317.77 376.171C317.683 376.28 317.465 376.334 317.117 376.334H311.697V384.497H316.954V385.509C316.954 385.857 316.899 386.096 316.791 386.227C316.704 386.336 316.486 386.39 316.138 386.39H311.697V396.413C311.697 396.762 311.632 397.001 311.502 397.132C311.393 397.241 311.164 397.295 310.816 397.295H309.085V375.322C309.085 374.974 309.14 374.745 309.249 374.637C309.379 374.506 309.619 374.441 309.967 374.441H317.933ZM328.911 397.295V381.591C328.911 381.243 328.965 381.014 329.074 380.905C329.205 380.775 329.444 380.709 329.793 380.709H331.523V396.413C331.523 396.762 331.458 397.001 331.327 397.132C331.218 397.241 330.99 397.295 330.641 397.295H328.911ZM320.749 381.591C320.749 381.243 320.803 381.014 320.912 380.905C321.043 380.775 321.282 380.709 321.63 380.709H323.361V393.54C323.361 394.215 323.448 394.694 323.622 394.977C323.796 395.26 324.22 395.401 324.895 395.401H327.605V396.413C327.605 396.762 327.551 397.001 327.442 397.132C327.355 397.241 327.137 397.295 326.789 397.295H323.85C322.719 397.295 321.913 397.066 321.434 396.609C320.977 396.13 320.749 395.325 320.749 394.193V381.591ZM344.549 395.401V396.413C344.549 396.762 344.495 397.001 344.386 397.132C344.299 397.241 344.081 397.295 343.733 397.295H338.803C337.671 397.295 336.866 397.066 336.387 396.609C335.93 396.13 335.701 395.325 335.701 394.193V383.811C335.701 382.679 335.93 381.885 336.387 381.428C336.866 380.949 337.671 380.709 338.803 380.709H342.394C343.526 380.709 344.321 380.949 344.778 381.428C345.257 381.885 345.496 382.679 345.496 383.811V387.468C345.496 388.599 345.257 389.405 344.778 389.884C344.321 390.341 343.526 390.569 342.394 390.569H340.436C340.087 390.569 339.859 390.515 339.75 390.406C339.663 390.275 339.619 390.036 339.619 389.688V388.676H341.513C342.188 388.676 342.612 388.534 342.786 388.251C342.96 387.968 343.047 387.489 343.047 386.815V384.301C343.047 383.626 342.939 383.18 342.721 382.962C342.503 382.723 342.057 382.603 341.382 382.603H339.978C339.26 382.603 338.803 382.734 338.607 382.995C338.411 383.234 338.313 383.724 338.313 384.464V393.54C338.313 394.215 338.4 394.694 338.575 394.977C338.749 395.26 339.173 395.401 339.848 395.401H344.549ZM352.061 374.441V396.413C352.061 396.762 351.996 397.001 351.865 397.132C351.757 397.241 351.528 397.295 351.18 397.295H349.449V375.322C349.449 374.974 349.504 374.745 349.613 374.637C349.743 374.506 349.983 374.441 350.331 374.441H352.061ZM363.522 374.441L366.362 381.721L367.603 385.574H367.799L369.007 381.721L371.423 375.322C371.532 374.996 371.662 374.767 371.814 374.637C371.967 374.506 372.228 374.441 372.598 374.441H374.067L368.843 387.696V396.381C368.843 396.751 368.778 397.001 368.648 397.132C368.517 397.241 368.277 397.295 367.929 397.295H366.231V387.696L361.302 375.322C361.171 374.974 361.182 374.745 361.334 374.637C361.508 374.506 361.769 374.441 362.118 374.441H363.522ZM375.269 383.811C375.269 382.679 375.498 381.885 375.955 381.428C376.434 380.949 377.239 380.709 378.371 380.709H382.942C384.073 380.709 384.868 380.949 385.325 381.428C385.804 381.885 386.043 382.679 386.043 383.811V394.193C386.043 395.325 385.804 396.13 385.325 396.609C384.868 397.066 384.073 397.295 382.942 397.295H378.371C377.239 397.295 376.434 397.066 375.955 396.609C375.498 396.13 375.269 395.325 375.269 394.193V383.811ZM379.416 382.603C378.741 382.603 378.316 382.744 378.142 383.027C377.968 383.31 377.881 383.789 377.881 384.464V393.54C377.881 394.215 377.968 394.694 378.142 394.977C378.316 395.26 378.741 395.401 379.416 395.401H381.897C382.572 395.401 382.996 395.26 383.17 394.977C383.344 394.694 383.431 394.215 383.431 393.54V384.464C383.431 383.789 383.344 383.31 383.17 383.027C382.996 382.744 382.572 382.603 381.897 382.603H379.416ZM398.354 397.295V381.591C398.354 381.243 398.408 381.014 398.517 380.905C398.648 380.775 398.887 380.709 399.235 380.709H400.966V396.413C400.966 396.762 400.9 397.001 400.77 397.132C400.661 397.241 400.432 397.295 400.084 397.295H398.354ZM390.191 381.591C390.191 381.243 390.246 381.014 390.355 380.905C390.485 380.775 390.725 380.709 391.073 380.709H392.803V393.54C392.803 394.215 392.89 394.694 393.065 394.977C393.239 395.26 393.663 395.401 394.338 395.401H397.048V396.413C397.048 396.762 396.993 397.001 396.884 397.132C396.797 397.241 396.58 397.295 396.232 397.295H393.293C392.161 397.295 391.356 397.066 390.877 396.609C390.42 396.13 390.191 395.325 390.191 394.193V381.591ZM407.821 382.603V396.413C407.821 396.762 407.756 397.001 407.625 397.132C407.517 397.241 407.288 397.295 406.94 397.295H405.209V381.591C405.209 381.243 405.264 381.014 405.373 380.905C405.503 380.775 405.743 380.709 406.091 380.709H407.821V382.603C408.104 381.863 408.398 381.362 408.703 381.101C409.008 380.84 409.476 380.709 410.107 380.709H411.38C411.728 380.709 411.946 380.775 412.033 380.905C412.142 381.014 412.196 381.243 412.196 381.591V382.603H407.821ZM424.534 386.39V396.413C424.534 396.762 424.468 397.001 424.338 397.132C424.229 397.241 424 397.295 423.652 397.295H421.922V377.542C421.922 376.411 422.15 375.616 422.607 375.159C423.086 374.68 423.892 374.441 425.023 374.441H429.725C430.857 374.441 431.651 374.68 432.108 375.159C432.587 375.616 432.827 376.411 432.827 377.542V396.413C432.827 396.762 432.761 397.001 432.631 397.132C432.522 397.241 432.293 397.295 431.945 397.295H430.215V378.195C430.215 377.564 430.128 377.107 429.953 376.824C429.801 376.541 429.442 376.378 428.876 376.334H425.872C425.285 376.378 424.915 376.541 424.762 376.824C424.61 377.107 424.534 377.564 424.534 378.195V384.497H428.909V385.509C428.909 385.857 428.854 386.096 428.745 386.227C428.658 386.336 428.441 386.39 428.092 386.39H424.534ZM447.831 396.413C447.831 396.762 447.765 397.001 447.635 397.132C447.526 397.241 447.297 397.295 446.949 397.295H445.219V384.464C445.219 383.789 445.132 383.31 444.958 383.027C444.784 382.744 444.359 382.603 443.684 382.603H439.864V396.413C439.864 396.762 439.799 397.001 439.669 397.132C439.56 397.241 439.331 397.295 438.983 397.295H437.253V381.591C437.253 381.243 437.307 381.014 437.416 380.905C437.546 380.775 437.786 380.709 438.134 380.709H439.864V382.603C439.995 381.972 440.191 381.504 440.452 381.199C440.735 380.873 441.192 380.709 441.823 380.709H444.729C445.861 380.709 446.655 380.949 447.112 381.428C447.591 381.885 447.831 382.679 447.831 383.811V396.413ZM455.797 396.413C455.797 396.762 455.732 397.001 455.601 397.132C455.492 397.241 455.264 397.295 454.916 397.295H453.185V384.464C453.185 383.789 453.098 383.31 452.924 383.027C452.75 382.744 452.325 382.603 451.651 382.603H447.733C447.863 381.972 448.059 381.504 448.32 381.199C448.603 380.873 449.061 380.709 449.692 380.709H452.695C453.827 380.709 454.622 380.949 455.079 381.428C455.558 381.885 455.797 382.679 455.797 383.811V396.413ZM467.723 380.709C468.854 380.709 469.649 380.949 470.106 381.428C470.585 381.885 470.824 382.679 470.824 383.811V394.193C470.824 395.325 470.585 396.13 470.106 396.609C469.649 397.066 468.854 397.295 467.723 397.295H464.621C463.99 397.295 463.533 397.143 463.25 396.838C462.989 396.511 462.793 396.032 462.662 395.401V396.413C462.662 396.762 462.597 397.001 462.466 397.132C462.357 397.241 462.129 397.295 461.781 397.295H460.05V375.322C460.05 374.974 460.105 374.745 460.213 374.637C460.344 374.506 460.583 374.441 460.932 374.441H462.662V395.401H466.678C467.353 395.401 467.777 395.26 467.951 394.977C468.125 394.694 468.212 394.215 468.212 393.54V384.464C468.212 383.789 468.125 383.31 467.951 383.027C467.777 382.744 467.353 382.603 466.678 382.603H463.968V381.591C463.968 381.243 464.012 381.014 464.099 380.905C464.207 380.775 464.436 380.709 464.784 380.709H467.723ZM474.872 377.216C474.872 376.868 474.927 376.639 475.035 376.53C475.166 376.4 475.405 376.334 475.754 376.334H477.745V378.065C477.745 378.413 477.68 378.652 477.549 378.783C477.441 378.892 477.212 378.946 476.864 378.946H474.872V377.216ZM477.615 380.709V396.413C477.615 396.762 477.549 397.001 477.419 397.132C477.31 397.241 477.081 397.295 476.733 397.295H475.003V381.591C475.003 381.243 475.057 381.014 475.166 380.905C475.297 380.775 475.536 380.709 475.884 380.709H477.615ZM487.702 380.709C488.05 380.709 488.268 380.775 488.355 380.905C488.464 381.014 488.518 381.243 488.518 381.591V382.603H484.502V393.54C484.502 394.215 484.589 394.694 484.764 394.977C484.938 395.26 485.362 395.401 486.037 395.401H488.877C488.834 396.032 488.703 396.511 488.485 396.838C488.29 397.143 487.876 397.295 487.245 397.295H484.992C483.86 397.295 483.055 397.066 482.576 396.609C482.119 396.13 481.89 395.325 481.89 394.193V377.804C481.89 377.455 481.945 377.227 482.054 377.118C482.184 376.987 482.424 376.922 482.772 376.922H484.502V380.709H487.702ZM491.643 377.216C491.643 376.868 491.697 376.639 491.806 376.53C491.937 376.4 492.176 376.334 492.525 376.334H494.516V378.065C494.516 378.413 494.451 378.652 494.32 378.783C494.211 378.892 493.983 378.946 493.635 378.946H491.643V377.216ZM494.386 380.709V396.413C494.386 396.762 494.32 397.001 494.19 397.132C494.081 397.241 493.852 397.295 493.504 397.295H491.774V381.591C491.774 381.243 491.828 381.014 491.937 380.905C492.067 380.775 492.307 380.709 492.655 380.709H494.386ZM498.563 383.811C498.563 382.679 498.792 381.885 499.249 381.428C499.728 380.949 500.533 380.709 501.665 380.709H506.236C507.368 380.709 508.162 380.949 508.619 381.428C509.098 381.885 509.337 382.679 509.337 383.811V394.193C509.337 395.325 509.098 396.13 508.619 396.609C508.162 397.066 507.368 397.295 506.236 397.295H501.665C500.533 397.295 499.728 397.066 499.249 396.609C498.792 396.13 498.563 395.325 498.563 394.193V383.811ZM502.71 382.603C502.035 382.603 501.611 382.744 501.436 383.027C501.262 383.31 501.175 383.789 501.175 384.464V393.54C501.175 394.215 501.262 394.694 501.436 394.977C501.611 395.26 502.035 395.401 502.71 395.401H505.191C505.866 395.401 506.29 395.26 506.464 394.977C506.638 394.694 506.726 394.215 506.726 393.54V384.464C506.726 383.789 506.638 383.31 506.464 383.027C506.29 382.744 505.866 382.603 505.191 382.603H502.71ZM521.191 380.709C522.323 380.709 523.117 380.949 523.574 381.428C524.053 381.885 524.292 382.679 524.292 383.811V396.413C524.292 396.762 524.227 397.001 524.097 397.132C523.988 397.241 523.759 397.295 523.411 397.295H521.68V384.464C521.68 383.789 521.593 383.31 521.419 383.027C521.245 382.744 520.821 382.603 520.146 382.603H516.13V396.413C516.13 396.762 516.065 397.001 515.934 397.132C515.825 397.241 515.597 397.295 515.249 397.295H513.518V381.591C513.518 381.243 513.573 381.014 513.682 380.905C513.812 380.775 514.052 380.709 514.4 380.709H516.13V382.603C516.261 381.972 516.457 381.504 516.718 381.199C517.001 380.873 517.458 380.709 518.089 380.709H521.191ZM531.018 389.949C530.452 389.949 529.984 389.905 529.614 389.818C529.265 389.731 528.982 389.579 528.765 389.361C528.569 389.122 528.427 388.817 528.34 388.447C528.275 388.077 528.242 387.609 528.242 387.043V383.811C528.242 382.679 528.471 381.885 528.928 381.428C529.407 380.949 530.212 380.709 531.344 380.709H535.719C536.067 380.709 536.285 380.775 536.372 380.905C536.481 381.014 536.535 381.243 536.535 381.591V382.603H532.226C531.551 382.603 531.126 382.744 530.952 383.027C530.778 383.31 530.691 383.789 530.691 384.464V386.194C530.691 386.586 530.702 386.913 530.724 387.174C530.767 387.413 530.843 387.598 530.952 387.729C531.061 387.859 531.213 387.946 531.409 387.99C531.627 388.034 531.899 388.055 532.226 388.055H534.087C534.652 388.055 535.11 388.099 535.458 388.186C535.828 388.273 536.111 388.436 536.307 388.676C536.524 388.893 536.666 389.187 536.731 389.557C536.818 389.927 536.862 390.395 536.862 390.961V394.193C536.862 395.325 536.622 396.13 536.143 396.609C535.686 397.066 534.892 397.295 533.76 397.295H529.059C528.71 397.295 528.482 397.241 528.373 397.132C528.286 397.001 528.242 396.762 528.242 396.413V395.401H532.879C533.553 395.401 533.978 395.26 534.152 394.977C534.326 394.694 534.413 394.215 534.413 393.54V391.81C534.413 391.135 534.326 390.656 534.152 390.373C533.978 390.09 533.553 389.949 532.879 389.949H531.018ZM543.62 397.295H541.628C541.28 397.295 541.041 397.241 540.91 397.132C540.801 397.001 540.747 396.762 540.747 396.413V394.683H542.739C543.087 394.683 543.315 394.748 543.424 394.879C543.555 394.988 543.62 395.216 543.62 395.565V397.295Z" fill="white"/>
</g>
<defs>
<filter id="filter0_d_327_1187" x="202.348" y="256.938" width="346.884" height="89.0081" filterUnits="userSpaceOnUse" color-interpolation-filters="sRGB">
<feFlood flood-opacity="0" result="BackgroundImageFix"/>
<feColorMatrix in="SourceAlpha" type="matrix" values="0 0 0 0 0 0 0 0 0 0 0 0 0 0 0 0 0 0 127 0" result="hardAlpha"/>
<feOffset/>
<feGaussianBlur stdDeviation="1.72309"/>
<feComposite in2="hardAlpha" operator="out"/>
<feColorMatrix type="matrix" values="0 0 0 0 0 0 0 0 0 0 0 0 0 0 0 0 0 0 0.25 0"/>
<feBlend mode="normal" in2="BackgroundImageFix" result="effect1_dropShadow_327_1187"/>
<feBlend mode="normal" in="SourceGraphic" in2="effect1_dropShadow_327_1187" result="shape"/>
</filter>
<filter id="filter1_d_327_1187" x="92.1086" y="246.723" width="99.939" height="99.9395" filterUnits="userSpaceOnUse" color-interpolation-filters="sRGB">
<feFlood flood-opacity="0" result="BackgroundImageFix"/>
<feColorMatrix in="SourceAlpha" type="matrix" values="0 0 0 0 0 0 0 0 0 0 0 0 0 0 0 0 0 0 127 0" result="hardAlpha"/>
<feOffset/>
<feGaussianBlur stdDeviation="3.44618"/>
<feComposite in2="hardAlpha" operator="out"/>
<feColorMatrix type="matrix" values="0 0 0 0 0 0 0 0 0 0 0 0 0 0 0 0 0 0 0.25 0"/>
<feBlend mode="normal" in2="BackgroundImageFix" result="effect1_dropShadow_327_1187"/>
<feBlend mode="normal" in="SourceGraphic" in2="effect1_dropShadow_327_1187" result="shape"/>
</filter>
<linearGradient id="paint0_linear_327_1187" x1="-27.5459" y1="-1.11636e-05" x2="871.422" y2="377.904" gradientUnits="userSpaceOnUse">
<stop stop-color="#024C60"/>
<stop offset="0.421875"/>
<stop offset="1" stop-color="#783479"/>
</linearGradient>
<linearGradient id="paint1_linear_327_1187" x1="112.786" y1="267.4" x2="171.371" y2="325.985" gradientUnits="userSpaceOnUse">
<stop offset="0.203259" stop-color="#00BFFF"/>
<stop offset="0.446013" stop-color="#1E90FF"/>
<stop offset="0.585954" stop-color="#0000CD"/>
<stop offset="0.794437" stop-color="#000080"/>
</linearGradient>
<clipPath id="clip0_327_1187">
<rect width="650" height="650" fill="white"/>
</clipPath>
</defs>
</svg>
