<svg width="300" height="300" viewBox="0 0 300 300" fill="none" xmlns="http://www.w3.org/2000/svg">
<g clip-path="url(#clip0_208_65)">
<rect width="300" height="300" fill="#150031"/>
<path fill-rule="evenodd" clip-rule="evenodd" d="M241.458 15.3366C160.82 84.1909 34.8524 96.1618 -18.0514 35.624V26.9147L-27 -26.6216L-22.5889 -27L-18.0514 0.146584L-0.864449 -11.6621C52.0393 48.8757 160.82 72.5103 241.458 3.65591C321.878 -65.011 371.813 62.0471 386.877 134.725L387 147C372.086 74.4229 322.097 -53.5178 241.458 15.3366ZM187.364 73.7351C119.97 104.205 14.6931 109.503 -29.5212 82.7129V78.8588L-37 55.1675L-33.3135 55L-29.5212 67.0131L-15.1572 61.7874C29.057 88.5772 119.97 99.0361 187.364 68.5661C254.574 38.179 296.308 94.4059 308.898 126.568L309 132C296.535 99.8825 254.758 43.2651 187.364 73.7351Z" fill="url(#paint0_linear_208_65)"/>
<path d="M-165.358 385.86L396.933 314.955L389.901 243.386C389.901 243.386 368.264 212.034 320.967 203.613C277.387 195.854 257.033 216.002 204.615 212.887C166.974 210.651 138.469 193.846 101.582 194.33C62.5808 194.841 51.374 218.485 -26.7064 223.447C-68.5754 226.108 -75.5222 221.515 -130.755 228.461C-186.164 235.431 -164.851 293.543 -164.851 293.543L-165.358 385.86Z" fill="url(#paint1_linear_208_65)"/>
<path d="M-162.347 306.988L-162.346 306.99L-162.346 306.99L-162.346 306.991L-162.216 307.672L-162.334 308.404L-176.053 393.811L350.782 372.802L354.672 308.464C354.602 308.335 354.523 308.19 354.434 308.032C353.964 307.19 353.234 305.948 352.221 304.409C350.193 301.328 347.04 297.066 342.583 292.425C333.662 283.139 319.581 272.403 298.909 266.526C280.028 261.157 265.428 262.706 249.048 264.82C248.317 264.914 247.583 265.01 246.844 265.106C230.857 267.183 213.076 269.494 189.158 265.809C172.426 263.232 158.111 257.659 144.459 252.345C143.421 251.941 142.387 251.539 141.356 251.139C126.628 245.43 112.47 240.29 95.906 239.017C81.1092 237.88 70.4874 241.014 56.4958 245.143C54.2604 245.802 51.939 246.487 49.5008 247.184C31.743 252.261 9.22237 257.438 -28.2947 256.53C-43.7899 256.154 -54.2451 255.15 -64.1411 254.199C-67.0119 253.923 -69.8357 253.651 -72.7218 253.401C-85.5118 252.293 -99.9406 251.552 -126.098 252.587C-138.332 253.07 -146.113 256.749 -151.217 261.358C-156.449 266.082 -159.611 272.452 -161.381 279.332C-163.144 286.187 -163.406 293.103 -163.196 298.394C-163.092 301.019 -162.875 303.198 -162.685 304.71C-162.59 305.465 -162.502 306.051 -162.44 306.44C-162.409 306.635 -162.384 306.78 -162.367 306.873C-162.359 306.919 -162.353 306.952 -162.35 306.971L-162.347 306.988Z" stroke="#D4F7FF" stroke-width="9.44126"/>
<path d="M-177.736 334.812L-177.736 334.814L-177.736 334.814L-177.736 334.815L-177.638 335.326L-177.726 335.874L-187.444 396.367L186.414 381.458L189.163 335.993C189.119 335.911 189.069 335.822 189.015 335.724C188.682 335.128 188.165 334.249 187.447 333.159C186.011 330.976 183.776 327.955 180.616 324.665C174.292 318.081 164.31 310.472 149.658 306.306C136.281 302.502 125.942 303.598 114.313 305.099C113.793 305.166 113.271 305.234 112.746 305.302C101.386 306.778 88.7314 308.423 71.7132 305.801C59.8073 303.967 49.6225 300.003 39.927 296.228C39.1887 295.941 38.4533 295.655 37.7201 295.37C27.2569 291.315 17.2198 287.673 5.48201 286.77C-4.99023 285.966 -12.4973 288.18 -22.4356 291.113C-24.0243 291.581 -25.6751 292.068 -27.4101 292.564C-40.0425 296.175 -56.0627 299.857 -82.7384 299.211C-93.7536 298.945 -101.189 298.23 -108.22 297.554C-110.258 297.359 -112.263 297.166 -114.311 296.988C-123.389 296.202 -133.63 295.676 -152.204 296.41C-160.856 296.752 -166.326 299.351 -169.901 302.579C-173.571 305.894 -175.802 310.374 -177.053 315.239C-178.3 320.086 -178.486 324.981 -178.337 328.73C-178.264 330.59 -178.109 332.133 -177.975 333.204C-177.908 333.738 -177.846 334.153 -177.802 334.428C-177.78 334.565 -177.762 334.668 -177.751 334.733L-177.738 334.802L-177.736 334.812Z" stroke="#D4F7FF" stroke-width="7.08095"/>
<path d="M77.979 288V280.19H80.63C81.4587 280.19 82.148 280.366 82.698 280.718C83.2553 281.063 83.6733 281.532 83.952 282.126C84.2307 282.713 84.37 283.365 84.37 284.084C84.37 284.876 84.216 285.565 83.908 286.152C83.6 286.739 83.1673 287.193 82.61 287.516C82.0527 287.839 81.3927 288 80.63 288H77.979ZM83.6 284.084C83.6 283.461 83.4827 282.907 83.248 282.423C83.0207 281.939 82.6833 281.561 82.236 281.29C81.796 281.011 81.2607 280.872 80.63 280.872H78.749V287.318H80.63C81.2753 287.318 81.818 287.175 82.258 286.889C82.698 286.603 83.0317 286.218 83.259 285.734C83.4863 285.25 83.6 284.7 83.6 284.084ZM88.1633 288.11C87.6133 288.11 87.1219 287.974 86.6893 287.703C86.2566 287.432 85.9156 287.069 85.6663 286.614C85.4169 286.159 85.2923 285.661 85.2923 285.118C85.2923 284.583 85.4133 284.091 85.6553 283.644C85.9046 283.197 86.2456 282.841 86.6783 282.577C87.1109 282.306 87.6023 282.17 88.1523 282.17C88.7169 282.17 89.2119 282.306 89.6373 282.577C90.0626 282.848 90.3926 283.208 90.6273 283.655C90.8693 284.095 90.9903 284.579 90.9903 285.107C90.9903 285.224 90.9866 285.323 90.9793 285.404H86.0733C86.1099 285.815 86.2273 286.181 86.4253 286.504C86.6233 286.819 86.8763 287.072 87.1843 287.263C87.4923 287.446 87.8296 287.538 88.1963 287.538C88.5703 287.538 88.9223 287.443 89.2523 287.252C89.5823 287.061 89.8169 286.812 89.9563 286.504L90.6053 286.68C90.4879 286.959 90.3046 287.208 90.0553 287.428C89.8133 287.641 89.5309 287.809 89.2083 287.934C88.8856 288.051 88.5373 288.11 88.1633 288.11ZM86.0513 284.865H90.2863C90.2569 284.454 90.1433 284.091 89.9453 283.776C89.7473 283.453 89.4943 283.204 89.1863 283.028C88.8783 282.845 88.5373 282.753 88.1633 282.753C87.7893 282.753 87.4483 282.845 87.1403 283.028C86.8323 283.204 86.5793 283.453 86.3813 283.776C86.1906 284.091 86.0806 284.454 86.0513 284.865ZM94.0253 288.11C93.556 288.11 93.1197 288.033 92.7163 287.879C92.3203 287.718 91.972 287.483 91.6713 287.175L91.9793 286.647C92.302 286.948 92.6247 287.168 92.9473 287.307C93.2773 287.439 93.6257 287.505 93.9923 287.505C94.4323 287.505 94.7917 287.417 95.0703 287.241C95.3563 287.058 95.4993 286.797 95.4993 286.46C95.4993 286.233 95.4297 286.06 95.2903 285.943C95.1583 285.818 94.964 285.719 94.7073 285.646C94.458 285.573 94.1573 285.488 93.8053 285.393C93.4093 285.283 93.0757 285.169 92.8043 285.052C92.5403 284.927 92.3387 284.773 92.1993 284.59C92.0673 284.399 92.0013 284.154 92.0013 283.853C92.0013 283.486 92.093 283.178 92.2763 282.929C92.467 282.68 92.7237 282.493 93.0463 282.368C93.3763 282.236 93.743 282.17 94.1463 282.17C94.5863 282.17 94.975 282.24 95.3123 282.379C95.6497 282.518 95.9247 282.713 96.1373 282.962L95.7743 283.468C95.5763 283.233 95.3307 283.061 95.0373 282.951C94.7513 282.834 94.4397 282.775 94.1023 282.775C93.8677 282.775 93.644 282.808 93.4313 282.874C93.2187 282.933 93.0427 283.035 92.9033 283.182C92.7713 283.321 92.7053 283.516 92.7053 283.765C92.7053 284.073 92.819 284.286 93.0463 284.403C93.2737 284.52 93.6183 284.645 94.0803 284.777C94.513 284.894 94.8907 285.012 95.2133 285.129C95.536 285.246 95.7853 285.404 95.9613 285.602C96.1373 285.793 96.2253 286.06 96.2253 286.405C96.2253 286.94 96.0237 287.358 95.6203 287.659C95.217 287.96 94.6853 288.11 94.0253 288.11ZM97.4617 281.07V279.97H98.2097V281.07H97.4617ZM97.4617 288V282.269H98.2097V288H97.4617ZM102.156 288.077C101.76 288.077 101.397 287.996 101.067 287.835C100.745 287.674 100.462 287.457 100.22 287.186C99.9856 286.907 99.8022 286.592 99.6702 286.24C99.5382 285.888 99.4722 285.525 99.4722 285.151C99.4722 284.616 99.5859 284.124 99.8132 283.677C100.041 283.222 100.352 282.859 100.748 282.588C101.152 282.309 101.614 282.17 102.134 282.17C102.626 282.17 103.051 282.295 103.41 282.544C103.777 282.793 104.085 283.101 104.334 283.468V282.269H105.005V288.022C105.005 288.557 104.877 289.005 104.62 289.364C104.364 289.723 104.023 289.995 103.597 290.178C103.172 290.361 102.706 290.453 102.2 290.453C101.54 290.453 101.009 290.336 100.605 290.101C100.209 289.866 99.8829 289.551 99.6262 289.155L100.088 288.792C100.316 289.151 100.616 289.419 100.99 289.595C101.372 289.771 101.775 289.859 102.2 289.859C102.574 289.859 102.915 289.789 103.223 289.65C103.539 289.518 103.788 289.316 103.971 289.045C104.162 288.774 104.257 288.433 104.257 288.022V286.889C104.037 287.248 103.737 287.538 103.355 287.758C102.974 287.971 102.574 288.077 102.156 288.077ZM102.365 287.45C102.666 287.45 102.952 287.38 103.223 287.241C103.495 287.102 103.722 286.926 103.905 286.713C104.096 286.493 104.213 286.266 104.257 286.031V284.26C104.147 283.981 103.99 283.736 103.784 283.523C103.579 283.303 103.344 283.134 103.08 283.017C102.816 282.892 102.549 282.83 102.277 282.83C101.852 282.83 101.485 282.947 101.177 283.182C100.877 283.409 100.642 283.703 100.473 284.062C100.312 284.414 100.231 284.781 100.231 285.162C100.231 285.573 100.327 285.954 100.517 286.306C100.708 286.651 100.965 286.929 101.287 287.142C101.61 287.347 101.969 287.45 102.365 287.45ZM111.475 288H110.727V284.799C110.727 284.124 110.624 283.633 110.419 283.325C110.221 283.01 109.913 282.852 109.495 282.852C109.202 282.852 108.912 282.925 108.626 283.072C108.34 283.211 108.087 283.406 107.867 283.655C107.654 283.897 107.5 284.176 107.405 284.491V288H106.657V282.269H107.339V283.567C107.566 283.149 107.9 282.812 108.34 282.555C108.78 282.298 109.257 282.17 109.77 282.17C110.195 282.17 110.533 282.273 110.782 282.478C111.031 282.676 111.207 282.962 111.31 283.336C111.42 283.703 111.475 284.139 111.475 284.645V288ZM115.545 288.11C114.995 288.11 114.504 287.974 114.071 287.703C113.638 287.432 113.297 287.069 113.048 286.614C112.799 286.159 112.674 285.661 112.674 285.118C112.674 284.583 112.795 284.091 113.037 283.644C113.286 283.197 113.627 282.841 114.06 282.577C114.493 282.306 114.984 282.17 115.534 282.17C116.099 282.17 116.594 282.306 117.019 282.577C117.444 282.848 117.774 283.208 118.009 283.655C118.251 284.095 118.372 284.579 118.372 285.107C118.372 285.224 118.368 285.323 118.361 285.404H113.455C113.492 285.815 113.609 286.181 113.807 286.504C114.005 286.819 114.258 287.072 114.566 287.263C114.874 287.446 115.211 287.538 115.578 287.538C115.952 287.538 116.304 287.443 116.634 287.252C116.964 287.061 117.199 286.812 117.338 286.504L117.987 286.68C117.87 286.959 117.686 287.208 117.437 287.428C117.195 287.641 116.913 287.809 116.59 287.934C116.267 288.051 115.919 288.11 115.545 288.11ZM113.433 284.865H117.668C117.639 284.454 117.525 284.091 117.327 283.776C117.129 283.453 116.876 283.204 116.568 283.028C116.26 282.845 115.919 282.753 115.545 282.753C115.171 282.753 114.83 282.845 114.522 283.028C114.214 283.204 113.961 283.453 113.763 283.776C113.572 284.091 113.462 284.454 113.433 284.865ZM122.386 282.929C121.888 282.944 121.448 283.083 121.066 283.347C120.692 283.611 120.428 283.974 120.274 284.436V288H119.526V282.269H120.23V283.644C120.428 283.241 120.689 282.914 121.011 282.665C121.341 282.416 121.69 282.276 122.056 282.247C122.13 282.24 122.192 282.236 122.243 282.236C122.295 282.236 122.342 282.24 122.386 282.247V282.929ZM126.369 284.722C126.178 284.722 126.013 284.652 125.874 284.513C125.734 284.374 125.665 284.209 125.665 284.018C125.665 283.827 125.734 283.662 125.874 283.523C126.013 283.384 126.178 283.314 126.369 283.314C126.559 283.314 126.724 283.384 126.864 283.523C127.003 283.662 127.073 283.827 127.073 284.018C127.073 284.209 127.003 284.374 126.864 284.513C126.724 284.652 126.559 284.722 126.369 284.722ZM130.904 284.04C130.904 283.571 130.985 283.105 131.146 282.643C131.315 282.181 131.557 281.763 131.872 281.389C132.188 281.008 132.576 280.707 133.038 280.487C133.5 280.26 134.025 280.146 134.611 280.146C135.301 280.146 135.895 280.307 136.393 280.63C136.892 280.945 137.259 281.352 137.493 281.851L136.888 282.225C136.72 281.88 136.507 281.609 136.25 281.411C135.994 281.206 135.719 281.059 135.425 280.971C135.139 280.883 134.853 280.839 134.567 280.839C134.098 280.839 133.684 280.934 133.324 281.125C132.965 281.308 132.661 281.558 132.411 281.873C132.169 282.188 131.986 282.537 131.861 282.918C131.737 283.299 131.674 283.688 131.674 284.084C131.674 284.517 131.748 284.931 131.894 285.327C132.041 285.716 132.246 286.064 132.51 286.372C132.774 286.68 133.082 286.926 133.434 287.109C133.794 287.285 134.182 287.373 134.6 287.373C134.894 287.373 135.194 287.322 135.502 287.219C135.81 287.116 136.096 286.959 136.36 286.746C136.624 286.533 136.841 286.258 137.009 285.921L137.647 286.251C137.479 286.64 137.226 286.97 136.888 287.241C136.558 287.512 136.184 287.718 135.766 287.857C135.356 287.996 134.952 288.066 134.556 288.066C134.021 288.066 133.53 287.952 133.082 287.725C132.635 287.49 132.246 287.182 131.916 286.801C131.594 286.412 131.344 285.98 131.168 285.503C130.992 285.019 130.904 284.531 130.904 284.04ZM141.25 288.11C140.7 288.11 140.209 287.974 139.776 287.703C139.351 287.432 139.017 287.072 138.775 286.625C138.533 286.17 138.412 285.679 138.412 285.151C138.412 284.616 138.533 284.124 138.775 283.677C139.025 283.222 139.362 282.859 139.787 282.588C140.22 282.309 140.708 282.17 141.25 282.17C141.8 282.17 142.288 282.309 142.713 282.588C143.146 282.859 143.483 283.222 143.725 283.677C143.975 284.124 144.099 284.616 144.099 285.151C144.099 285.679 143.978 286.17 143.736 286.625C143.494 287.072 143.157 287.432 142.724 287.703C142.299 287.974 141.808 288.11 141.25 288.11ZM139.171 285.162C139.171 285.587 139.263 285.976 139.446 286.328C139.637 286.673 139.89 286.948 140.205 287.153C140.521 287.351 140.869 287.45 141.25 287.45C141.632 287.45 141.98 287.347 142.295 287.142C142.611 286.937 142.864 286.658 143.054 286.306C143.245 285.954 143.34 285.565 143.34 285.14C143.34 284.715 143.245 284.326 143.054 283.974C142.864 283.622 142.611 283.343 142.295 283.138C141.98 282.933 141.632 282.83 141.25 282.83C140.876 282.83 140.532 282.936 140.216 283.149C139.901 283.354 139.648 283.633 139.457 283.985C139.267 284.337 139.171 284.729 139.171 285.162ZM150.168 288H149.42V284.799C149.42 284.124 149.318 283.633 149.112 283.325C148.914 283.01 148.606 282.852 148.188 282.852C147.895 282.852 147.605 282.925 147.319 283.072C147.033 283.211 146.78 283.406 146.56 283.655C146.348 283.897 146.194 284.176 146.098 284.491V288H145.35V282.269H146.032V283.567C146.26 283.149 146.593 282.812 147.033 282.555C147.473 282.298 147.95 282.17 148.463 282.17C148.889 282.17 149.226 282.273 149.475 282.478C149.725 282.676 149.901 282.962 150.003 283.336C150.113 283.703 150.168 284.139 150.168 284.645V288ZM154.46 287.725C154.372 287.762 154.21 287.828 153.976 287.923C153.741 288.018 153.47 288.066 153.162 288.066C152.839 288.066 152.557 287.974 152.315 287.791C152.073 287.608 151.952 287.333 151.952 286.966V282.863H151.16V282.269H151.952V280.333H152.7V282.269H154.02V282.863H152.7V286.757C152.714 286.97 152.788 287.127 152.92 287.23C153.059 287.325 153.217 287.373 153.393 287.373C153.598 287.373 153.781 287.34 153.943 287.274C154.111 287.201 154.218 287.149 154.262 287.12L154.46 287.725ZM157.773 288.11C157.223 288.11 156.731 287.974 156.299 287.703C155.866 287.432 155.525 287.069 155.276 286.614C155.026 286.159 154.902 285.661 154.902 285.118C154.902 284.583 155.023 284.091 155.265 283.644C155.514 283.197 155.855 282.841 156.288 282.577C156.72 282.306 157.212 282.17 157.762 282.17C158.326 282.17 158.821 282.306 159.247 282.577C159.672 282.848 160.002 283.208 160.237 283.655C160.479 284.095 160.6 284.579 160.6 285.107C160.6 285.224 160.596 285.323 160.589 285.404H155.683C155.719 285.815 155.837 286.181 156.035 286.504C156.233 286.819 156.486 287.072 156.794 287.263C157.102 287.446 157.439 287.538 157.806 287.538C158.18 287.538 158.532 287.443 158.862 287.252C159.192 287.061 159.426 286.812 159.566 286.504L160.215 286.68C160.097 286.959 159.914 287.208 159.665 287.428C159.423 287.641 159.14 287.809 158.818 287.934C158.495 288.051 158.147 288.11 157.773 288.11ZM155.661 284.865H159.896C159.866 284.454 159.753 284.091 159.555 283.776C159.357 283.453 159.104 283.204 158.796 283.028C158.488 282.845 158.147 282.753 157.773 282.753C157.399 282.753 157.058 282.845 156.75 283.028C156.442 283.204 156.189 283.453 155.991 283.776C155.8 284.091 155.69 284.454 155.661 284.865ZM166.572 288H165.824V284.799C165.824 284.124 165.721 283.633 165.516 283.325C165.318 283.01 165.01 282.852 164.592 282.852C164.298 282.852 164.009 282.925 163.723 283.072C163.437 283.211 163.184 283.406 162.964 283.655C162.751 283.897 162.597 284.176 162.502 284.491V288H161.754V282.269H162.436V283.567C162.663 283.149 162.997 282.812 163.437 282.555C163.877 282.298 164.353 282.17 164.867 282.17C165.292 282.17 165.629 282.273 165.879 282.478C166.128 282.676 166.304 282.962 166.407 283.336C166.517 283.703 166.572 284.139 166.572 284.645V288ZM170.863 287.725C170.775 287.762 170.614 287.828 170.379 287.923C170.144 288.018 169.873 288.066 169.565 288.066C169.242 288.066 168.96 287.974 168.718 287.791C168.476 287.608 168.355 287.333 168.355 286.966V282.863H167.563V282.269H168.355V280.333H169.103V282.269H170.423V282.863H169.103V286.757C169.118 286.97 169.191 287.127 169.323 287.23C169.462 287.325 169.62 287.373 169.796 287.373C170.001 287.373 170.185 287.34 170.346 287.274C170.515 287.201 170.621 287.149 170.665 287.12L170.863 287.725ZM174.238 284.04C174.238 283.571 174.319 283.105 174.48 282.643C174.649 282.181 174.891 281.763 175.206 281.389C175.522 281.008 175.91 280.707 176.372 280.487C176.834 280.26 177.359 280.146 177.945 280.146C178.635 280.146 179.229 280.307 179.727 280.63C180.226 280.945 180.593 281.352 180.827 281.851L180.222 282.225C180.054 281.88 179.841 281.609 179.584 281.411C179.328 281.206 179.053 281.059 178.759 280.971C178.473 280.883 178.187 280.839 177.901 280.839C177.432 280.839 177.018 280.934 176.658 281.125C176.299 281.308 175.995 281.558 175.745 281.873C175.503 282.188 175.32 282.537 175.195 282.918C175.071 283.299 175.008 283.688 175.008 284.084C175.008 284.517 175.082 284.931 175.228 285.327C175.375 285.716 175.58 286.064 175.844 286.372C176.108 286.68 176.416 286.926 176.768 287.109C177.128 287.285 177.516 287.373 177.934 287.373C178.228 287.373 178.528 287.322 178.836 287.219C179.144 287.116 179.43 286.959 179.694 286.746C179.958 286.533 180.175 286.258 180.343 285.921L180.981 286.251C180.813 286.64 180.56 286.97 180.222 287.241C179.892 287.512 179.518 287.718 179.1 287.857C178.69 287.996 178.286 288.066 177.89 288.066C177.355 288.066 176.864 287.952 176.416 287.725C175.969 287.49 175.58 287.182 175.25 286.801C174.928 286.412 174.678 285.98 174.502 285.503C174.326 285.019 174.238 284.531 174.238 284.04ZM185.002 282.929C184.504 282.944 184.064 283.083 183.682 283.347C183.308 283.611 183.044 283.974 182.89 284.436V288H182.142V282.269H182.846V283.644C183.044 283.241 183.305 282.914 183.627 282.665C183.957 282.416 184.306 282.276 184.672 282.247C184.746 282.24 184.808 282.236 184.859 282.236C184.911 282.236 184.958 282.24 185.002 282.247V282.929ZM188.302 288.11C187.752 288.11 187.261 287.974 186.828 287.703C186.395 287.432 186.054 287.069 185.805 286.614C185.556 286.159 185.431 285.661 185.431 285.118C185.431 284.583 185.552 284.091 185.794 283.644C186.043 283.197 186.384 282.841 186.817 282.577C187.25 282.306 187.741 282.17 188.291 282.17C188.856 282.17 189.351 282.306 189.776 282.577C190.201 282.848 190.531 283.208 190.766 283.655C191.008 284.095 191.129 284.579 191.129 285.107C191.129 285.224 191.125 285.323 191.118 285.404H186.212C186.249 285.815 186.366 286.181 186.564 286.504C186.762 286.819 187.015 287.072 187.323 287.263C187.631 287.446 187.968 287.538 188.335 287.538C188.709 287.538 189.061 287.443 189.391 287.252C189.721 287.061 189.956 286.812 190.095 286.504L190.744 286.68C190.627 286.959 190.443 287.208 190.194 287.428C189.952 287.641 189.67 287.809 189.347 287.934C189.024 288.051 188.676 288.11 188.302 288.11ZM186.19 284.865H190.425C190.396 284.454 190.282 284.091 190.084 283.776C189.886 283.453 189.633 283.204 189.325 283.028C189.017 282.845 188.676 282.753 188.302 282.753C187.928 282.753 187.587 282.845 187.279 283.028C186.971 283.204 186.718 283.453 186.52 283.776C186.329 284.091 186.219 284.454 186.19 284.865ZM191.821 286.35C191.821 285.998 191.924 285.694 192.129 285.437C192.334 285.173 192.617 284.968 192.976 284.821C193.343 284.674 193.764 284.601 194.241 284.601C194.52 284.601 194.809 284.627 195.11 284.678C195.411 284.722 195.678 284.784 195.913 284.865V284.381C195.913 283.897 195.77 283.512 195.484 283.226C195.198 282.94 194.802 282.797 194.296 282.797C193.995 282.797 193.695 282.856 193.394 282.973C193.093 283.083 192.782 283.248 192.459 283.468L192.173 282.94C192.547 282.683 192.914 282.493 193.273 282.368C193.632 282.236 193.999 282.17 194.373 282.17C195.077 282.17 195.634 282.372 196.045 282.775C196.456 283.178 196.661 283.736 196.661 284.447V287.098C196.661 287.296 196.753 287.399 196.936 287.406V288C196.775 288.022 196.661 288.029 196.595 288.022C196.412 288.015 196.272 287.956 196.177 287.846C196.082 287.736 196.03 287.619 196.023 287.494L196.012 287.076C195.755 287.406 195.422 287.663 195.011 287.846C194.6 288.022 194.182 288.11 193.757 288.11C193.383 288.11 193.049 288.033 192.756 287.879C192.463 287.718 192.232 287.505 192.063 287.241C191.902 286.97 191.821 286.673 191.821 286.35ZM195.66 286.79C195.829 286.592 195.913 286.409 195.913 286.24V285.404C195.407 285.206 194.879 285.107 194.329 285.107C193.794 285.107 193.361 285.213 193.031 285.426C192.701 285.639 192.536 285.928 192.536 286.295C192.536 286.61 192.657 286.896 192.899 287.153C193.148 287.41 193.493 287.538 193.933 287.538C194.292 287.538 194.626 287.468 194.934 287.329C195.249 287.19 195.491 287.01 195.66 286.79ZM200.984 287.725C200.896 287.762 200.735 287.828 200.5 287.923C200.266 288.018 199.994 288.066 199.686 288.066C199.364 288.066 199.081 287.974 198.839 287.791C198.597 287.608 198.476 287.333 198.476 286.966V282.863H197.684V282.269H198.476V280.333H199.224V282.269H200.544V282.863H199.224V286.757C199.239 286.97 199.312 287.127 199.444 287.23C199.584 287.325 199.741 287.373 199.917 287.373C200.123 287.373 200.306 287.34 200.467 287.274C200.636 287.201 200.742 287.149 200.786 287.12L200.984 287.725ZM204.264 288.11C203.714 288.11 203.223 287.974 202.79 287.703C202.365 287.432 202.031 287.072 201.789 286.625C201.547 286.17 201.426 285.679 201.426 285.151C201.426 284.616 201.547 284.124 201.789 283.677C202.038 283.222 202.376 282.859 202.801 282.588C203.234 282.309 203.721 282.17 204.264 282.17C204.814 282.17 205.302 282.309 205.727 282.588C206.16 282.859 206.497 283.222 206.739 283.677C206.988 284.124 207.113 284.616 207.113 285.151C207.113 285.679 206.992 286.17 206.75 286.625C206.508 287.072 206.171 287.432 205.738 287.703C205.313 287.974 204.821 288.11 204.264 288.11ZM202.185 285.162C202.185 285.587 202.277 285.976 202.46 286.328C202.651 286.673 202.904 286.948 203.219 287.153C203.534 287.351 203.883 287.45 204.264 287.45C204.645 287.45 204.994 287.347 205.309 287.142C205.624 286.937 205.877 286.658 206.068 286.306C206.259 285.954 206.354 285.565 206.354 285.14C206.354 284.715 206.259 284.326 206.068 283.974C205.877 283.622 205.624 283.343 205.309 283.138C204.994 282.933 204.645 282.83 204.264 282.83C203.89 282.83 203.545 282.936 203.23 283.149C202.915 283.354 202.662 283.633 202.471 283.985C202.28 284.337 202.185 284.729 202.185 285.162ZM211.224 282.929C210.725 282.944 210.285 283.083 209.904 283.347C209.53 283.611 209.266 283.974 209.112 284.436V288H208.364V282.269H209.068V283.644C209.266 283.241 209.526 282.914 209.849 282.665C210.179 282.416 210.527 282.276 210.894 282.247C210.967 282.24 211.03 282.236 211.081 282.236C211.132 282.236 211.18 282.24 211.224 282.247V282.929ZM215.206 284.722C215.016 284.722 214.851 284.652 214.711 284.513C214.572 284.374 214.502 284.209 214.502 284.018C214.502 283.827 214.572 283.662 214.711 283.523C214.851 283.384 215.016 283.314 215.206 283.314C215.397 283.314 215.562 283.384 215.701 283.523C215.841 283.662 215.91 283.827 215.91 284.018C215.91 284.209 215.841 284.374 215.701 284.513C215.562 284.652 215.397 284.722 215.206 284.722ZM225.481 280.872H222.698V288H221.928V280.872H219.145V280.19H225.481V280.872ZM225.518 285.635V282.269H226.266V285.503C226.266 286.801 226.71 287.45 227.597 287.45C228.037 287.45 228.448 287.307 228.829 287.021C229.218 286.735 229.496 286.354 229.665 285.877V282.269H230.413V287.098C230.413 287.296 230.501 287.399 230.677 287.406V288C230.589 288.015 230.519 288.022 230.468 288.022C230.424 288.022 230.376 288.022 230.325 288.022C230.171 288.007 230.039 287.949 229.929 287.846C229.826 287.743 229.775 287.619 229.775 287.472L229.753 286.702C229.504 287.149 229.163 287.498 228.73 287.747C228.305 287.989 227.843 288.11 227.344 288.11C226.127 288.11 225.518 287.285 225.518 285.635ZM234.854 287.725C234.766 287.762 234.605 287.828 234.37 287.923C234.136 288.018 233.864 288.066 233.556 288.066C233.234 288.066 232.951 287.974 232.709 287.791C232.467 287.608 232.346 287.333 232.346 286.966V282.863H231.554V282.269H232.346V280.333H233.094V282.269H234.414V282.863H233.094V286.757C233.109 286.97 233.182 287.127 233.314 287.23C233.454 287.325 233.611 287.373 233.787 287.373C233.993 287.373 234.176 287.34 234.337 287.274C234.506 287.201 234.612 287.149 234.656 287.12L234.854 287.725ZM238.134 288.11C237.584 288.11 237.093 287.974 236.66 287.703C236.235 287.432 235.901 287.072 235.659 286.625C235.417 286.17 235.296 285.679 235.296 285.151C235.296 284.616 235.417 284.124 235.659 283.677C235.909 283.222 236.246 282.859 236.671 282.588C237.104 282.309 237.592 282.17 238.134 282.17C238.684 282.17 239.172 282.309 239.597 282.588C240.03 282.859 240.367 283.222 240.609 283.677C240.859 284.124 240.983 284.616 240.983 285.151C240.983 285.679 240.862 286.17 240.62 286.625C240.378 287.072 240.041 287.432 239.608 287.703C239.183 287.974 238.692 288.11 238.134 288.11ZM236.055 285.162C236.055 285.587 236.147 285.976 236.33 286.328C236.521 286.673 236.774 286.948 237.089 287.153C237.405 287.351 237.753 287.45 238.134 287.45C238.516 287.45 238.864 287.347 239.179 287.142C239.495 286.937 239.748 286.658 239.938 286.306C240.129 285.954 240.224 285.565 240.224 285.14C240.224 284.715 240.129 284.326 239.938 283.974C239.748 283.622 239.495 283.343 239.179 283.138C238.864 282.933 238.516 282.83 238.134 282.83C237.76 282.83 237.416 282.936 237.1 283.149C236.785 283.354 236.532 283.633 236.341 283.985C236.151 284.337 236.055 284.729 236.055 285.162ZM245.094 282.929C244.596 282.944 244.156 283.083 243.774 283.347C243.4 283.611 243.136 283.974 242.982 284.436V288H242.234V282.269H242.938V283.644C243.136 283.241 243.397 282.914 243.719 282.665C244.049 282.416 244.398 282.276 244.764 282.247C244.838 282.24 244.9 282.236 244.951 282.236C245.003 282.236 245.05 282.24 245.094 282.247V282.929ZM249.077 284.722C248.886 284.722 248.721 284.652 248.582 284.513C248.442 284.374 248.373 284.209 248.373 284.018C248.373 283.827 248.442 283.662 248.582 283.523C248.721 283.384 248.886 283.314 249.077 283.314C249.267 283.314 249.432 283.384 249.572 283.523C249.711 283.662 249.781 283.827 249.781 284.018C249.781 284.209 249.711 284.374 249.572 284.513C249.432 284.652 249.267 284.722 249.077 284.722ZM261.048 288V281.642L258.221 286.581H257.737L254.899 281.642V288H254.129V280.19H254.921L257.968 285.536L261.037 280.19H261.818V288H261.048ZM266.011 288.11C265.461 288.11 264.97 287.974 264.537 287.703C264.104 287.432 263.763 287.069 263.514 286.614C263.265 286.159 263.14 285.661 263.14 285.118C263.14 284.583 263.261 284.091 263.503 283.644C263.752 283.197 264.093 282.841 264.526 282.577C264.959 282.306 265.45 282.17 266 282.17C266.565 282.17 267.06 282.306 267.485 282.577C267.91 282.848 268.24 283.208 268.475 283.655C268.717 284.095 268.838 284.579 268.838 285.107C268.838 285.224 268.834 285.323 268.827 285.404H263.921C263.958 285.815 264.075 286.181 264.273 286.504C264.471 286.819 264.724 287.072 265.032 287.263C265.34 287.446 265.677 287.538 266.044 287.538C266.418 287.538 266.77 287.443 267.1 287.252C267.43 287.061 267.665 286.812 267.804 286.504L268.453 286.68C268.336 286.959 268.152 287.208 267.903 287.428C267.661 287.641 267.379 287.809 267.056 287.934C266.733 288.051 266.385 288.11 266.011 288.11ZM263.899 284.865H268.134C268.105 284.454 267.991 284.091 267.793 283.776C267.595 283.453 267.342 283.204 267.034 283.028C266.726 282.845 266.385 282.753 266.011 282.753C265.637 282.753 265.296 282.845 264.988 283.028C264.68 283.204 264.427 283.453 264.229 283.776C264.038 284.091 263.928 284.454 263.899 284.865ZM274.81 288H274.062V284.799C274.062 284.124 273.959 283.633 273.754 283.325C273.556 283.01 273.248 282.852 272.83 282.852C272.537 282.852 272.247 282.925 271.961 283.072C271.675 283.211 271.422 283.406 271.202 283.655C270.989 283.897 270.835 284.176 270.74 284.491V288H269.992V282.269H270.674V283.567C270.901 283.149 271.235 282.812 271.675 282.555C272.115 282.298 272.592 282.17 273.105 282.17C273.53 282.17 273.868 282.273 274.117 282.478C274.366 282.676 274.542 282.962 274.645 283.336C274.755 283.703 274.81 284.139 274.81 284.645V288ZM279.101 287.725C279.013 287.762 278.852 287.828 278.617 287.923C278.383 288.018 278.111 288.066 277.803 288.066C277.481 288.066 277.198 287.974 276.956 287.791C276.714 287.608 276.593 287.333 276.593 286.966V282.863H275.801V282.269H276.593V280.333H277.341V282.269H278.661V282.863H277.341V286.757C277.356 286.97 277.429 287.127 277.561 287.23C277.701 287.325 277.858 287.373 278.034 287.373C278.24 287.373 278.423 287.34 278.584 287.274C278.753 287.201 278.859 287.149 278.903 287.12L279.101 287.725ZM282.381 288.11C281.831 288.11 281.34 287.974 280.907 287.703C280.482 287.432 280.148 287.072 279.906 286.625C279.664 286.17 279.543 285.679 279.543 285.151C279.543 284.616 279.664 284.124 279.906 283.677C280.156 283.222 280.493 282.859 280.918 282.588C281.351 282.309 281.839 282.17 282.381 282.17C282.931 282.17 283.419 282.309 283.844 282.588C284.277 282.859 284.614 283.222 284.856 283.677C285.106 284.124 285.23 284.616 285.23 285.151C285.23 285.679 285.109 286.17 284.867 286.625C284.625 287.072 284.288 287.432 283.855 287.703C283.43 287.974 282.939 288.11 282.381 288.11ZM280.302 285.162C280.302 285.587 280.394 285.976 280.577 286.328C280.768 286.673 281.021 286.948 281.336 287.153C281.652 287.351 282 287.45 282.381 287.45C282.763 287.45 283.111 287.347 283.426 287.142C283.742 286.937 283.995 286.658 284.185 286.306C284.376 285.954 284.471 285.565 284.471 285.14C284.471 284.715 284.376 284.326 284.185 283.974C283.995 283.622 283.742 283.343 283.426 283.138C283.111 282.933 282.763 282.83 282.381 282.83C282.007 282.83 281.663 282.936 281.347 283.149C281.032 283.354 280.779 283.633 280.588 283.985C280.398 284.337 280.302 284.729 280.302 285.162ZM289.341 282.929C288.843 282.944 288.403 283.083 288.021 283.347C287.647 283.611 287.383 283.974 287.229 284.436V288H286.481V282.269H287.185V283.644C287.383 283.241 287.644 282.914 287.966 282.665C288.296 282.416 288.645 282.276 289.011 282.247C289.085 282.24 289.147 282.236 289.198 282.236C289.25 282.236 289.297 282.24 289.341 282.247V282.929Z" fill="white"/>
<path d="M58.0653 130.985V127.182H75.9844V130.985H69.3047V149H64.745V130.985H58.0653ZM77.9009 149V132.636H82.3008V135.491H82.4712C82.7695 134.476 83.2702 133.709 83.9734 133.19C84.6765 132.665 85.4862 132.402 86.4023 132.402C86.6296 132.402 86.8746 132.416 87.1374 132.445C87.4002 132.473 87.631 132.512 87.8299 132.562V136.589C87.6168 136.525 87.3221 136.468 86.9457 136.418C86.5692 136.369 86.2248 136.344 85.9123 136.344C85.2447 136.344 84.6481 136.489 84.1225 136.781C83.604 137.065 83.1921 137.462 82.8867 137.974C82.5884 138.485 82.4393 139.075 82.4393 139.742V149H77.9009ZM90.9263 149V132.636H95.4647V149H90.9263ZM93.2061 130.527C92.5314 130.527 91.9526 130.303 91.4696 129.856C90.9938 129.401 90.7559 128.858 90.7559 128.226C90.7559 127.601 90.9938 127.065 91.4696 126.617C91.9526 126.163 92.5314 125.935 93.2061 125.935C93.8809 125.935 94.4561 126.163 94.932 126.617C95.415 127.065 95.6564 127.601 95.6564 128.226C95.6564 128.858 95.415 129.401 94.932 129.856C94.4561 130.303 93.8809 130.527 93.2061 130.527ZM108.554 132.636V136.045H98.6996V132.636H108.554ZM100.937 128.716H105.475V143.972C105.475 144.391 105.539 144.717 105.667 144.952C105.795 145.179 105.972 145.339 106.2 145.431C106.434 145.523 106.704 145.57 107.009 145.57C107.222 145.57 107.435 145.552 107.648 145.516C107.862 145.474 108.025 145.442 108.138 145.42L108.852 148.798C108.625 148.869 108.305 148.95 107.893 149.043C107.482 149.142 106.981 149.202 106.391 149.224C105.298 149.266 104.339 149.121 103.515 148.787C102.698 148.453 102.063 147.935 101.608 147.232C101.153 146.528 100.93 145.641 100.937 144.568V128.716ZM119.478 149.32C117.823 149.32 116.392 148.968 115.185 148.265C113.984 147.555 113.058 146.567 112.404 145.303C111.751 144.032 111.424 142.558 111.424 140.882C111.424 139.192 111.751 137.714 112.404 136.45C113.058 135.179 113.984 134.192 115.185 133.489C116.392 132.778 117.823 132.423 119.478 132.423C121.133 132.423 122.56 132.778 123.761 133.489C124.968 134.192 125.898 135.179 126.552 136.45C127.205 137.714 127.532 139.192 127.532 140.882C127.532 142.558 127.205 144.032 126.552 145.303C125.898 146.567 124.968 147.555 123.761 148.265C122.56 148.968 121.133 149.32 119.478 149.32ZM119.499 145.804C120.252 145.804 120.881 145.591 121.385 145.165C121.889 144.732 122.269 144.142 122.525 143.396C122.788 142.651 122.919 141.802 122.919 140.85C122.919 139.898 122.788 139.05 122.525 138.304C122.269 137.558 121.889 136.969 121.385 136.536C120.881 136.102 120.252 135.886 119.499 135.886C118.739 135.886 118.1 136.102 117.582 136.536C117.07 136.969 116.683 137.558 116.42 138.304C116.165 139.05 116.037 139.898 116.037 140.85C116.037 141.802 116.165 142.651 116.42 143.396C116.683 144.142 117.07 144.732 117.582 145.165C118.1 145.591 118.739 145.804 119.499 145.804ZM135.771 139.54V149H131.233V132.636H135.558V135.523H135.75C136.112 134.572 136.719 133.819 137.572 133.265C138.424 132.704 139.457 132.423 140.672 132.423C141.808 132.423 142.799 132.672 143.644 133.169C144.489 133.666 145.146 134.376 145.615 135.3C146.084 136.216 146.318 137.31 146.318 138.581V149H141.78V139.391C141.787 138.389 141.531 137.608 141.013 137.047C140.494 136.479 139.781 136.195 138.871 136.195C138.261 136.195 137.721 136.326 137.252 136.589C136.79 136.852 136.428 137.235 136.165 137.739C135.91 138.237 135.778 138.837 135.771 139.54ZM150.73 149V127.182H155.343V136.184H164.708V127.182H169.31V149H164.708V139.987H155.343V149H150.73ZM178.444 149.309C177.4 149.309 176.47 149.128 175.653 148.766C174.836 148.396 174.19 147.853 173.714 147.136C173.245 146.411 173.011 145.509 173.011 144.43C173.011 143.521 173.178 142.757 173.512 142.139C173.845 141.521 174.3 141.024 174.875 140.648C175.45 140.271 176.104 139.987 176.835 139.795C177.574 139.604 178.348 139.469 179.158 139.391C180.11 139.291 180.877 139.199 181.459 139.114C182.041 139.021 182.464 138.886 182.727 138.709C182.99 138.531 183.121 138.268 183.121 137.92V137.857C183.121 137.182 182.908 136.66 182.482 136.29C182.063 135.921 181.466 135.737 180.692 135.737C179.875 135.737 179.225 135.918 178.742 136.28C178.259 136.635 177.94 137.082 177.784 137.622L173.586 137.281C173.799 136.287 174.218 135.428 174.843 134.703C175.468 133.972 176.274 133.411 177.262 133.02C178.256 132.622 179.406 132.423 180.713 132.423C181.622 132.423 182.492 132.53 183.323 132.743C184.161 132.956 184.904 133.286 185.55 133.734C186.203 134.181 186.718 134.756 187.095 135.46C187.471 136.156 187.659 136.99 187.659 137.963V149H183.355V146.731H183.227C182.965 147.242 182.613 147.693 182.173 148.084C181.732 148.467 181.203 148.769 180.585 148.989C179.968 149.202 179.254 149.309 178.444 149.309ZM179.744 146.177C180.411 146.177 181.001 146.045 181.512 145.783C182.024 145.513 182.425 145.151 182.716 144.696C183.007 144.241 183.153 143.727 183.153 143.151V141.415C183.011 141.507 182.816 141.592 182.567 141.67C182.325 141.741 182.052 141.809 181.747 141.873C181.441 141.93 181.136 141.983 180.83 142.033C180.525 142.075 180.248 142.114 179.999 142.15C179.467 142.228 179.002 142.352 178.604 142.523C178.206 142.693 177.897 142.924 177.677 143.215C177.457 143.499 177.347 143.854 177.347 144.281C177.347 144.898 177.57 145.371 178.018 145.697C178.472 146.017 179.048 146.177 179.744 146.177ZM199.324 149.32C197.648 149.32 196.206 148.964 194.998 148.254C193.798 147.537 192.875 146.543 192.229 145.271C191.589 144 191.27 142.537 191.27 140.882C191.27 139.206 191.593 137.736 192.239 136.472C192.893 135.2 193.819 134.21 195.02 133.499C196.22 132.782 197.648 132.423 199.302 132.423C200.73 132.423 201.98 132.683 203.052 133.201C204.125 133.719 204.974 134.447 205.599 135.385C206.224 136.322 206.568 137.423 206.632 138.688H202.349C202.229 137.871 201.909 137.214 201.39 136.717C200.879 136.212 200.208 135.96 199.377 135.96C198.674 135.96 198.059 136.152 197.534 136.536C197.015 136.912 196.611 137.462 196.319 138.187C196.028 138.911 195.883 139.788 195.883 140.818C195.883 141.862 196.025 142.75 196.309 143.482C196.6 144.213 197.008 144.771 197.534 145.154C198.059 145.538 198.674 145.729 199.377 145.729C199.895 145.729 200.361 145.623 200.773 145.41C201.192 145.197 201.536 144.888 201.806 144.483C202.083 144.071 202.264 143.577 202.349 143.002H206.632C206.561 144.252 206.22 145.353 205.609 146.305C205.006 147.249 204.171 147.988 203.106 148.521C202.04 149.053 200.78 149.32 199.324 149.32ZM214.4 144.291L214.411 138.847H215.071L220.312 132.636H225.522L218.48 140.861H217.404L214.4 144.291ZM210.288 149V127.182H214.826V149H210.288ZM220.515 149L215.7 141.873L218.725 138.666L225.831 149H220.515ZM242.114 137.303L237.959 137.558C237.888 137.203 237.735 136.884 237.501 136.599C237.266 136.308 236.957 136.077 236.574 135.907C236.197 135.729 235.746 135.641 235.221 135.641C234.518 135.641 233.925 135.79 233.442 136.088C232.959 136.379 232.717 136.77 232.717 137.26C232.717 137.651 232.874 137.981 233.186 138.251C233.499 138.521 234.035 138.737 234.795 138.901L237.756 139.497C239.347 139.824 240.533 140.349 241.315 141.074C242.096 141.798 242.487 142.75 242.487 143.929C242.487 145.001 242.17 145.942 241.538 146.752C240.913 147.562 240.054 148.194 238.96 148.648C237.874 149.096 236.62 149.32 235.2 149.32C233.033 149.32 231.308 148.869 230.022 147.967C228.744 147.058 227.994 145.822 227.774 144.259L232.238 144.025C232.373 144.685 232.7 145.19 233.218 145.538C233.737 145.879 234.401 146.049 235.21 146.049C236.006 146.049 236.645 145.896 237.128 145.591C237.618 145.278 237.866 144.877 237.874 144.387C237.866 143.975 237.692 143.638 237.352 143.375C237.011 143.105 236.485 142.899 235.775 142.757L232.941 142.192C231.343 141.873 230.153 141.319 229.372 140.531C228.598 139.742 228.211 138.737 228.211 137.516C228.211 136.464 228.495 135.559 229.063 134.799C229.638 134.039 230.445 133.453 231.482 133.041C232.526 132.629 233.747 132.423 235.146 132.423C237.213 132.423 238.839 132.86 240.026 133.734C241.219 134.607 241.915 135.797 242.114 137.303Z" fill="white"/>
<path d="M99.9432 175V173.227L104.085 169.392C104.438 169.051 104.733 168.744 104.972 168.472C105.214 168.199 105.398 167.932 105.523 167.67C105.648 167.405 105.71 167.119 105.71 166.812C105.71 166.472 105.633 166.178 105.477 165.932C105.322 165.682 105.11 165.491 104.841 165.358C104.572 165.222 104.267 165.153 103.926 165.153C103.57 165.153 103.259 165.225 102.994 165.369C102.729 165.513 102.525 165.72 102.381 165.989C102.237 166.258 102.165 166.578 102.165 166.949H99.8295C99.8295 166.187 100.002 165.527 100.347 164.966C100.691 164.405 101.174 163.972 101.795 163.665C102.417 163.358 103.133 163.205 103.943 163.205C104.777 163.205 105.502 163.352 106.119 163.648C106.741 163.939 107.223 164.345 107.568 164.864C107.913 165.383 108.085 165.977 108.085 166.648C108.085 167.087 107.998 167.521 107.824 167.949C107.653 168.377 107.348 168.852 106.909 169.375C106.47 169.894 105.85 170.517 105.051 171.244L103.352 172.909V172.989H108.239V175H99.9432ZM114.984 175.256C114.007 175.252 113.166 175.011 112.461 174.534C111.76 174.057 111.221 173.366 110.842 172.46C110.467 171.555 110.281 170.466 110.285 169.193C110.285 167.924 110.472 166.843 110.847 165.949C111.226 165.055 111.766 164.375 112.467 163.909C113.171 163.439 114.01 163.205 114.984 163.205C115.957 163.205 116.794 163.439 117.495 163.909C118.2 164.379 118.741 165.061 119.12 165.955C119.499 166.845 119.686 167.924 119.683 169.193C119.683 170.47 119.493 171.561 119.114 172.466C118.739 173.371 118.202 174.062 117.501 174.54C116.8 175.017 115.961 175.256 114.984 175.256ZM114.984 173.216C115.65 173.216 116.183 172.881 116.58 172.21C116.978 171.54 117.175 170.534 117.171 169.193C117.171 168.311 117.08 167.576 116.899 166.989C116.721 166.402 116.467 165.96 116.137 165.665C115.811 165.369 115.427 165.222 114.984 165.222C114.321 165.222 113.791 165.553 113.393 166.216C112.995 166.879 112.794 167.871 112.791 169.193C112.791 170.087 112.88 170.833 113.058 171.432C113.239 172.027 113.495 172.473 113.825 172.773C114.154 173.068 114.541 173.216 114.984 173.216ZM121.837 175V173.227L125.979 169.392C126.331 169.051 126.627 168.744 126.865 168.472C127.108 168.199 127.291 167.932 127.416 167.67C127.541 167.405 127.604 167.119 127.604 166.812C127.604 166.472 127.526 166.178 127.371 165.932C127.216 165.682 127.004 165.491 126.735 165.358C126.466 165.222 126.161 165.153 125.82 165.153C125.464 165.153 125.153 165.225 124.888 165.369C124.623 165.513 124.418 165.72 124.274 165.989C124.13 166.258 124.059 166.578 124.059 166.949H121.723C121.723 166.187 121.896 165.527 122.24 164.966C122.585 164.405 123.068 163.972 123.689 163.665C124.31 163.358 125.026 163.205 125.837 163.205C126.67 163.205 127.396 163.352 128.013 163.648C128.634 163.939 129.117 164.345 129.462 164.864C129.807 165.383 129.979 165.977 129.979 166.648C129.979 167.087 129.892 167.521 129.718 167.949C129.547 168.377 129.242 168.852 128.803 169.375C128.363 169.894 127.744 170.517 126.945 171.244L125.246 172.909V172.989H130.132V175H121.837ZM137.378 163.364V175H134.917V165.699H134.849L132.184 167.369V165.188L135.065 163.364H137.378ZM148.237 175.17C147.434 175.17 146.741 175.027 146.158 174.739C145.574 174.451 145.125 174.061 144.811 173.568C144.5 173.072 144.345 172.519 144.345 171.909C144.345 171.455 144.436 171.051 144.618 170.699C144.8 170.347 145.054 170.023 145.379 169.727C145.705 169.428 146.084 169.131 146.516 168.835L148.771 167.352C149.063 167.167 149.277 166.972 149.413 166.767C149.55 166.559 149.618 166.333 149.618 166.091C149.618 165.86 149.525 165.646 149.339 165.449C149.154 165.252 148.891 165.155 148.55 165.159C148.322 165.159 148.125 165.21 147.959 165.312C147.792 165.411 147.661 165.542 147.567 165.705C147.476 165.864 147.43 166.042 147.43 166.239C147.43 166.481 147.499 166.727 147.635 166.977C147.771 167.227 147.953 167.492 148.18 167.773C148.408 168.049 148.656 168.348 148.925 168.67L154.442 175H151.919L147.317 169.875C147.014 169.53 146.711 169.17 146.408 168.795C146.108 168.417 145.858 168.015 145.658 167.591C145.457 167.163 145.357 166.699 145.357 166.199C145.357 165.634 145.487 165.127 145.749 164.676C146.014 164.225 146.385 163.869 146.862 163.608C147.339 163.343 147.896 163.21 148.533 163.21C149.154 163.21 149.69 163.337 150.141 163.591C150.595 163.841 150.944 164.174 151.186 164.591C151.432 165.004 151.555 165.458 151.555 165.955C151.555 166.504 151.419 167.002 151.146 167.449C150.877 167.892 150.499 168.29 150.01 168.642L147.635 170.352C147.313 170.587 147.074 170.828 146.919 171.074C146.768 171.316 146.692 171.549 146.692 171.773C146.692 172.049 146.76 172.297 146.896 172.517C147.033 172.737 147.226 172.911 147.476 173.04C147.726 173.165 148.019 173.227 148.357 173.227C148.766 173.227 149.169 173.134 149.567 172.949C149.968 172.759 150.332 172.492 150.658 172.148C150.987 171.799 151.25 171.386 151.447 170.909C151.644 170.432 151.743 169.903 151.743 169.324H153.749C153.749 170.036 153.671 170.678 153.516 171.25C153.36 171.818 153.144 172.314 152.868 172.739C152.591 173.159 152.275 173.504 151.919 173.773C151.805 173.845 151.696 173.913 151.589 173.977C151.483 174.042 151.374 174.11 151.26 174.182C150.828 174.53 150.345 174.782 149.811 174.938C149.281 175.093 148.756 175.17 148.237 175.17ZM159.931 175V173.227L164.073 169.392C164.425 169.051 164.72 168.744 164.959 168.472C165.202 168.199 165.385 167.932 165.51 167.67C165.635 167.405 165.698 167.119 165.698 166.812C165.698 166.472 165.62 166.178 165.465 165.932C165.309 165.682 165.097 165.491 164.828 165.358C164.559 165.222 164.255 165.153 163.914 165.153C163.558 165.153 163.247 165.225 162.982 165.369C162.717 165.513 162.512 165.72 162.368 165.989C162.224 166.258 162.152 166.578 162.152 166.949H159.817C159.817 166.187 159.989 165.527 160.334 164.966C160.679 164.405 161.162 163.972 161.783 163.665C162.404 163.358 163.12 163.205 163.931 163.205C164.764 163.205 165.489 163.352 166.107 163.648C166.728 163.939 167.211 164.345 167.556 164.864C167.9 165.383 168.073 165.977 168.073 166.648C168.073 167.087 167.986 167.521 167.811 167.949C167.641 168.377 167.336 168.852 166.897 169.375C166.457 169.894 165.838 170.517 165.039 171.244L163.34 172.909V172.989H168.226V175H159.931ZM174.971 175.256C173.994 175.252 173.153 175.011 172.449 174.534C171.748 174.057 171.208 173.366 170.829 172.46C170.454 171.555 170.269 170.466 170.272 169.193C170.272 167.924 170.46 166.843 170.835 165.949C171.214 165.055 171.754 164.375 172.454 163.909C173.159 163.439 173.998 163.205 174.971 163.205C175.945 163.205 176.782 163.439 177.483 163.909C178.187 164.379 178.729 165.061 179.108 165.955C179.486 166.845 179.674 167.924 179.67 169.193C179.67 170.47 179.481 171.561 179.102 172.466C178.727 173.371 178.189 174.062 177.488 174.54C176.788 175.017 175.949 175.256 174.971 175.256ZM174.971 173.216C175.638 173.216 176.17 172.881 176.568 172.21C176.966 171.54 177.163 170.534 177.159 169.193C177.159 168.311 177.068 167.576 176.886 166.989C176.708 166.402 176.454 165.96 176.125 165.665C175.799 165.369 175.414 165.222 174.971 165.222C174.308 165.222 173.778 165.553 173.38 166.216C172.983 166.879 172.782 167.871 172.778 169.193C172.778 170.087 172.867 170.833 173.045 171.432C173.227 172.027 173.483 172.473 173.812 172.773C174.142 173.068 174.528 173.216 174.971 173.216ZM181.824 175V173.227L185.966 169.392C186.319 169.051 186.614 168.744 186.853 168.472C187.095 168.199 187.279 167.932 187.404 167.67C187.529 167.405 187.591 167.119 187.591 166.812C187.591 166.472 187.514 166.178 187.359 165.932C187.203 165.682 186.991 165.491 186.722 165.358C186.453 165.222 186.148 165.153 185.807 165.153C185.451 165.153 185.141 165.225 184.876 165.369C184.61 165.513 184.406 165.72 184.262 165.989C184.118 166.258 184.046 166.578 184.046 166.949H181.711C181.711 166.187 181.883 165.527 182.228 164.966C182.573 164.405 183.055 163.972 183.677 163.665C184.298 163.358 185.014 163.205 185.824 163.205C186.658 163.205 187.383 163.352 188.001 163.648C188.622 163.939 189.105 164.345 189.449 164.864C189.794 165.383 189.966 165.977 189.966 166.648C189.966 167.087 189.879 167.521 189.705 167.949C189.535 168.377 189.23 168.852 188.79 169.375C188.351 169.894 187.732 170.517 186.932 171.244L185.234 172.909V172.989H190.12V175H181.824ZM192.303 175V173.227L196.445 169.392C196.797 169.051 197.092 168.744 197.331 168.472C197.573 168.199 197.757 167.932 197.882 167.67C198.007 167.405 198.07 167.119 198.07 166.812C198.07 166.472 197.992 166.178 197.837 165.932C197.681 165.682 197.469 165.491 197.2 165.358C196.931 165.222 196.626 165.153 196.286 165.153C195.929 165.153 195.619 165.225 195.354 165.369C195.089 165.513 194.884 165.72 194.74 165.989C194.596 166.258 194.524 166.578 194.524 166.949H192.189C192.189 166.187 192.361 165.527 192.706 164.966C193.051 164.405 193.534 163.972 194.155 163.665C194.776 163.358 195.492 163.205 196.303 163.205C197.136 163.205 197.861 163.352 198.479 163.648C199.1 163.939 199.583 164.345 199.928 164.864C200.272 165.383 200.445 165.977 200.445 166.648C200.445 167.087 200.357 167.521 200.183 167.949C200.013 168.377 199.708 168.852 199.268 169.375C198.829 169.894 198.21 170.517 197.411 171.244L195.712 172.909V172.989H200.598V175H192.303Z" fill="white" fill-opacity="0.6"/>
</g>
<defs>
<linearGradient id="paint0_linear_208_65" x1="259.5" y1="11.9848" x2="116.614" y2="221.419" gradientUnits="userSpaceOnUse">
<stop stop-color="#FFE761"/>
<stop offset="0.301727" stop-color="#FF6993"/>
<stop offset="0.577602" stop-color="#9C49C5"/>
<stop offset="1" stop-color="#5F5BF3"/>
</linearGradient>
<linearGradient id="paint1_linear_208_65" x1="16.4567" y1="353.428" x2="27.7998" y2="185.876" gradientUnits="userSpaceOnUse">
<stop stop-color="#039AD4"/>
<stop offset="0.533234" stop-color="#00BAE9"/>
<stop offset="1" stop-color="#67D6F0"/>
</linearGradient>
<clipPath id="clip0_208_65">
<rect width="300" height="300" fill="white"/>
</clipPath>
</defs>
</svg>
