<svg width="300" height="300" viewBox="0 0 300 300" fill="none" xmlns="http://www.w3.org/2000/svg">
<g clip-path="url(#clip0)">
<rect width="300" height="300" fill="#150031"/>
<path fill-rule="evenodd" clip-rule="evenodd" d="M-18.0514 25.624C34.8524 86.1619 160.82 74.1909 241.458 5.33656C322.097 -63.5178 372.086 64.4229 387 137L386.877 124.725C371.813 52.0471 321.878 -75.011 241.458 -6.34409C160.82 62.5103 52.0393 38.8757 -0.864449 -21.6621L-18.0514 -9.85342L-22.5889 -37L-27 -36.6216L-18.0514 16.9147V25.624ZM187.364 63.7351C119.97 94.2052 14.6931 99.5027 -29.5212 72.7129V68.8588L-37 45.1675L-33.3135 45L-29.5212 57.0131L-15.1572 51.7874C29.057 78.5772 119.97 89.0361 187.364 58.5661C254.574 28.179 296.308 84.4059 308.898 116.568L309 122C296.535 89.8825 254.758 33.2651 187.364 63.7351ZM204.661 225.642C136.877 187.653 30.9919 181.049 -13.478 214.449V219.254L-21 248.791L-17.2922 249L-13.478 234.023L0.969017 240.538C45.4388 207.138 136.877 194.098 204.661 232.086C235.901 249.595 261.668 244.04 281.599 229.042C261.33 245.955 234.56 253.183 201.715 234.687C134.216 196.675 28.7739 245.684 -15.5095 279.105V283.913L-23 313.468L-19.3077 313.677L-15.5095 298.69L-1.12307 305.21C43.1604 271.789 134.216 203.123 201.715 241.135C262.994 275.644 303.127 220.611 319.345 180.195C306.882 221.908 271.578 281.193 207.124 251.883C136.611 219.817 36.4818 286.013 -4.76863 323.119L-4.35585 327.91L-9.28128 358L38.2606 356.592L148.088 333.91L335 343.18L332.827 317.961L322.47 171.961C324.211 167.704 325.688 163.602 326.897 159.772L327 153C326.022 156.125 324.864 159.436 323.528 162.866L323.541 162C323.077 163.491 322.571 165.025 322.026 166.594C305.268 206.784 265.261 259.605 204.661 225.642Z" fill="url(#paint0_linear)"/>
<path d="M77.979 287V279.19H80.63C81.4587 279.19 82.148 279.366 82.698 279.718C83.2553 280.063 83.6733 280.532 83.952 281.126C84.2307 281.713 84.37 282.365 84.37 283.084C84.37 283.876 84.216 284.565 83.908 285.152C83.6 285.739 83.1673 286.193 82.61 286.516C82.0527 286.839 81.3927 287 80.63 287H77.979ZM83.6 283.084C83.6 282.461 83.4827 281.907 83.248 281.423C83.0207 280.939 82.6833 280.561 82.236 280.29C81.796 280.011 81.2607 279.872 80.63 279.872H78.749V286.318H80.63C81.2753 286.318 81.818 286.175 82.258 285.889C82.698 285.603 83.0317 285.218 83.259 284.734C83.4863 284.25 83.6 283.7 83.6 283.084ZM88.1633 287.11C87.6133 287.11 87.1219 286.974 86.6893 286.703C86.2566 286.432 85.9156 286.069 85.6663 285.614C85.4169 285.159 85.2923 284.661 85.2923 284.118C85.2923 283.583 85.4133 283.091 85.6553 282.644C85.9046 282.197 86.2456 281.841 86.6783 281.577C87.1109 281.306 87.6023 281.17 88.1523 281.17C88.7169 281.17 89.2119 281.306 89.6373 281.577C90.0626 281.848 90.3926 282.208 90.6273 282.655C90.8693 283.095 90.9903 283.579 90.9903 284.107C90.9903 284.224 90.9866 284.323 90.9793 284.404H86.0733C86.1099 284.815 86.2273 285.181 86.4253 285.504C86.6233 285.819 86.8763 286.072 87.1843 286.263C87.4923 286.446 87.8296 286.538 88.1963 286.538C88.5703 286.538 88.9223 286.443 89.2523 286.252C89.5823 286.061 89.8169 285.812 89.9563 285.504L90.6053 285.68C90.4879 285.959 90.3046 286.208 90.0553 286.428C89.8133 286.641 89.5309 286.809 89.2083 286.934C88.8856 287.051 88.5373 287.11 88.1633 287.11ZM86.0513 283.865H90.2863C90.2569 283.454 90.1433 283.091 89.9453 282.776C89.7473 282.453 89.4943 282.204 89.1863 282.028C88.8783 281.845 88.5373 281.753 88.1633 281.753C87.7893 281.753 87.4483 281.845 87.1403 282.028C86.8323 282.204 86.5793 282.453 86.3813 282.776C86.1906 283.091 86.0806 283.454 86.0513 283.865ZM94.0253 287.11C93.556 287.11 93.1197 287.033 92.7163 286.879C92.3203 286.718 91.972 286.483 91.6713 286.175L91.9793 285.647C92.302 285.948 92.6247 286.168 92.9473 286.307C93.2773 286.439 93.6257 286.505 93.9923 286.505C94.4323 286.505 94.7917 286.417 95.0703 286.241C95.3563 286.058 95.4993 285.797 95.4993 285.46C95.4993 285.233 95.4297 285.06 95.2903 284.943C95.1583 284.818 94.964 284.719 94.7073 284.646C94.458 284.573 94.1573 284.488 93.8053 284.393C93.4093 284.283 93.0757 284.169 92.8043 284.052C92.5403 283.927 92.3387 283.773 92.1993 283.59C92.0673 283.399 92.0013 283.154 92.0013 282.853C92.0013 282.486 92.093 282.178 92.2763 281.929C92.467 281.68 92.7237 281.493 93.0463 281.368C93.3763 281.236 93.743 281.17 94.1463 281.17C94.5863 281.17 94.975 281.24 95.3123 281.379C95.6497 281.518 95.9247 281.713 96.1373 281.962L95.7743 282.468C95.5763 282.233 95.3307 282.061 95.0373 281.951C94.7513 281.834 94.4397 281.775 94.1023 281.775C93.8677 281.775 93.644 281.808 93.4313 281.874C93.2187 281.933 93.0427 282.035 92.9033 282.182C92.7713 282.321 92.7053 282.516 92.7053 282.765C92.7053 283.073 92.819 283.286 93.0463 283.403C93.2737 283.52 93.6183 283.645 94.0803 283.777C94.513 283.894 94.8907 284.012 95.2133 284.129C95.536 284.246 95.7853 284.404 95.9613 284.602C96.1373 284.793 96.2253 285.06 96.2253 285.405C96.2253 285.94 96.0237 286.358 95.6203 286.659C95.217 286.96 94.6853 287.11 94.0253 287.11ZM97.4617 280.07V278.97H98.2097V280.07H97.4617ZM97.4617 287V281.269H98.2097V287H97.4617ZM102.156 287.077C101.76 287.077 101.397 286.996 101.067 286.835C100.745 286.674 100.462 286.457 100.22 286.186C99.9856 285.907 99.8022 285.592 99.6702 285.24C99.5382 284.888 99.4722 284.525 99.4722 284.151C99.4722 283.616 99.5859 283.124 99.8132 282.677C100.041 282.222 100.352 281.859 100.748 281.588C101.152 281.309 101.614 281.17 102.134 281.17C102.626 281.17 103.051 281.295 103.41 281.544C103.777 281.793 104.085 282.101 104.334 282.468V281.269H105.005V287.022C105.005 287.557 104.877 288.005 104.62 288.364C104.364 288.723 104.023 288.995 103.597 289.178C103.172 289.361 102.706 289.453 102.2 289.453C101.54 289.453 101.009 289.336 100.605 289.101C100.209 288.866 99.8829 288.551 99.6262 288.155L100.088 287.792C100.316 288.151 100.616 288.419 100.99 288.595C101.372 288.771 101.775 288.859 102.2 288.859C102.574 288.859 102.915 288.789 103.223 288.65C103.539 288.518 103.788 288.316 103.971 288.045C104.162 287.774 104.257 287.433 104.257 287.022V285.889C104.037 286.248 103.737 286.538 103.355 286.758C102.974 286.971 102.574 287.077 102.156 287.077ZM102.365 286.45C102.666 286.45 102.952 286.38 103.223 286.241C103.495 286.102 103.722 285.926 103.905 285.713C104.096 285.493 104.213 285.266 104.257 285.031V283.26C104.147 282.981 103.99 282.736 103.784 282.523C103.579 282.303 103.344 282.134 103.08 282.017C102.816 281.892 102.549 281.83 102.277 281.83C101.852 281.83 101.485 281.947 101.177 282.182C100.877 282.409 100.642 282.703 100.473 283.062C100.312 283.414 100.231 283.781 100.231 284.162C100.231 284.573 100.327 284.954 100.517 285.306C100.708 285.651 100.965 285.929 101.287 286.142C101.61 286.347 101.969 286.45 102.365 286.45ZM111.475 287H110.727V283.799C110.727 283.124 110.624 282.633 110.419 282.325C110.221 282.01 109.913 281.852 109.495 281.852C109.202 281.852 108.912 281.925 108.626 282.072C108.34 282.211 108.087 282.406 107.867 282.655C107.654 282.897 107.5 283.176 107.405 283.491V287H106.657V281.269H107.339V282.567C107.566 282.149 107.9 281.812 108.34 281.555C108.78 281.298 109.257 281.17 109.77 281.17C110.195 281.17 110.533 281.273 110.782 281.478C111.031 281.676 111.207 281.962 111.31 282.336C111.42 282.703 111.475 283.139 111.475 283.645V287ZM115.545 287.11C114.995 287.11 114.504 286.974 114.071 286.703C113.638 286.432 113.297 286.069 113.048 285.614C112.799 285.159 112.674 284.661 112.674 284.118C112.674 283.583 112.795 283.091 113.037 282.644C113.286 282.197 113.627 281.841 114.06 281.577C114.493 281.306 114.984 281.17 115.534 281.17C116.099 281.17 116.594 281.306 117.019 281.577C117.444 281.848 117.774 282.208 118.009 282.655C118.251 283.095 118.372 283.579 118.372 284.107C118.372 284.224 118.368 284.323 118.361 284.404H113.455C113.492 284.815 113.609 285.181 113.807 285.504C114.005 285.819 114.258 286.072 114.566 286.263C114.874 286.446 115.211 286.538 115.578 286.538C115.952 286.538 116.304 286.443 116.634 286.252C116.964 286.061 117.199 285.812 117.338 285.504L117.987 285.68C117.87 285.959 117.686 286.208 117.437 286.428C117.195 286.641 116.913 286.809 116.59 286.934C116.267 287.051 115.919 287.11 115.545 287.11ZM113.433 283.865H117.668C117.639 283.454 117.525 283.091 117.327 282.776C117.129 282.453 116.876 282.204 116.568 282.028C116.26 281.845 115.919 281.753 115.545 281.753C115.171 281.753 114.83 281.845 114.522 282.028C114.214 282.204 113.961 282.453 113.763 282.776C113.572 283.091 113.462 283.454 113.433 283.865ZM122.386 281.929C121.888 281.944 121.448 282.083 121.066 282.347C120.692 282.611 120.428 282.974 120.274 283.436V287H119.526V281.269H120.23V282.644C120.428 282.241 120.689 281.914 121.011 281.665C121.341 281.416 121.69 281.276 122.056 281.247C122.13 281.24 122.192 281.236 122.243 281.236C122.295 281.236 122.342 281.24 122.386 281.247V281.929ZM126.369 283.722C126.178 283.722 126.013 283.652 125.874 283.513C125.734 283.374 125.665 283.209 125.665 283.018C125.665 282.827 125.734 282.662 125.874 282.523C126.013 282.384 126.178 282.314 126.369 282.314C126.559 282.314 126.724 282.384 126.864 282.523C127.003 282.662 127.073 282.827 127.073 283.018C127.073 283.209 127.003 283.374 126.864 283.513C126.724 283.652 126.559 283.722 126.369 283.722ZM130.904 283.04C130.904 282.571 130.985 282.105 131.146 281.643C131.315 281.181 131.557 280.763 131.872 280.389C132.188 280.008 132.576 279.707 133.038 279.487C133.5 279.26 134.025 279.146 134.611 279.146C135.301 279.146 135.895 279.307 136.393 279.63C136.892 279.945 137.259 280.352 137.493 280.851L136.888 281.225C136.72 280.88 136.507 280.609 136.25 280.411C135.994 280.206 135.719 280.059 135.425 279.971C135.139 279.883 134.853 279.839 134.567 279.839C134.098 279.839 133.684 279.934 133.324 280.125C132.965 280.308 132.661 280.558 132.411 280.873C132.169 281.188 131.986 281.537 131.861 281.918C131.737 282.299 131.674 282.688 131.674 283.084C131.674 283.517 131.748 283.931 131.894 284.327C132.041 284.716 132.246 285.064 132.51 285.372C132.774 285.68 133.082 285.926 133.434 286.109C133.794 286.285 134.182 286.373 134.6 286.373C134.894 286.373 135.194 286.322 135.502 286.219C135.81 286.116 136.096 285.959 136.36 285.746C136.624 285.533 136.841 285.258 137.009 284.921L137.647 285.251C137.479 285.64 137.226 285.97 136.888 286.241C136.558 286.512 136.184 286.718 135.766 286.857C135.356 286.996 134.952 287.066 134.556 287.066C134.021 287.066 133.53 286.952 133.082 286.725C132.635 286.49 132.246 286.182 131.916 285.801C131.594 285.412 131.344 284.98 131.168 284.503C130.992 284.019 130.904 283.531 130.904 283.04ZM141.25 287.11C140.7 287.11 140.209 286.974 139.776 286.703C139.351 286.432 139.017 286.072 138.775 285.625C138.533 285.17 138.412 284.679 138.412 284.151C138.412 283.616 138.533 283.124 138.775 282.677C139.025 282.222 139.362 281.859 139.787 281.588C140.22 281.309 140.708 281.17 141.25 281.17C141.8 281.17 142.288 281.309 142.713 281.588C143.146 281.859 143.483 282.222 143.725 282.677C143.975 283.124 144.099 283.616 144.099 284.151C144.099 284.679 143.978 285.17 143.736 285.625C143.494 286.072 143.157 286.432 142.724 286.703C142.299 286.974 141.808 287.11 141.25 287.11ZM139.171 284.162C139.171 284.587 139.263 284.976 139.446 285.328C139.637 285.673 139.89 285.948 140.205 286.153C140.521 286.351 140.869 286.45 141.25 286.45C141.632 286.45 141.98 286.347 142.295 286.142C142.611 285.937 142.864 285.658 143.054 285.306C143.245 284.954 143.34 284.565 143.34 284.14C143.34 283.715 143.245 283.326 143.054 282.974C142.864 282.622 142.611 282.343 142.295 282.138C141.98 281.933 141.632 281.83 141.25 281.83C140.876 281.83 140.532 281.936 140.216 282.149C139.901 282.354 139.648 282.633 139.457 282.985C139.267 283.337 139.171 283.729 139.171 284.162ZM150.168 287H149.42V283.799C149.42 283.124 149.318 282.633 149.112 282.325C148.914 282.01 148.606 281.852 148.188 281.852C147.895 281.852 147.605 281.925 147.319 282.072C147.033 282.211 146.78 282.406 146.56 282.655C146.348 282.897 146.194 283.176 146.098 283.491V287H145.35V281.269H146.032V282.567C146.26 282.149 146.593 281.812 147.033 281.555C147.473 281.298 147.95 281.17 148.463 281.17C148.889 281.17 149.226 281.273 149.475 281.478C149.725 281.676 149.901 281.962 150.003 282.336C150.113 282.703 150.168 283.139 150.168 283.645V287ZM154.46 286.725C154.372 286.762 154.21 286.828 153.976 286.923C153.741 287.018 153.47 287.066 153.162 287.066C152.839 287.066 152.557 286.974 152.315 286.791C152.073 286.608 151.952 286.333 151.952 285.966V281.863H151.16V281.269H151.952V279.333H152.7V281.269H154.02V281.863H152.7V285.757C152.714 285.97 152.788 286.127 152.92 286.23C153.059 286.325 153.217 286.373 153.393 286.373C153.598 286.373 153.781 286.34 153.943 286.274C154.111 286.201 154.218 286.149 154.262 286.12L154.46 286.725ZM157.773 287.11C157.223 287.11 156.731 286.974 156.299 286.703C155.866 286.432 155.525 286.069 155.276 285.614C155.026 285.159 154.902 284.661 154.902 284.118C154.902 283.583 155.023 283.091 155.265 282.644C155.514 282.197 155.855 281.841 156.288 281.577C156.72 281.306 157.212 281.17 157.762 281.17C158.326 281.17 158.821 281.306 159.247 281.577C159.672 281.848 160.002 282.208 160.237 282.655C160.479 283.095 160.6 283.579 160.6 284.107C160.6 284.224 160.596 284.323 160.589 284.404H155.683C155.719 284.815 155.837 285.181 156.035 285.504C156.233 285.819 156.486 286.072 156.794 286.263C157.102 286.446 157.439 286.538 157.806 286.538C158.18 286.538 158.532 286.443 158.862 286.252C159.192 286.061 159.426 285.812 159.566 285.504L160.215 285.68C160.097 285.959 159.914 286.208 159.665 286.428C159.423 286.641 159.14 286.809 158.818 286.934C158.495 287.051 158.147 287.11 157.773 287.11ZM155.661 283.865H159.896C159.866 283.454 159.753 283.091 159.555 282.776C159.357 282.453 159.104 282.204 158.796 282.028C158.488 281.845 158.147 281.753 157.773 281.753C157.399 281.753 157.058 281.845 156.75 282.028C156.442 282.204 156.189 282.453 155.991 282.776C155.8 283.091 155.69 283.454 155.661 283.865ZM166.572 287H165.824V283.799C165.824 283.124 165.721 282.633 165.516 282.325C165.318 282.01 165.01 281.852 164.592 281.852C164.298 281.852 164.009 281.925 163.723 282.072C163.437 282.211 163.184 282.406 162.964 282.655C162.751 282.897 162.597 283.176 162.502 283.491V287H161.754V281.269H162.436V282.567C162.663 282.149 162.997 281.812 163.437 281.555C163.877 281.298 164.353 281.17 164.867 281.17C165.292 281.17 165.629 281.273 165.879 281.478C166.128 281.676 166.304 281.962 166.407 282.336C166.517 282.703 166.572 283.139 166.572 283.645V287ZM170.863 286.725C170.775 286.762 170.614 286.828 170.379 286.923C170.144 287.018 169.873 287.066 169.565 287.066C169.242 287.066 168.96 286.974 168.718 286.791C168.476 286.608 168.355 286.333 168.355 285.966V281.863H167.563V281.269H168.355V279.333H169.103V281.269H170.423V281.863H169.103V285.757C169.118 285.97 169.191 286.127 169.323 286.23C169.462 286.325 169.62 286.373 169.796 286.373C170.001 286.373 170.185 286.34 170.346 286.274C170.515 286.201 170.621 286.149 170.665 286.12L170.863 286.725ZM174.238 283.04C174.238 282.571 174.319 282.105 174.48 281.643C174.649 281.181 174.891 280.763 175.206 280.389C175.522 280.008 175.91 279.707 176.372 279.487C176.834 279.26 177.359 279.146 177.945 279.146C178.635 279.146 179.229 279.307 179.727 279.63C180.226 279.945 180.593 280.352 180.827 280.851L180.222 281.225C180.054 280.88 179.841 280.609 179.584 280.411C179.328 280.206 179.053 280.059 178.759 279.971C178.473 279.883 178.187 279.839 177.901 279.839C177.432 279.839 177.018 279.934 176.658 280.125C176.299 280.308 175.995 280.558 175.745 280.873C175.503 281.188 175.32 281.537 175.195 281.918C175.071 282.299 175.008 282.688 175.008 283.084C175.008 283.517 175.082 283.931 175.228 284.327C175.375 284.716 175.58 285.064 175.844 285.372C176.108 285.68 176.416 285.926 176.768 286.109C177.128 286.285 177.516 286.373 177.934 286.373C178.228 286.373 178.528 286.322 178.836 286.219C179.144 286.116 179.43 285.959 179.694 285.746C179.958 285.533 180.175 285.258 180.343 284.921L180.981 285.251C180.813 285.64 180.56 285.97 180.222 286.241C179.892 286.512 179.518 286.718 179.1 286.857C178.69 286.996 178.286 287.066 177.89 287.066C177.355 287.066 176.864 286.952 176.416 286.725C175.969 286.49 175.58 286.182 175.25 285.801C174.928 285.412 174.678 284.98 174.502 284.503C174.326 284.019 174.238 283.531 174.238 283.04ZM185.002 281.929C184.504 281.944 184.064 282.083 183.682 282.347C183.308 282.611 183.044 282.974 182.89 283.436V287H182.142V281.269H182.846V282.644C183.044 282.241 183.305 281.914 183.627 281.665C183.957 281.416 184.306 281.276 184.672 281.247C184.746 281.24 184.808 281.236 184.859 281.236C184.911 281.236 184.958 281.24 185.002 281.247V281.929ZM188.302 287.11C187.752 287.11 187.261 286.974 186.828 286.703C186.395 286.432 186.054 286.069 185.805 285.614C185.556 285.159 185.431 284.661 185.431 284.118C185.431 283.583 185.552 283.091 185.794 282.644C186.043 282.197 186.384 281.841 186.817 281.577C187.25 281.306 187.741 281.17 188.291 281.17C188.856 281.17 189.351 281.306 189.776 281.577C190.201 281.848 190.531 282.208 190.766 282.655C191.008 283.095 191.129 283.579 191.129 284.107C191.129 284.224 191.125 284.323 191.118 284.404H186.212C186.249 284.815 186.366 285.181 186.564 285.504C186.762 285.819 187.015 286.072 187.323 286.263C187.631 286.446 187.968 286.538 188.335 286.538C188.709 286.538 189.061 286.443 189.391 286.252C189.721 286.061 189.956 285.812 190.095 285.504L190.744 285.68C190.627 285.959 190.443 286.208 190.194 286.428C189.952 286.641 189.67 286.809 189.347 286.934C189.024 287.051 188.676 287.11 188.302 287.11ZM186.19 283.865H190.425C190.396 283.454 190.282 283.091 190.084 282.776C189.886 282.453 189.633 282.204 189.325 282.028C189.017 281.845 188.676 281.753 188.302 281.753C187.928 281.753 187.587 281.845 187.279 282.028C186.971 282.204 186.718 282.453 186.52 282.776C186.329 283.091 186.219 283.454 186.19 283.865ZM191.821 285.35C191.821 284.998 191.924 284.694 192.129 284.437C192.334 284.173 192.617 283.968 192.976 283.821C193.343 283.674 193.764 283.601 194.241 283.601C194.52 283.601 194.809 283.627 195.11 283.678C195.411 283.722 195.678 283.784 195.913 283.865V283.381C195.913 282.897 195.77 282.512 195.484 282.226C195.198 281.94 194.802 281.797 194.296 281.797C193.995 281.797 193.695 281.856 193.394 281.973C193.093 282.083 192.782 282.248 192.459 282.468L192.173 281.94C192.547 281.683 192.914 281.493 193.273 281.368C193.632 281.236 193.999 281.17 194.373 281.17C195.077 281.17 195.634 281.372 196.045 281.775C196.456 282.178 196.661 282.736 196.661 283.447V286.098C196.661 286.296 196.753 286.399 196.936 286.406V287C196.775 287.022 196.661 287.029 196.595 287.022C196.412 287.015 196.272 286.956 196.177 286.846C196.082 286.736 196.03 286.619 196.023 286.494L196.012 286.076C195.755 286.406 195.422 286.663 195.011 286.846C194.6 287.022 194.182 287.11 193.757 287.11C193.383 287.11 193.049 287.033 192.756 286.879C192.463 286.718 192.232 286.505 192.063 286.241C191.902 285.97 191.821 285.673 191.821 285.35ZM195.66 285.79C195.829 285.592 195.913 285.409 195.913 285.24V284.404C195.407 284.206 194.879 284.107 194.329 284.107C193.794 284.107 193.361 284.213 193.031 284.426C192.701 284.639 192.536 284.928 192.536 285.295C192.536 285.61 192.657 285.896 192.899 286.153C193.148 286.41 193.493 286.538 193.933 286.538C194.292 286.538 194.626 286.468 194.934 286.329C195.249 286.19 195.491 286.01 195.66 285.79ZM200.984 286.725C200.896 286.762 200.735 286.828 200.5 286.923C200.266 287.018 199.994 287.066 199.686 287.066C199.364 287.066 199.081 286.974 198.839 286.791C198.597 286.608 198.476 286.333 198.476 285.966V281.863H197.684V281.269H198.476V279.333H199.224V281.269H200.544V281.863H199.224V285.757C199.239 285.97 199.312 286.127 199.444 286.23C199.584 286.325 199.741 286.373 199.917 286.373C200.123 286.373 200.306 286.34 200.467 286.274C200.636 286.201 200.742 286.149 200.786 286.12L200.984 286.725ZM204.264 287.11C203.714 287.11 203.223 286.974 202.79 286.703C202.365 286.432 202.031 286.072 201.789 285.625C201.547 285.17 201.426 284.679 201.426 284.151C201.426 283.616 201.547 283.124 201.789 282.677C202.038 282.222 202.376 281.859 202.801 281.588C203.234 281.309 203.721 281.17 204.264 281.17C204.814 281.17 205.302 281.309 205.727 281.588C206.16 281.859 206.497 282.222 206.739 282.677C206.988 283.124 207.113 283.616 207.113 284.151C207.113 284.679 206.992 285.17 206.75 285.625C206.508 286.072 206.171 286.432 205.738 286.703C205.313 286.974 204.821 287.11 204.264 287.11ZM202.185 284.162C202.185 284.587 202.277 284.976 202.46 285.328C202.651 285.673 202.904 285.948 203.219 286.153C203.534 286.351 203.883 286.45 204.264 286.45C204.645 286.45 204.994 286.347 205.309 286.142C205.624 285.937 205.877 285.658 206.068 285.306C206.259 284.954 206.354 284.565 206.354 284.14C206.354 283.715 206.259 283.326 206.068 282.974C205.877 282.622 205.624 282.343 205.309 282.138C204.994 281.933 204.645 281.83 204.264 281.83C203.89 281.83 203.545 281.936 203.23 282.149C202.915 282.354 202.662 282.633 202.471 282.985C202.28 283.337 202.185 283.729 202.185 284.162ZM211.224 281.929C210.725 281.944 210.285 282.083 209.904 282.347C209.53 282.611 209.266 282.974 209.112 283.436V287H208.364V281.269H209.068V282.644C209.266 282.241 209.526 281.914 209.849 281.665C210.179 281.416 210.527 281.276 210.894 281.247C210.967 281.24 211.03 281.236 211.081 281.236C211.132 281.236 211.18 281.24 211.224 281.247V281.929ZM215.206 283.722C215.016 283.722 214.851 283.652 214.711 283.513C214.572 283.374 214.502 283.209 214.502 283.018C214.502 282.827 214.572 282.662 214.711 282.523C214.851 282.384 215.016 282.314 215.206 282.314C215.397 282.314 215.562 282.384 215.701 282.523C215.841 282.662 215.91 282.827 215.91 283.018C215.91 283.209 215.841 283.374 215.701 283.513C215.562 283.652 215.397 283.722 215.206 283.722ZM225.481 279.872H222.698V287H221.928V279.872H219.145V279.19H225.481V279.872ZM225.518 284.635V281.269H226.266V284.503C226.266 285.801 226.71 286.45 227.597 286.45C228.037 286.45 228.448 286.307 228.829 286.021C229.218 285.735 229.496 285.354 229.665 284.877V281.269H230.413V286.098C230.413 286.296 230.501 286.399 230.677 286.406V287C230.589 287.015 230.519 287.022 230.468 287.022C230.424 287.022 230.376 287.022 230.325 287.022C230.171 287.007 230.039 286.949 229.929 286.846C229.826 286.743 229.775 286.619 229.775 286.472L229.753 285.702C229.504 286.149 229.163 286.498 228.73 286.747C228.305 286.989 227.843 287.11 227.344 287.11C226.127 287.11 225.518 286.285 225.518 284.635ZM234.854 286.725C234.766 286.762 234.605 286.828 234.37 286.923C234.136 287.018 233.864 287.066 233.556 287.066C233.234 287.066 232.951 286.974 232.709 286.791C232.467 286.608 232.346 286.333 232.346 285.966V281.863H231.554V281.269H232.346V279.333H233.094V281.269H234.414V281.863H233.094V285.757C233.109 285.97 233.182 286.127 233.314 286.23C233.454 286.325 233.611 286.373 233.787 286.373C233.993 286.373 234.176 286.34 234.337 286.274C234.506 286.201 234.612 286.149 234.656 286.12L234.854 286.725ZM238.134 287.11C237.584 287.11 237.093 286.974 236.66 286.703C236.235 286.432 235.901 286.072 235.659 285.625C235.417 285.17 235.296 284.679 235.296 284.151C235.296 283.616 235.417 283.124 235.659 282.677C235.909 282.222 236.246 281.859 236.671 281.588C237.104 281.309 237.592 281.17 238.134 281.17C238.684 281.17 239.172 281.309 239.597 281.588C240.03 281.859 240.367 282.222 240.609 282.677C240.859 283.124 240.983 283.616 240.983 284.151C240.983 284.679 240.862 285.17 240.62 285.625C240.378 286.072 240.041 286.432 239.608 286.703C239.183 286.974 238.692 287.11 238.134 287.11ZM236.055 284.162C236.055 284.587 236.147 284.976 236.33 285.328C236.521 285.673 236.774 285.948 237.089 286.153C237.405 286.351 237.753 286.45 238.134 286.45C238.516 286.45 238.864 286.347 239.179 286.142C239.495 285.937 239.748 285.658 239.938 285.306C240.129 284.954 240.224 284.565 240.224 284.14C240.224 283.715 240.129 283.326 239.938 282.974C239.748 282.622 239.495 282.343 239.179 282.138C238.864 281.933 238.516 281.83 238.134 281.83C237.76 281.83 237.416 281.936 237.1 282.149C236.785 282.354 236.532 282.633 236.341 282.985C236.151 283.337 236.055 283.729 236.055 284.162ZM245.094 281.929C244.596 281.944 244.156 282.083 243.774 282.347C243.4 282.611 243.136 282.974 242.982 283.436V287H242.234V281.269H242.938V282.644C243.136 282.241 243.397 281.914 243.719 281.665C244.049 281.416 244.398 281.276 244.764 281.247C244.838 281.24 244.9 281.236 244.951 281.236C245.003 281.236 245.05 281.24 245.094 281.247V281.929ZM249.077 283.722C248.886 283.722 248.721 283.652 248.582 283.513C248.442 283.374 248.373 283.209 248.373 283.018C248.373 282.827 248.442 282.662 248.582 282.523C248.721 282.384 248.886 282.314 249.077 282.314C249.267 282.314 249.432 282.384 249.572 282.523C249.711 282.662 249.781 282.827 249.781 283.018C249.781 283.209 249.711 283.374 249.572 283.513C249.432 283.652 249.267 283.722 249.077 283.722ZM261.048 287V280.642L258.221 285.581H257.737L254.899 280.642V287H254.129V279.19H254.921L257.968 284.536L261.037 279.19H261.818V287H261.048ZM266.011 287.11C265.461 287.11 264.97 286.974 264.537 286.703C264.104 286.432 263.763 286.069 263.514 285.614C263.265 285.159 263.14 284.661 263.14 284.118C263.14 283.583 263.261 283.091 263.503 282.644C263.752 282.197 264.093 281.841 264.526 281.577C264.959 281.306 265.45 281.17 266 281.17C266.565 281.17 267.06 281.306 267.485 281.577C267.91 281.848 268.24 282.208 268.475 282.655C268.717 283.095 268.838 283.579 268.838 284.107C268.838 284.224 268.834 284.323 268.827 284.404H263.921C263.958 284.815 264.075 285.181 264.273 285.504C264.471 285.819 264.724 286.072 265.032 286.263C265.34 286.446 265.677 286.538 266.044 286.538C266.418 286.538 266.77 286.443 267.1 286.252C267.43 286.061 267.665 285.812 267.804 285.504L268.453 285.68C268.336 285.959 268.152 286.208 267.903 286.428C267.661 286.641 267.379 286.809 267.056 286.934C266.733 287.051 266.385 287.11 266.011 287.11ZM263.899 283.865H268.134C268.105 283.454 267.991 283.091 267.793 282.776C267.595 282.453 267.342 282.204 267.034 282.028C266.726 281.845 266.385 281.753 266.011 281.753C265.637 281.753 265.296 281.845 264.988 282.028C264.68 282.204 264.427 282.453 264.229 282.776C264.038 283.091 263.928 283.454 263.899 283.865ZM274.81 287H274.062V283.799C274.062 283.124 273.959 282.633 273.754 282.325C273.556 282.01 273.248 281.852 272.83 281.852C272.537 281.852 272.247 281.925 271.961 282.072C271.675 282.211 271.422 282.406 271.202 282.655C270.989 282.897 270.835 283.176 270.74 283.491V287H269.992V281.269H270.674V282.567C270.901 282.149 271.235 281.812 271.675 281.555C272.115 281.298 272.592 281.17 273.105 281.17C273.53 281.17 273.868 281.273 274.117 281.478C274.366 281.676 274.542 281.962 274.645 282.336C274.755 282.703 274.81 283.139 274.81 283.645V287ZM279.101 286.725C279.013 286.762 278.852 286.828 278.617 286.923C278.383 287.018 278.111 287.066 277.803 287.066C277.481 287.066 277.198 286.974 276.956 286.791C276.714 286.608 276.593 286.333 276.593 285.966V281.863H275.801V281.269H276.593V279.333H277.341V281.269H278.661V281.863H277.341V285.757C277.356 285.97 277.429 286.127 277.561 286.23C277.701 286.325 277.858 286.373 278.034 286.373C278.24 286.373 278.423 286.34 278.584 286.274C278.753 286.201 278.859 286.149 278.903 286.12L279.101 286.725ZM282.381 287.11C281.831 287.11 281.34 286.974 280.907 286.703C280.482 286.432 280.148 286.072 279.906 285.625C279.664 285.17 279.543 284.679 279.543 284.151C279.543 283.616 279.664 283.124 279.906 282.677C280.156 282.222 280.493 281.859 280.918 281.588C281.351 281.309 281.839 281.17 282.381 281.17C282.931 281.17 283.419 281.309 283.844 281.588C284.277 281.859 284.614 282.222 284.856 282.677C285.106 283.124 285.23 283.616 285.23 284.151C285.23 284.679 285.109 285.17 284.867 285.625C284.625 286.072 284.288 286.432 283.855 286.703C283.43 286.974 282.939 287.11 282.381 287.11ZM280.302 284.162C280.302 284.587 280.394 284.976 280.577 285.328C280.768 285.673 281.021 285.948 281.336 286.153C281.652 286.351 282 286.45 282.381 286.45C282.763 286.45 283.111 286.347 283.426 286.142C283.742 285.937 283.995 285.658 284.185 285.306C284.376 284.954 284.471 284.565 284.471 284.14C284.471 283.715 284.376 283.326 284.185 282.974C283.995 282.622 283.742 282.343 283.426 282.138C283.111 281.933 282.763 281.83 282.381 281.83C282.007 281.83 281.663 281.936 281.347 282.149C281.032 282.354 280.779 282.633 280.588 282.985C280.398 283.337 280.302 283.729 280.302 284.162ZM289.341 281.929C288.843 281.944 288.403 282.083 288.021 282.347C287.647 282.611 287.383 282.974 287.229 283.436V287H286.481V281.269H287.185V282.644C287.383 282.241 287.644 281.914 287.966 281.665C288.296 281.416 288.645 281.276 289.011 281.247C289.085 281.24 289.147 281.236 289.198 281.236C289.25 281.236 289.297 281.24 289.341 281.247V281.929Z" fill="white"/>
<path fill-rule="evenodd" clip-rule="evenodd" d="M51.9387 150.293C54.4534 147.756 56 144.305 56 140.502C56 132.712 49.5081 126.397 41.5 126.397C33.4919 126.397 27 132.712 27 140.502C27 144.305 28.5466 147.756 31.0612 150.293H51.9387Z" fill="url(#paint1_linear)"/>
<path fill-rule="evenodd" clip-rule="evenodd" d="M51.9388 150.292C54.4534 147.755 56 144.304 56 140.502C56 132.712 49.5081 126.396 41.5 126.396C33.4919 126.396 27 132.712 27 140.502C27 144.304 28.5466 147.755 31.0612 150.292H51.9388Z" fill="url(#paint2_linear)"/>
<rect width="1.86021" height="7.31485" transform="matrix(-1 0 0 1 42.3667 142.885)" fill="white"/>
<path fill-rule="evenodd" clip-rule="evenodd" d="M41.1787 131.133C41.1816 131.107 41.1851 131.082 41.1892 131.057C41.2025 130.977 41.222 130.903 41.2466 130.842C41.2712 130.78 41.3004 130.731 41.3325 130.698C41.3647 130.665 41.3991 130.647 41.4339 130.647C41.4687 130.647 41.5031 130.665 41.5352 130.698C41.5674 130.731 41.5966 130.78 41.6211 130.842C41.6457 130.903 41.6652 130.977 41.6786 131.057C41.6829 131.084 41.6866 131.111 41.6896 131.138L42.361 142.885H40.5071L41.1787 131.133Z" fill="white"/>
<path fill-rule="evenodd" clip-rule="evenodd" d="M35.3118 134.769C35.3116 134.768 35.3121 134.768 35.3127 134.767V134.767C35.3135 134.767 35.3139 134.767 35.3137 134.766C35.301 134.711 35.2926 134.656 35.2887 134.603C35.2836 134.533 35.2864 134.468 35.297 134.411C35.3076 134.354 35.3257 134.307 35.3503 134.271C35.3749 134.236 35.4055 134.213 35.4404 134.204C35.4752 134.195 35.5137 134.2 35.5535 134.22C35.5934 134.239 35.6339 134.272 35.6726 134.316C35.7114 134.36 35.7477 134.415 35.7794 134.478C35.7815 134.482 35.7836 134.486 35.7856 134.49L38.8046 143.077C38.9767 143.566 38.6957 144.093 38.1934 144.222V144.222C37.6936 144.351 37.1836 144.031 37.0815 143.526L35.3118 134.769Z" fill="white"/>
<path fill-rule="evenodd" clip-rule="evenodd" d="M47.1125 134.505C47.1132 134.503 47.1139 134.502 47.1146 134.5C47.1464 134.438 47.1827 134.383 47.2215 134.338C47.2602 134.294 47.3007 134.261 47.3405 134.242C47.3804 134.223 47.4188 134.218 47.4537 134.226C47.4886 134.235 47.5192 134.258 47.5438 134.294C47.5684 134.329 47.5865 134.377 47.5971 134.434C47.6076 134.491 47.6105 134.556 47.6054 134.625C47.6015 134.678 47.5932 134.732 47.5808 134.786C47.5806 134.788 47.5812 134.789 47.5822 134.789V134.789C47.5832 134.789 47.5838 134.79 47.5836 134.791L45.8138 143.548C45.7117 144.054 45.2016 144.373 44.7019 144.245V144.245C44.1996 144.116 43.9185 143.589 44.0907 143.099L47.1125 134.505Z" fill="white"/>
<rect x="27.1326" y="149.776" width="18.5388" height="0.515266" rx="0.257633" fill="url(#paint3_linear)"/>
<rect x="37.4614" y="151.13" width="18.5388" height="0.51527" rx="0.257635" fill="url(#paint4_linear)"/>
<rect x="34.0188" y="152.547" width="15.0959" height="0.515278" rx="0.257639" fill="url(#paint5_linear)"/>
<rect x="30.9729" y="153.964" width="21.3196" height="0.515278" rx="0.257639" fill="url(#paint6_linear)"/>
<path d="M37.2976 144.233C37.0014 143.805 37.1903 143.213 37.6917 143.075C38.8895 142.746 40.1639 142.579 41.4511 142.585C42.7347 142.591 44.0024 142.769 45.1913 143.108C45.6943 143.251 45.8768 143.85 45.5724 144.275V144.275C45.3628 144.568 44.9835 144.681 44.6392 144.575C43.6282 144.263 42.5402 144.099 41.4375 144.094C40.3348 144.089 39.2437 144.243 38.2271 144.544C37.8815 144.647 37.5029 144.529 37.2976 144.233V144.233Z" fill="white"/>
<path d="M72.78 152V136.16H66.93V132.44H83.07V136.16H77.22V152H72.78ZM86.8383 152V132.44H93.7683C94.8083 132.44 95.7783 132.54 96.6783 132.74C97.5983 132.94 98.3983 133.28 99.0783 133.76C99.7783 134.22 100.328 134.84 100.728 135.62C101.128 136.4 101.328 137.37 101.328 138.53C101.328 139.97 101.008 141.16 100.368 142.1C99.7283 143.02 98.8883 143.71 97.8483 144.17L102.258 152H97.3083L93.5583 144.95H91.2483V152H86.8383ZM91.2483 141.44H93.4083C95.7883 141.44 96.9783 140.47 96.9783 138.53C96.9783 137.57 96.6783 136.9 96.0783 136.52C95.4783 136.14 94.5883 135.95 93.4083 135.95H91.2483V141.44ZM105.697 152V148.28H110.257V136.16H105.697V132.44H119.257V136.16H114.697V148.28H119.257V152H105.697ZM128.995 152V136.16H123.145V132.44H139.285V136.16H133.435V152H128.995ZM149.953 152.36C148.793 152.36 147.723 152.14 146.743 151.7C145.783 151.26 144.953 150.61 144.253 149.75C143.573 148.89 143.043 147.83 142.663 146.57C142.283 145.29 142.093 143.81 142.093 142.13C142.093 140.49 142.283 139.05 142.663 137.81C143.043 136.55 143.573 135.5 144.253 134.66C144.953 133.8 145.783 133.16 146.743 132.74C147.723 132.3 148.793 132.08 149.953 132.08C151.113 132.08 152.173 132.3 153.133 132.74C154.113 133.16 154.943 133.8 155.623 134.66C156.323 135.5 156.863 136.55 157.243 137.81C157.623 139.05 157.813 140.49 157.813 142.13C157.813 143.81 157.623 145.29 157.243 146.57C156.863 147.83 156.323 148.89 155.623 149.75C154.943 150.61 154.113 151.26 153.133 151.7C152.173 152.14 151.113 152.36 149.953 152.36ZM149.953 148.55C150.973 148.55 151.783 148.01 152.383 146.93C152.983 145.85 153.283 144.25 153.283 142.13C153.283 140.09 152.983 138.54 152.383 137.48C151.783 136.42 150.973 135.89 149.953 135.89C148.933 135.89 148.123 136.42 147.523 137.48C146.923 138.54 146.623 140.09 146.623 142.13C146.623 144.25 146.923 145.85 147.523 146.93C148.123 148.01 148.933 148.55 149.953 148.55ZM161.671 152V132.44H166.201L170.311 142.16L171.991 146.48H172.111C172.011 145.44 171.881 144.29 171.721 143.03C171.561 141.75 171.481 140.53 171.481 139.37V132.44H175.711V152H171.181L167.071 142.25L165.391 137.99H165.271C165.371 139.07 165.501 140.23 165.661 141.47C165.821 142.71 165.901 143.91 165.901 145.07V152H161.671ZM180.35 152V132.44H184.76V139.97H190.1V132.44H194.51V152H190.1V143.84H184.76V152H180.35ZM204.488 142.1L204.038 143.9H208.148L207.698 142.1C207.438 141.12 207.168 140.09 206.888 139.01C206.608 137.91 206.358 136.84 206.138 135.8H206.018C205.778 136.84 205.528 137.91 205.268 139.01C205.008 140.09 204.748 141.12 204.488 142.1ZM197.438 152L203.528 132.44H208.808L214.898 152H210.218L209.048 147.35H203.138L201.938 152H197.438ZM226.586 152.36C225.366 152.36 224.206 152.15 223.106 151.73C222.026 151.29 221.066 150.65 220.226 149.81C219.406 148.97 218.746 147.93 218.246 146.69C217.766 145.43 217.526 143.98 217.526 142.34C217.526 140.72 217.766 139.28 218.246 138.02C218.726 136.74 219.386 135.66 220.226 134.78C221.066 133.9 222.056 133.23 223.196 132.77C224.336 132.31 225.556 132.08 226.856 132.08C228.096 132.08 229.216 132.34 230.216 132.86C231.216 133.36 232.046 133.93 232.706 134.57L230.276 137.3C229.816 136.88 229.306 136.54 228.746 136.28C228.206 136.02 227.576 135.89 226.856 135.89C226.156 135.89 225.516 136.04 224.936 136.34C224.356 136.62 223.846 137.03 223.406 137.57C222.986 138.11 222.656 138.77 222.416 139.55C222.176 140.33 222.056 141.21 222.056 142.19C222.056 144.21 222.516 145.78 223.436 146.9C224.356 148 225.556 148.55 227.036 148.55C227.736 148.55 228.376 148.39 228.956 148.07C229.556 147.75 230.096 147.33 230.576 146.81L233.006 149.48C231.386 151.4 229.246 152.36 226.586 152.36ZM236.685 152V132.44H241.155V140.45H241.245L247.035 132.44H251.925L246.045 140.21L252.465 152H247.575L243.405 143.69L241.155 146.66V152H236.685ZM262.323 152.36C261.003 152.36 259.693 152.13 258.393 151.67C257.113 151.19 255.943 150.48 254.883 149.54L257.433 146.51C258.173 147.11 258.983 147.6 259.863 147.98C260.743 148.36 261.663 148.55 262.623 148.55C263.583 148.55 264.283 148.39 264.723 148.07C265.163 147.75 265.383 147.34 265.383 146.84C265.383 146.5 265.313 146.22 265.173 146C265.033 145.76 264.833 145.55 264.573 145.37C264.313 145.19 263.993 145.02 263.613 144.86C263.233 144.7 262.813 144.52 262.353 144.32L259.833 143.24C259.293 143.04 258.763 142.78 258.243 142.46C257.743 142.14 257.303 141.77 256.923 141.35C256.543 140.91 256.233 140.41 255.993 139.85C255.773 139.27 255.663 138.62 255.663 137.9C255.663 137.1 255.833 136.35 256.173 135.65C256.533 134.93 257.023 134.31 257.643 133.79C258.283 133.25 259.043 132.83 259.923 132.53C260.803 132.23 261.773 132.08 262.833 132.08C264.033 132.08 265.193 132.3 266.313 132.74C267.433 133.18 268.443 133.82 269.343 134.66L267.093 137.45C266.413 136.95 265.733 136.57 265.053 136.31C264.373 136.03 263.553 135.89 262.593 135.89C261.853 135.89 261.253 136.04 260.793 136.34C260.353 136.64 260.133 137.08 260.133 137.66C260.133 138.24 260.423 138.69 261.003 139.01C261.603 139.31 262.383 139.63 263.343 139.97L265.713 140.99C267.013 141.47 268.033 142.13 268.773 142.97C269.533 143.81 269.913 144.92 269.913 146.3C269.913 147.12 269.743 147.9 269.403 148.64C269.063 149.36 268.573 150 267.933 150.56C267.293 151.1 266.503 151.54 265.563 151.88C264.623 152.2 263.543 152.36 262.323 152.36Z" fill="white"/>
</g>
<defs>
<linearGradient id="paint0_linear" x1="259.5" y1="51.5" x2="-58" y2="256.5" gradientUnits="userSpaceOnUse">
<stop stop-color="#FFE761"/>
<stop offset="0.301727" stop-color="#FF6993"/>
<stop offset="0.577602" stop-color="#9C49C5"/>
<stop offset="1" stop-color="#5F5BF3"/>
</linearGradient>
<linearGradient id="paint1_linear" x1="41.5" y1="126.397" x2="41.5" y2="150.293" gradientUnits="userSpaceOnUse">
<stop stop-color="#FFEC5F"/>
<stop offset="0.614583" stop-color="#FF5F8F"/>
<stop offset="1" stop-color="#8C44D0"/>
</linearGradient>
<linearGradient id="paint2_linear" x1="41.5" y1="126.396" x2="41.5" y2="154.608" gradientUnits="userSpaceOnUse">
<stop stop-color="#FF6B98" stop-opacity="0"/>
<stop offset="0.5" stop-color="#FF6B98" stop-opacity="0.58"/>
<stop offset="0.734385" stop-color="#FF6B98" stop-opacity="0.37"/>
<stop offset="0.9998" stop-color="#F02262" stop-opacity="0"/>
<stop offset="0.9999" stop-color="#FF6B98" stop-opacity="0.29"/>
</linearGradient>
<linearGradient id="paint3_linear" x1="36.402" y1="149.776" x2="36.402" y2="150.291" gradientUnits="userSpaceOnUse">
<stop stop-color="#AC48BB"/>
<stop offset="1" stop-color="#A646BE"/>
</linearGradient>
<linearGradient id="paint4_linear" x1="46.7308" y1="151.13" x2="46.7308" y2="151.645" gradientUnits="userSpaceOnUse">
<stop stop-color="#A646BE"/>
<stop offset="1" stop-color="#8C4DD0"/>
</linearGradient>
<linearGradient id="paint5_linear" x1="41.5667" y1="152.547" x2="41.5667" y2="153.062" gradientUnits="userSpaceOnUse">
<stop stop-color="#844FD6"/>
<stop offset="1" stop-color="#6E56E7"/>
</linearGradient>
<linearGradient id="paint6_linear" x1="41.6327" y1="153.964" x2="41.6327" y2="154.479" gradientUnits="userSpaceOnUse">
<stop stop-color="#6958EB"/>
<stop offset="1" stop-color="#5160FE"/>
</linearGradient>
<clipPath id="clip0">
<rect width="300" height="300" fill="white"/>
</clipPath>
</defs>
</svg>
