<svg width="300" height="300" viewBox="0 0 300 300" fill="none" xmlns="http://www.w3.org/2000/svg">
<rect width="300" height="300" fill="white"/>
<path d="M101.76 267.24C100.933 267.24 100.173 267.087 99.48 266.78C98.7867 266.473 98.18 266.033 97.66 265.46C97.1533 264.873 96.7533 264.16 96.46 263.32C96.18 262.467 96.04 261.507 96.04 260.44C96.04 259.387 96.1867 258.44 96.48 257.6C96.7733 256.76 97.18 256.047 97.7 255.46C98.22 254.873 98.8333 254.427 99.54 254.12C100.247 253.8 101.02 253.64 101.86 253.64C102.66 253.64 103.36 253.807 103.96 254.14C104.573 254.46 105.073 254.833 105.46 255.26L104.56 256.34C104.213 255.967 103.82 255.667 103.38 255.44C102.94 255.213 102.44 255.1 101.88 255.1C101.253 255.1 100.687 255.227 100.18 255.48C99.6733 255.72 99.24 256.073 98.88 256.54C98.52 256.993 98.24 257.547 98.04 258.2C97.8533 258.853 97.76 259.587 97.76 260.4C97.76 261.227 97.8533 261.973 98.04 262.64C98.24 263.293 98.5133 263.853 98.86 264.32C99.2067 264.787 99.6267 265.147 100.12 265.4C100.627 265.653 101.193 265.78 101.82 265.78C102.46 265.78 103.02 265.653 103.5 265.4C103.98 265.133 104.433 264.767 104.86 264.3L105.78 265.34C105.26 265.94 104.673 266.407 104.02 266.74C103.367 267.073 102.613 267.24 101.76 267.24ZM111.846 267.24C111.246 267.24 110.672 267.127 110.126 266.9C109.592 266.673 109.119 266.347 108.706 265.92C108.292 265.48 107.959 264.947 107.706 264.32C107.466 263.68 107.346 262.96 107.346 262.16C107.346 261.347 107.466 260.627 107.706 260C107.959 259.36 108.292 258.82 108.706 258.38C109.119 257.94 109.592 257.607 110.126 257.38C110.672 257.153 111.246 257.04 111.846 257.04C112.446 257.04 113.012 257.153 113.546 257.38C114.092 257.607 114.572 257.94 114.986 258.38C115.399 258.82 115.726 259.36 115.966 260C116.219 260.627 116.346 261.347 116.346 262.16C116.346 262.96 116.219 263.68 115.966 264.32C115.726 264.947 115.399 265.48 114.986 265.92C114.572 266.347 114.092 266.673 113.546 266.9C113.012 267.127 112.446 267.24 111.846 267.24ZM111.846 265.88C112.259 265.88 112.639 265.793 112.986 265.62C113.332 265.433 113.626 265.18 113.866 264.86C114.119 264.527 114.312 264.133 114.446 263.68C114.579 263.227 114.646 262.72 114.646 262.16C114.646 261.6 114.579 261.093 114.446 260.64C114.312 260.173 114.119 259.773 113.866 259.44C113.626 259.107 113.332 258.853 112.986 258.68C112.639 258.493 112.259 258.4 111.846 258.4C111.432 258.4 111.052 258.493 110.706 258.68C110.359 258.853 110.059 259.107 109.806 259.44C109.566 259.773 109.379 260.173 109.246 260.64C109.112 261.093 109.046 261.6 109.046 262.16C109.046 262.72 109.112 263.227 109.246 263.68C109.379 264.133 109.566 264.527 109.806 264.86C110.059 265.18 110.359 265.433 110.706 265.62C111.052 265.793 111.432 265.88 111.846 265.88ZM118.906 267V257.28H120.266L120.406 258.68H120.466C120.892 258.213 121.352 257.827 121.846 257.52C122.352 257.2 122.899 257.04 123.486 257.04C124.232 257.04 124.812 257.207 125.226 257.54C125.652 257.86 125.966 258.313 126.166 258.9C126.672 258.34 127.179 257.893 127.686 257.56C128.206 257.213 128.766 257.04 129.366 257.04C130.366 257.04 131.106 257.36 131.586 258C132.079 258.64 132.326 259.587 132.326 260.84V267H130.686V261.06C130.686 260.14 130.539 259.48 130.246 259.08C129.952 258.667 129.499 258.46 128.886 258.46C128.152 258.46 127.339 258.96 126.446 259.96V267H124.806V261.06C124.806 260.14 124.659 259.48 124.366 259.08C124.072 258.667 123.612 258.46 122.986 258.46C122.252 258.46 121.439 258.96 120.546 259.96V267H118.906ZM135.488 267V257.28H137.128V267H135.488ZM136.328 255.28C136.008 255.28 135.734 255.18 135.508 254.98C135.294 254.78 135.188 254.527 135.188 254.22C135.188 253.9 135.294 253.647 135.508 253.46C135.734 253.26 136.008 253.16 136.328 253.16C136.648 253.16 136.914 253.26 137.128 253.46C137.354 253.647 137.468 253.9 137.468 254.22C137.468 254.527 137.354 254.78 137.128 254.98C136.914 255.18 136.648 255.28 136.328 255.28ZM140.41 267V257.28H141.77L141.91 258.68H141.97C142.436 258.213 142.923 257.827 143.43 257.52C143.95 257.2 144.55 257.04 145.23 257.04C146.256 257.04 147.003 257.36 147.47 258C147.95 258.64 148.19 259.587 148.19 260.84V267H146.55V261.06C146.55 260.14 146.403 259.48 146.11 259.08C145.816 258.667 145.35 258.46 144.71 258.46C144.203 258.46 143.756 258.587 143.37 258.84C142.983 259.093 142.543 259.467 142.05 259.96V267H140.41ZM154.627 271.48C154.027 271.48 153.48 271.42 152.987 271.3C152.494 271.193 152.067 271.027 151.707 270.8C151.36 270.573 151.087 270.3 150.887 269.98C150.7 269.66 150.607 269.287 150.607 268.86C150.607 268.447 150.734 268.053 150.987 267.68C151.24 267.307 151.587 266.967 152.027 266.66V266.58C151.787 266.433 151.58 266.233 151.407 265.98C151.247 265.713 151.167 265.387 151.167 265C151.167 264.587 151.28 264.227 151.507 263.92C151.734 263.613 151.974 263.373 152.227 263.2V263.12C151.907 262.853 151.614 262.5 151.347 262.06C151.094 261.607 150.967 261.087 150.967 260.5C150.967 259.967 151.06 259.487 151.247 259.06C151.447 258.633 151.714 258.273 152.047 257.98C152.38 257.673 152.767 257.44 153.207 257.28C153.66 257.12 154.134 257.04 154.627 257.04C154.894 257.04 155.14 257.067 155.367 257.12C155.607 257.16 155.82 257.213 156.007 257.28H159.387V258.54H157.387C157.614 258.767 157.8 259.053 157.947 259.4C158.107 259.747 158.187 260.127 158.187 260.54C158.187 261.06 158.094 261.533 157.907 261.96C157.72 262.373 157.467 262.727 157.147 263.02C156.827 263.3 156.447 263.52 156.007 263.68C155.58 263.84 155.12 263.92 154.627 263.92C154.387 263.92 154.14 263.893 153.887 263.84C153.634 263.773 153.394 263.687 153.167 263.58C152.994 263.727 152.847 263.893 152.727 264.08C152.607 264.253 152.547 264.473 152.547 264.74C152.547 265.047 152.667 265.3 152.907 265.5C153.147 265.7 153.6 265.8 154.267 265.8H156.147C157.28 265.8 158.127 265.987 158.687 266.36C159.26 266.72 159.547 267.307 159.547 268.12C159.547 268.573 159.434 269 159.207 269.4C158.98 269.813 158.654 270.173 158.227 270.48C157.8 270.787 157.28 271.027 156.667 271.2C156.067 271.387 155.387 271.48 154.627 271.48ZM154.627 262.82C154.907 262.82 155.167 262.767 155.407 262.66C155.66 262.553 155.88 262.4 156.067 262.2C156.267 262 156.42 261.76 156.527 261.48C156.634 261.187 156.687 260.86 156.687 260.5C156.687 259.78 156.487 259.227 156.087 258.84C155.687 258.44 155.2 258.24 154.627 258.24C154.054 258.24 153.567 258.44 153.167 258.84C152.767 259.227 152.567 259.78 152.567 260.5C152.567 260.86 152.62 261.187 152.727 261.48C152.834 261.76 152.98 262 153.167 262.2C153.367 262.4 153.587 262.553 153.827 262.66C154.08 262.767 154.347 262.82 154.627 262.82ZM154.867 270.34C155.334 270.34 155.754 270.28 156.127 270.16C156.514 270.053 156.84 269.907 157.107 269.72C157.374 269.547 157.58 269.34 157.727 269.1C157.874 268.86 157.947 268.613 157.947 268.36C157.947 267.907 157.78 267.593 157.447 267.42C157.114 267.247 156.627 267.16 155.987 267.16H154.307C154.12 267.16 153.914 267.147 153.687 267.12C153.474 267.107 153.26 267.067 153.047 267C152.7 267.253 152.447 267.52 152.287 267.8C152.127 268.08 152.047 268.36 152.047 268.64C152.047 269.16 152.294 269.573 152.787 269.88C153.294 270.187 153.987 270.34 154.867 270.34ZM167.969 267.24C167.276 267.24 166.616 267.113 165.989 266.86C165.362 266.607 164.816 266.287 164.349 265.9L165.169 264.8C165.596 265.147 166.029 265.427 166.469 265.64C166.922 265.853 167.442 265.96 168.029 265.96C168.669 265.96 169.149 265.813 169.469 265.52C169.789 265.227 169.949 264.867 169.949 264.44C169.949 264.187 169.882 263.967 169.749 263.78C169.616 263.593 169.442 263.433 169.229 263.3C169.029 263.153 168.796 263.027 168.529 262.92C168.262 262.813 167.996 262.707 167.729 262.6C167.382 262.48 167.036 262.347 166.689 262.2C166.342 262.04 166.029 261.853 165.749 261.64C165.482 261.413 165.262 261.153 165.089 260.86C164.916 260.567 164.829 260.213 164.829 259.8C164.829 259.413 164.902 259.053 165.049 258.72C165.209 258.373 165.429 258.08 165.709 257.84C166.002 257.587 166.356 257.393 166.769 257.26C167.182 257.113 167.649 257.04 168.169 257.04C168.782 257.04 169.342 257.147 169.849 257.36C170.369 257.573 170.816 257.833 171.189 258.14L170.409 259.18C170.076 258.927 169.729 258.72 169.369 258.56C169.009 258.4 168.616 258.32 168.189 258.32C167.576 258.32 167.122 258.46 166.829 258.74C166.549 259.02 166.409 259.347 166.409 259.72C166.409 259.947 166.469 260.147 166.589 260.32C166.709 260.48 166.869 260.627 167.069 260.76C167.269 260.88 167.496 260.993 167.749 261.1C168.016 261.193 168.289 261.293 168.569 261.4C168.916 261.533 169.262 261.673 169.609 261.82C169.969 261.967 170.289 262.153 170.569 262.38C170.849 262.593 171.076 262.86 171.249 263.18C171.436 263.5 171.529 263.887 171.529 264.34C171.529 264.74 171.449 265.113 171.289 265.46C171.142 265.807 170.916 266.113 170.609 266.38C170.316 266.647 169.942 266.853 169.489 267C169.049 267.16 168.542 267.24 167.969 267.24ZM177.588 267.24C176.988 267.24 176.415 267.127 175.868 266.9C175.335 266.673 174.861 266.347 174.448 265.92C174.035 265.48 173.701 264.947 173.448 264.32C173.208 263.68 173.088 262.96 173.088 262.16C173.088 261.347 173.208 260.627 173.448 260C173.701 259.36 174.035 258.82 174.448 258.38C174.861 257.94 175.335 257.607 175.868 257.38C176.415 257.153 176.988 257.04 177.588 257.04C178.188 257.04 178.755 257.153 179.288 257.38C179.835 257.607 180.315 257.94 180.728 258.38C181.141 258.82 181.468 259.36 181.708 260C181.961 260.627 182.088 261.347 182.088 262.16C182.088 262.96 181.961 263.68 181.708 264.32C181.468 264.947 181.141 265.48 180.728 265.92C180.315 266.347 179.835 266.673 179.288 266.9C178.755 267.127 178.188 267.24 177.588 267.24ZM177.588 265.88C178.001 265.88 178.381 265.793 178.728 265.62C179.075 265.433 179.368 265.18 179.608 264.86C179.861 264.527 180.055 264.133 180.188 263.68C180.321 263.227 180.388 262.72 180.388 262.16C180.388 261.6 180.321 261.093 180.188 260.64C180.055 260.173 179.861 259.773 179.608 259.44C179.368 259.107 179.075 258.853 178.728 258.68C178.381 258.493 178.001 258.4 177.588 258.4C177.175 258.4 176.795 258.493 176.448 258.68C176.101 258.853 175.801 259.107 175.548 259.44C175.308 259.773 175.121 260.173 174.988 260.64C174.855 261.093 174.788 261.6 174.788 262.16C174.788 262.72 174.855 263.227 174.988 263.68C175.121 264.133 175.308 264.527 175.548 264.86C175.801 265.18 176.101 265.433 176.448 265.62C176.795 265.793 177.175 265.88 177.588 265.88ZM188.428 267.24C187.828 267.24 187.254 267.127 186.708 266.9C186.174 266.673 185.701 266.347 185.288 265.92C184.874 265.48 184.541 264.947 184.288 264.32C184.048 263.68 183.928 262.96 183.928 262.16C183.928 261.347 184.048 260.627 184.288 260C184.541 259.36 184.874 258.82 185.288 258.38C185.701 257.94 186.174 257.607 186.708 257.38C187.254 257.153 187.828 257.04 188.428 257.04C189.028 257.04 189.594 257.153 190.128 257.38C190.674 257.607 191.154 257.94 191.568 258.38C191.981 258.82 192.308 259.36 192.548 260C192.801 260.627 192.928 261.347 192.928 262.16C192.928 262.96 192.801 263.68 192.548 264.32C192.308 264.947 191.981 265.48 191.568 265.92C191.154 266.347 190.674 266.673 190.128 266.9C189.594 267.127 189.028 267.24 188.428 267.24ZM188.428 265.88C188.841 265.88 189.221 265.793 189.568 265.62C189.914 265.433 190.208 265.18 190.448 264.86C190.701 264.527 190.894 264.133 191.028 263.68C191.161 263.227 191.228 262.72 191.228 262.16C191.228 261.6 191.161 261.093 191.028 260.64C190.894 260.173 190.701 259.773 190.448 259.44C190.208 259.107 189.914 258.853 189.568 258.68C189.221 258.493 188.841 258.4 188.428 258.4C188.014 258.4 187.634 258.493 187.288 258.68C186.941 258.853 186.641 259.107 186.388 259.44C186.148 259.773 185.961 260.173 185.828 260.64C185.694 261.093 185.628 261.6 185.628 262.16C185.628 262.72 185.694 263.227 185.828 263.68C185.961 264.133 186.148 264.527 186.388 264.86C186.641 265.18 186.941 265.433 187.288 265.62C187.634 265.793 188.014 265.88 188.428 265.88ZM195.488 267V257.28H196.848L196.988 258.68H197.048C197.514 258.213 198.001 257.827 198.508 257.52C199.028 257.2 199.628 257.04 200.308 257.04C201.334 257.04 202.081 257.36 202.548 258C203.028 258.64 203.268 259.587 203.268 260.84V267H201.628V261.06C201.628 260.14 201.481 259.48 201.188 259.08C200.894 258.667 200.428 258.46 199.788 258.46C199.281 258.46 198.834 258.587 198.448 258.84C198.061 259.093 197.621 259.467 197.128 259.96V267H195.488Z" fill="black"/>
<path d="M96.15 149.65L94.6 154.65H104.45L102.9 149.65C102.3 147.817 101.733 146 101.2 144.2C100.667 142.367 100.133 140.5 99.6 138.6H99.4C98.9 140.5 98.3833 142.367 97.85 144.2C97.3167 146 96.75 147.817 96.15 149.65ZM86.15 168L97.25 135.2H101.95L113.05 168H108.6L105.5 158H93.55L90.4 168H86.15ZM117.297 168V143.7H120.697L121.047 148.1H121.197C122.031 146.567 123.047 145.35 124.247 144.45C125.447 143.55 126.731 143.1 128.097 143.1C129.064 143.1 129.931 143.267 130.697 143.6L129.897 147.2C129.497 147.067 129.131 146.967 128.797 146.9C128.464 146.833 128.047 146.8 127.547 146.8C126.514 146.8 125.431 147.217 124.297 148.05C123.197 148.883 122.231 150.333 121.397 152.4V168H117.297ZM142.281 168.6C139.681 168.6 137.865 167.85 136.831 166.35C135.831 164.85 135.331 162.9 135.331 160.5V147.05H131.731V143.95L135.531 143.7L136.031 136.9H139.481V143.7H146.031V147.05H139.481V160.55C139.481 162.05 139.748 163.217 140.281 164.05C140.848 164.85 141.831 165.25 143.231 165.25C143.665 165.25 144.131 165.183 144.631 165.05C145.131 164.883 145.581 164.733 145.981 164.6L146.781 167.7C146.115 167.933 145.381 168.133 144.581 168.3C143.815 168.5 143.048 168.6 142.281 168.6Z" fill="#7BDC00"/>
<path d="M151.526 168V143.7H154.926L155.276 148.1H155.426C156.259 146.567 157.276 145.35 158.476 144.45C159.676 143.55 160.959 143.1 162.326 143.1C163.292 143.1 164.159 143.267 164.926 143.6L164.126 147.2C163.726 147.067 163.359 146.967 163.026 146.9C162.692 146.833 162.276 146.8 161.776 146.8C160.742 146.8 159.659 147.217 158.526 148.05C157.426 148.883 156.459 150.333 155.626 152.4V168H151.526ZM178.221 168.6C176.055 168.6 174.088 168.1 172.321 167.1C170.555 166.067 169.155 164.6 168.121 162.7C167.088 160.8 166.571 158.533 166.571 155.9C166.571 153.233 167.088 150.95 168.121 149.05C169.188 147.15 170.555 145.683 172.221 144.65C173.888 143.617 175.638 143.1 177.471 143.1C180.571 143.1 182.955 144.133 184.621 146.2C186.321 148.267 187.171 151.033 187.171 154.5C187.171 154.933 187.155 155.367 187.121 155.8C187.121 156.2 187.088 156.55 187.021 156.85H170.621C170.788 159.417 171.588 161.467 173.021 163C174.488 164.533 176.388 165.3 178.721 165.3C179.888 165.3 180.955 165.133 181.921 164.8C182.921 164.433 183.871 163.967 184.771 163.4L186.221 166.1C185.188 166.767 184.005 167.35 182.671 167.85C181.371 168.35 179.888 168.6 178.221 168.6ZM170.571 153.9H183.571C183.571 151.433 183.038 149.567 181.971 148.3C180.938 147 179.471 146.35 177.571 146.35C175.871 146.35 174.338 147.017 172.971 148.35C171.638 149.65 170.838 151.5 170.571 153.9ZM203.026 168.6C200.86 168.6 198.893 168.1 197.126 167.1C195.36 166.067 193.96 164.6 192.926 162.7C191.893 160.8 191.376 158.533 191.376 155.9C191.376 153.233 191.893 150.95 192.926 149.05C193.993 147.15 195.36 145.683 197.026 144.65C198.693 143.617 200.443 143.1 202.276 143.1C205.376 143.1 207.76 144.133 209.426 146.2C211.126 148.267 211.976 151.033 211.976 154.5C211.976 154.933 211.96 155.367 211.926 155.8C211.926 156.2 211.893 156.55 211.826 156.85H195.426C195.593 159.417 196.393 161.467 197.826 163C199.293 164.533 201.193 165.3 203.526 165.3C204.693 165.3 205.76 165.133 206.726 164.8C207.726 164.433 208.676 163.967 209.576 163.4L211.026 166.1C209.993 166.767 208.81 167.35 207.476 167.85C206.176 168.35 204.693 168.6 203.026 168.6ZM195.376 153.9H208.376C208.376 151.433 207.843 149.567 206.776 148.3C205.743 147 204.276 146.35 202.376 146.35C200.676 146.35 199.143 147.017 197.776 148.35C196.443 149.65 195.643 151.5 195.376 153.9Z" fill="#FFBB0E"/>
</svg>
