<svg width="300" height="300" viewBox="0 0 300 300" fill="none" xmlns="http://www.w3.org/2000/svg">
<rect width="300" height="300" fill="white"/>
<path d="M101.76 267.24C100.933 267.24 100.173 267.087 99.48 266.78C98.7867 266.473 98.18 266.033 97.66 265.46C97.1533 264.873 96.7533 264.16 96.46 263.32C96.18 262.467 96.04 261.507 96.04 260.44C96.04 259.387 96.1867 258.44 96.48 257.6C96.7733 256.76 97.18 256.047 97.7 255.46C98.22 254.873 98.8333 254.427 99.54 254.12C100.247 253.8 101.02 253.64 101.86 253.64C102.66 253.64 103.36 253.807 103.96 254.14C104.573 254.46 105.073 254.833 105.46 255.26L104.56 256.34C104.213 255.967 103.82 255.667 103.38 255.44C102.94 255.213 102.44 255.1 101.88 255.1C101.253 255.1 100.687 255.227 100.18 255.48C99.6733 255.72 99.24 256.073 98.88 256.54C98.52 256.993 98.24 257.547 98.04 258.2C97.8533 258.853 97.76 259.587 97.76 260.4C97.76 261.227 97.8533 261.973 98.04 262.64C98.24 263.293 98.5133 263.853 98.86 264.32C99.2067 264.787 99.6267 265.147 100.12 265.4C100.627 265.653 101.193 265.78 101.82 265.78C102.46 265.78 103.02 265.653 103.5 265.4C103.98 265.133 104.433 264.767 104.86 264.3L105.78 265.34C105.26 265.94 104.673 266.407 104.02 266.74C103.367 267.073 102.613 267.24 101.76 267.24ZM111.846 267.24C111.246 267.24 110.672 267.127 110.126 266.9C109.592 266.673 109.119 266.347 108.706 265.92C108.292 265.48 107.959 264.947 107.706 264.32C107.466 263.68 107.346 262.96 107.346 262.16C107.346 261.347 107.466 260.627 107.706 260C107.959 259.36 108.292 258.82 108.706 258.38C109.119 257.94 109.592 257.607 110.126 257.38C110.672 257.153 111.246 257.04 111.846 257.04C112.446 257.04 113.012 257.153 113.546 257.38C114.092 257.607 114.572 257.94 114.986 258.38C115.399 258.82 115.726 259.36 115.966 260C116.219 260.627 116.346 261.347 116.346 262.16C116.346 262.96 116.219 263.68 115.966 264.32C115.726 264.947 115.399 265.48 114.986 265.92C114.572 266.347 114.092 266.673 113.546 266.9C113.012 267.127 112.446 267.24 111.846 267.24ZM111.846 265.88C112.259 265.88 112.639 265.793 112.986 265.62C113.332 265.433 113.626 265.18 113.866 264.86C114.119 264.527 114.312 264.133 114.446 263.68C114.579 263.227 114.646 262.72 114.646 262.16C114.646 261.6 114.579 261.093 114.446 260.64C114.312 260.173 114.119 259.773 113.866 259.44C113.626 259.107 113.332 258.853 112.986 258.68C112.639 258.493 112.259 258.4 111.846 258.4C111.432 258.4 111.052 258.493 110.706 258.68C110.359 258.853 110.059 259.107 109.806 259.44C109.566 259.773 109.379 260.173 109.246 260.64C109.112 261.093 109.046 261.6 109.046 262.16C109.046 262.72 109.112 263.227 109.246 263.68C109.379 264.133 109.566 264.527 109.806 264.86C110.059 265.18 110.359 265.433 110.706 265.62C111.052 265.793 111.432 265.88 111.846 265.88ZM118.906 267V257.28H120.266L120.406 258.68H120.466C120.892 258.213 121.352 257.827 121.846 257.52C122.352 257.2 122.899 257.04 123.486 257.04C124.232 257.04 124.812 257.207 125.226 257.54C125.652 257.86 125.966 258.313 126.166 258.9C126.672 258.34 127.179 257.893 127.686 257.56C128.206 257.213 128.766 257.04 129.366 257.04C130.366 257.04 131.106 257.36 131.586 258C132.079 258.64 132.326 259.587 132.326 260.84V267H130.686V261.06C130.686 260.14 130.539 259.48 130.246 259.08C129.952 258.667 129.499 258.46 128.886 258.46C128.152 258.46 127.339 258.96 126.446 259.96V267H124.806V261.06C124.806 260.14 124.659 259.48 124.366 259.08C124.072 258.667 123.612 258.46 122.986 258.46C122.252 258.46 121.439 258.96 120.546 259.96V267H118.906ZM135.488 267V257.28H137.128V267H135.488ZM136.328 255.28C136.008 255.28 135.734 255.18 135.508 254.98C135.294 254.78 135.188 254.527 135.188 254.22C135.188 253.9 135.294 253.647 135.508 253.46C135.734 253.26 136.008 253.16 136.328 253.16C136.648 253.16 136.914 253.26 137.128 253.46C137.354 253.647 137.468 253.9 137.468 254.22C137.468 254.527 137.354 254.78 137.128 254.98C136.914 255.18 136.648 255.28 136.328 255.28ZM140.41 267V257.28H141.77L141.91 258.68H141.97C142.436 258.213 142.923 257.827 143.43 257.52C143.95 257.2 144.55 257.04 145.23 257.04C146.256 257.04 147.003 257.36 147.47 258C147.95 258.64 148.19 259.587 148.19 260.84V267H146.55V261.06C146.55 260.14 146.403 259.48 146.11 259.08C145.816 258.667 145.35 258.46 144.71 258.46C144.203 258.46 143.756 258.587 143.37 258.84C142.983 259.093 142.543 259.467 142.05 259.96V267H140.41ZM154.627 271.48C154.027 271.48 153.48 271.42 152.987 271.3C152.494 271.193 152.067 271.027 151.707 270.8C151.36 270.573 151.087 270.3 150.887 269.98C150.7 269.66 150.607 269.287 150.607 268.86C150.607 268.447 150.734 268.053 150.987 267.68C151.24 267.307 151.587 266.967 152.027 266.66V266.58C151.787 266.433 151.58 266.233 151.407 265.98C151.247 265.713 151.167 265.387 151.167 265C151.167 264.587 151.28 264.227 151.507 263.92C151.734 263.613 151.974 263.373 152.227 263.2V263.12C151.907 262.853 151.614 262.5 151.347 262.06C151.094 261.607 150.967 261.087 150.967 260.5C150.967 259.967 151.06 259.487 151.247 259.06C151.447 258.633 151.714 258.273 152.047 257.98C152.38 257.673 152.767 257.44 153.207 257.28C153.66 257.12 154.134 257.04 154.627 257.04C154.894 257.04 155.14 257.067 155.367 257.12C155.607 257.16 155.82 257.213 156.007 257.28H159.387V258.54H157.387C157.614 258.767 157.8 259.053 157.947 259.4C158.107 259.747 158.187 260.127 158.187 260.54C158.187 261.06 158.094 261.533 157.907 261.96C157.72 262.373 157.467 262.727 157.147 263.02C156.827 263.3 156.447 263.52 156.007 263.68C155.58 263.84 155.12 263.92 154.627 263.92C154.387 263.92 154.14 263.893 153.887 263.84C153.634 263.773 153.394 263.687 153.167 263.58C152.994 263.727 152.847 263.893 152.727 264.08C152.607 264.253 152.547 264.473 152.547 264.74C152.547 265.047 152.667 265.3 152.907 265.5C153.147 265.7 153.6 265.8 154.267 265.8H156.147C157.28 265.8 158.127 265.987 158.687 266.36C159.26 266.72 159.547 267.307 159.547 268.12C159.547 268.573 159.434 269 159.207 269.4C158.98 269.813 158.654 270.173 158.227 270.48C157.8 270.787 157.28 271.027 156.667 271.2C156.067 271.387 155.387 271.48 154.627 271.48ZM154.627 262.82C154.907 262.82 155.167 262.767 155.407 262.66C155.66 262.553 155.88 262.4 156.067 262.2C156.267 262 156.42 261.76 156.527 261.48C156.634 261.187 156.687 260.86 156.687 260.5C156.687 259.78 156.487 259.227 156.087 258.84C155.687 258.44 155.2 258.24 154.627 258.24C154.054 258.24 153.567 258.44 153.167 258.84C152.767 259.227 152.567 259.78 152.567 260.5C152.567 260.86 152.62 261.187 152.727 261.48C152.834 261.76 152.98 262 153.167 262.2C153.367 262.4 153.587 262.553 153.827 262.66C154.08 262.767 154.347 262.82 154.627 262.82ZM154.867 270.34C155.334 270.34 155.754 270.28 156.127 270.16C156.514 270.053 156.84 269.907 157.107 269.72C157.374 269.547 157.58 269.34 157.727 269.1C157.874 268.86 157.947 268.613 157.947 268.36C157.947 267.907 157.78 267.593 157.447 267.42C157.114 267.247 156.627 267.16 155.987 267.16H154.307C154.12 267.16 153.914 267.147 153.687 267.12C153.474 267.107 153.26 267.067 153.047 267C152.7 267.253 152.447 267.52 152.287 267.8C152.127 268.08 152.047 268.36 152.047 268.64C152.047 269.16 152.294 269.573 152.787 269.88C153.294 270.187 153.987 270.34 154.867 270.34ZM167.969 267.24C167.276 267.24 166.616 267.113 165.989 266.86C165.362 266.607 164.816 266.287 164.349 265.9L165.169 264.8C165.596 265.147 166.029 265.427 166.469 265.64C166.922 265.853 167.442 265.96 168.029 265.96C168.669 265.96 169.149 265.813 169.469 265.52C169.789 265.227 169.949 264.867 169.949 264.44C169.949 264.187 169.882 263.967 169.749 263.78C169.616 263.593 169.442 263.433 169.229 263.3C169.029 263.153 168.796 263.027 168.529 262.92C168.262 262.813 167.996 262.707 167.729 262.6C167.382 262.48 167.036 262.347 166.689 262.2C166.342 262.04 166.029 261.853 165.749 261.64C165.482 261.413 165.262 261.153 165.089 260.86C164.916 260.567 164.829 260.213 164.829 259.8C164.829 259.413 164.902 259.053 165.049 258.72C165.209 258.373 165.429 258.08 165.709 257.84C166.002 257.587 166.356 257.393 166.769 257.26C167.182 257.113 167.649 257.04 168.169 257.04C168.782 257.04 169.342 257.147 169.849 257.36C170.369 257.573 170.816 257.833 171.189 258.14L170.409 259.18C170.076 258.927 169.729 258.72 169.369 258.56C169.009 258.4 168.616 258.32 168.189 258.32C167.576 258.32 167.122 258.46 166.829 258.74C166.549 259.02 166.409 259.347 166.409 259.72C166.409 259.947 166.469 260.147 166.589 260.32C166.709 260.48 166.869 260.627 167.069 260.76C167.269 260.88 167.496 260.993 167.749 261.1C168.016 261.193 168.289 261.293 168.569 261.4C168.916 261.533 169.262 261.673 169.609 261.82C169.969 261.967 170.289 262.153 170.569 262.38C170.849 262.593 171.076 262.86 171.249 263.18C171.436 263.5 171.529 263.887 171.529 264.34C171.529 264.74 171.449 265.113 171.289 265.46C171.142 265.807 170.916 266.113 170.609 266.38C170.316 266.647 169.942 266.853 169.489 267C169.049 267.16 168.542 267.24 167.969 267.24ZM177.588 267.24C176.988 267.24 176.415 267.127 175.868 266.9C175.335 266.673 174.861 266.347 174.448 265.92C174.035 265.48 173.701 264.947 173.448 264.32C173.208 263.68 173.088 262.96 173.088 262.16C173.088 261.347 173.208 260.627 173.448 260C173.701 259.36 174.035 258.82 174.448 258.38C174.861 257.94 175.335 257.607 175.868 257.38C176.415 257.153 176.988 257.04 177.588 257.04C178.188 257.04 178.755 257.153 179.288 257.38C179.835 257.607 180.315 257.94 180.728 258.38C181.141 258.82 181.468 259.36 181.708 260C181.961 260.627 182.088 261.347 182.088 262.16C182.088 262.96 181.961 263.68 181.708 264.32C181.468 264.947 181.141 265.48 180.728 265.92C180.315 266.347 179.835 266.673 179.288 266.9C178.755 267.127 178.188 267.24 177.588 267.24ZM177.588 265.88C178.001 265.88 178.381 265.793 178.728 265.62C179.075 265.433 179.368 265.18 179.608 264.86C179.861 264.527 180.055 264.133 180.188 263.68C180.321 263.227 180.388 262.72 180.388 262.16C180.388 261.6 180.321 261.093 180.188 260.64C180.055 260.173 179.861 259.773 179.608 259.44C179.368 259.107 179.075 258.853 178.728 258.68C178.381 258.493 178.001 258.4 177.588 258.4C177.175 258.4 176.795 258.493 176.448 258.68C176.101 258.853 175.801 259.107 175.548 259.44C175.308 259.773 175.121 260.173 174.988 260.64C174.855 261.093 174.788 261.6 174.788 262.16C174.788 262.72 174.855 263.227 174.988 263.68C175.121 264.133 175.308 264.527 175.548 264.86C175.801 265.18 176.101 265.433 176.448 265.62C176.795 265.793 177.175 265.88 177.588 265.88ZM188.428 267.24C187.828 267.24 187.254 267.127 186.708 266.9C186.174 266.673 185.701 266.347 185.288 265.92C184.874 265.48 184.541 264.947 184.288 264.32C184.048 263.68 183.928 262.96 183.928 262.16C183.928 261.347 184.048 260.627 184.288 260C184.541 259.36 184.874 258.82 185.288 258.38C185.701 257.94 186.174 257.607 186.708 257.38C187.254 257.153 187.828 257.04 188.428 257.04C189.028 257.04 189.594 257.153 190.128 257.38C190.674 257.607 191.154 257.94 191.568 258.38C191.981 258.82 192.308 259.36 192.548 260C192.801 260.627 192.928 261.347 192.928 262.16C192.928 262.96 192.801 263.68 192.548 264.32C192.308 264.947 191.981 265.48 191.568 265.92C191.154 266.347 190.674 266.673 190.128 266.9C189.594 267.127 189.028 267.24 188.428 267.24ZM188.428 265.88C188.841 265.88 189.221 265.793 189.568 265.62C189.914 265.433 190.208 265.18 190.448 264.86C190.701 264.527 190.894 264.133 191.028 263.68C191.161 263.227 191.228 262.72 191.228 262.16C191.228 261.6 191.161 261.093 191.028 260.64C190.894 260.173 190.701 259.773 190.448 259.44C190.208 259.107 189.914 258.853 189.568 258.68C189.221 258.493 188.841 258.4 188.428 258.4C188.014 258.4 187.634 258.493 187.288 258.68C186.941 258.853 186.641 259.107 186.388 259.44C186.148 259.773 185.961 260.173 185.828 260.64C185.694 261.093 185.628 261.6 185.628 262.16C185.628 262.72 185.694 263.227 185.828 263.68C185.961 264.133 186.148 264.527 186.388 264.86C186.641 265.18 186.941 265.433 187.288 265.62C187.634 265.793 188.014 265.88 188.428 265.88ZM195.488 267V257.28H196.848L196.988 258.68H197.048C197.514 258.213 198.001 257.827 198.508 257.52C199.028 257.2 199.628 257.04 200.308 257.04C201.334 257.04 202.081 257.36 202.548 258C203.028 258.64 203.268 259.587 203.268 260.84V267H201.628V261.06C201.628 260.14 201.481 259.48 201.188 259.08C200.894 258.667 200.428 258.46 199.788 258.46C199.281 258.46 198.834 258.587 198.448 258.84C198.061 259.093 197.621 259.467 197.128 259.96V267H195.488Z" fill="black"/>
<path d="M89.85 168V135.4H97.2V148.75H97.4L107.1 135.4H115.2L105.35 148.4L117 168H108.95L101 154.25L97.2 159.25V168H89.85ZM132.446 168.6C129.512 168.6 126.929 167.917 124.696 166.55C122.496 165.183 120.762 163.233 119.496 160.7C118.262 158.133 117.646 155.083 117.646 151.55C117.646 147.983 118.262 144.967 119.496 142.5C120.762 140 122.496 138.1 124.696 136.8C126.929 135.467 129.512 134.8 132.446 134.8C135.379 134.8 137.946 135.467 140.146 136.8C142.379 138.1 144.112 140 145.346 142.5C146.612 145 147.246 148.017 147.246 151.55C147.246 155.083 146.612 158.133 145.346 160.7C144.112 163.233 142.379 165.183 140.146 166.55C137.946 167.917 135.379 168.6 132.446 168.6ZM132.446 162.25C134.679 162.25 136.446 161.283 137.746 159.35C139.046 157.417 139.696 154.817 139.696 151.55C139.696 148.283 139.046 145.733 137.746 143.9C136.446 142.067 134.679 141.15 132.446 141.15C130.212 141.15 128.446 142.067 127.146 143.9C125.846 145.733 125.196 148.283 125.196 151.55C125.196 154.817 125.846 157.417 127.146 159.35C128.446 161.283 130.212 162.25 132.446 162.25ZM153.375 168V135.4H165.125C167.425 135.4 169.525 135.717 171.425 136.35C173.325 136.95 174.842 137.983 175.975 139.45C177.109 140.917 177.675 142.95 177.675 145.55C177.675 147.95 177.142 149.933 176.075 151.5C175.042 153.033 173.642 154.183 171.875 154.95L179.275 168H171.025L164.775 156.25H160.725V168H153.375ZM160.725 150.4H164.525C166.459 150.4 167.925 150 168.925 149.2C169.959 148.367 170.475 147.15 170.475 145.55C170.475 143.95 169.959 142.833 168.925 142.2C167.925 141.567 166.459 141.25 164.525 141.25H160.725V150.4ZM198.439 168.6C195.473 168.6 192.773 167.967 190.339 166.7C187.939 165.433 186.023 163.567 184.589 161.1C183.189 158.6 182.489 155.533 182.489 151.9C182.489 148.3 183.206 145.233 184.639 142.7C186.106 140.133 188.039 138.183 190.439 136.85C192.839 135.483 195.489 134.8 198.389 134.8C200.756 134.8 202.789 135.233 204.489 136.1C206.189 136.967 207.573 137.95 208.639 139.05L204.789 143.75C203.956 143.017 203.073 142.4 202.139 141.9C201.206 141.4 200.039 141.15 198.639 141.15C196.106 141.15 194.039 142.083 192.439 143.95C190.839 145.817 190.039 148.383 190.039 151.65C190.039 154.983 190.806 157.583 192.339 159.45C193.873 161.317 196.156 162.25 199.189 162.25C199.856 162.25 200.506 162.167 201.139 162C201.773 161.833 202.289 161.583 202.689 161.25V155.65H197.289V149.65H209.189V164.65C208.056 165.75 206.539 166.683 204.639 167.45C202.773 168.217 200.706 168.6 198.439 168.6Z" fill="black"/>
<path d="M82.18 192L79.48 182.28H81.16L82.6 187.9C82.7067 188.353 82.8067 188.807 82.9 189.26C82.9933 189.7 83.0867 190.147 83.18 190.6H83.26C83.3667 190.147 83.4733 189.7 83.58 189.26C83.6867 188.807 83.8 188.353 83.92 187.9L85.42 182.28H87.02L88.54 187.9C88.66 188.353 88.7733 188.807 88.88 189.26C89 189.7 89.1133 190.147 89.22 190.6H89.3C89.4067 190.147 89.5067 189.7 89.6 189.26C89.7067 188.807 89.8067 188.353 89.9 187.9L91.32 182.28H92.88L90.28 192H88.28L86.88 186.78C86.76 186.313 86.6467 185.853 86.54 185.4C86.4467 184.947 86.34 184.473 86.22 183.98H86.14C86.0333 184.473 85.9267 184.953 85.82 185.42C85.7133 185.873 85.5933 186.333 85.46 186.8L84.1 192H82.18ZM98.8573 192.24C97.9907 192.24 97.204 192.04 96.4973 191.64C95.7907 191.227 95.2307 190.64 94.8173 189.88C94.404 189.12 94.1973 188.213 94.1973 187.16C94.1973 186.093 94.404 185.18 94.8173 184.42C95.244 183.66 95.7907 183.073 96.4573 182.66C97.124 182.247 97.824 182.04 98.5573 182.04C99.7973 182.04 100.751 182.453 101.417 183.28C102.097 184.107 102.437 185.213 102.437 186.6C102.437 186.773 102.431 186.947 102.417 187.12C102.417 187.28 102.404 187.42 102.377 187.54H95.8173C95.884 188.567 96.204 189.387 96.7773 190C97.364 190.613 98.124 190.92 99.0573 190.92C99.524 190.92 99.9507 190.853 100.337 190.72C100.737 190.573 101.117 190.387 101.477 190.16L102.057 191.24C101.644 191.507 101.171 191.74 100.637 191.94C100.117 192.14 99.524 192.24 98.8573 192.24ZM95.7973 186.36H100.997C100.997 185.373 100.784 184.627 100.357 184.12C99.944 183.6 99.3573 183.34 98.5973 183.34C97.9173 183.34 97.304 183.607 96.7573 184.14C96.224 184.66 95.904 185.4 95.7973 186.36ZM109.139 192.24C108.686 192.24 108.213 192.133 107.719 191.92C107.239 191.693 106.786 191.387 106.359 191H106.299L106.159 192H104.839V177.76H106.479V181.64L106.439 183.4C106.879 183.013 107.359 182.693 107.879 182.44C108.413 182.173 108.946 182.04 109.479 182.04C110.746 182.04 111.706 182.487 112.359 183.38C113.013 184.273 113.339 185.473 113.339 186.98C113.339 188.087 113.139 189.033 112.739 189.82C112.353 190.607 111.839 191.207 111.199 191.62C110.573 192.033 109.886 192.24 109.139 192.24ZM108.859 190.86C109.659 190.86 110.319 190.52 110.839 189.84C111.373 189.147 111.639 188.2 111.639 187C111.639 185.933 111.439 185.073 111.039 184.42C110.653 183.753 109.999 183.42 109.079 183.42C108.666 183.42 108.246 183.533 107.819 183.76C107.393 183.987 106.946 184.313 106.479 184.74V189.84C106.906 190.213 107.326 190.48 107.739 190.64C108.166 190.787 108.539 190.86 108.859 190.86ZM118.434 192.24C117.741 192.24 117.081 192.113 116.454 191.86C115.827 191.593 115.281 191.273 114.814 190.9L115.634 189.8C116.061 190.133 116.501 190.413 116.954 190.64C117.407 190.853 117.921 190.96 118.494 190.96C119.134 190.96 119.614 190.813 119.934 190.52C120.254 190.213 120.414 189.853 120.414 189.44C120.414 189.107 120.301 188.827 120.074 188.6C119.861 188.373 119.581 188.187 119.234 188.04C118.901 187.88 118.554 187.733 118.194 187.6C117.741 187.427 117.294 187.233 116.854 187.02C116.414 186.793 116.054 186.507 115.774 186.16C115.494 185.8 115.354 185.347 115.354 184.8C115.354 184.013 115.647 183.36 116.234 182.84C116.834 182.307 117.661 182.04 118.714 182.04C119.314 182.04 119.874 182.147 120.394 182.36C120.914 182.573 121.361 182.833 121.734 183.14L120.934 184.18C120.601 183.927 120.254 183.72 119.894 183.56C119.534 183.4 119.141 183.32 118.714 183.32C118.101 183.32 117.647 183.46 117.354 183.74C117.074 184.02 116.934 184.347 116.934 184.72C116.934 185.027 117.034 185.28 117.234 185.48C117.434 185.667 117.694 185.833 118.014 185.98C118.334 186.113 118.674 186.253 119.034 186.4C119.501 186.573 119.961 186.773 120.414 187C120.867 187.213 121.241 187.507 121.534 187.88C121.841 188.24 121.994 188.727 121.994 189.34C121.994 189.86 121.854 190.34 121.574 190.78C121.307 191.22 120.907 191.573 120.374 191.84C119.854 192.107 119.207 192.24 118.434 192.24ZM124.273 192V182.28H125.913V192H124.273ZM125.113 180.28C124.793 180.28 124.526 180.187 124.313 180C124.113 179.8 124.013 179.533 124.013 179.2C124.013 178.88 124.113 178.62 124.313 178.42C124.526 178.22 124.793 178.12 125.113 178.12C125.433 178.12 125.693 178.22 125.893 178.42C126.106 178.62 126.213 178.88 126.213 179.2C126.213 179.533 126.106 179.8 125.893 180C125.693 180.187 125.433 180.28 125.113 180.28ZM132.255 192.24C131.215 192.24 130.488 191.94 130.075 191.34C129.675 190.74 129.475 189.96 129.475 189V183.62H128.035V182.38L129.555 182.28L129.755 179.56H131.135V182.28H133.755V183.62H131.135V189.02C131.135 189.62 131.241 190.087 131.455 190.42C131.681 190.74 132.075 190.9 132.635 190.9C132.808 190.9 132.995 190.873 133.195 190.82C133.395 190.753 133.575 190.693 133.735 190.64L134.055 191.88C133.788 191.973 133.495 192.053 133.175 192.12C132.868 192.2 132.561 192.24 132.255 192.24ZM139.619 192.24C138.752 192.24 137.966 192.04 137.259 191.64C136.552 191.227 135.992 190.64 135.579 189.88C135.166 189.12 134.959 188.213 134.959 187.16C134.959 186.093 135.166 185.18 135.579 184.42C136.006 183.66 136.552 183.073 137.219 182.66C137.886 182.247 138.586 182.04 139.319 182.04C140.559 182.04 141.512 182.453 142.179 183.28C142.859 184.107 143.199 185.213 143.199 186.6C143.199 186.773 143.192 186.947 143.179 187.12C143.179 187.28 143.166 187.42 143.139 187.54H136.579C136.646 188.567 136.966 189.387 137.539 190C138.126 190.613 138.886 190.92 139.819 190.92C140.286 190.92 140.712 190.853 141.099 190.72C141.499 190.573 141.879 190.387 142.239 190.16L142.819 191.24C142.406 191.507 141.932 191.74 141.399 191.94C140.879 192.14 140.286 192.24 139.619 192.24ZM136.559 186.36H141.759C141.759 185.373 141.546 184.627 141.119 184.12C140.706 183.6 140.119 183.34 139.359 183.34C138.679 183.34 138.066 183.607 137.519 184.14C136.986 184.66 136.666 185.4 136.559 186.36ZM149.605 192V182.28H150.965L151.105 184.04H151.165C151.498 183.427 151.905 182.94 152.385 182.58C152.865 182.22 153.378 182.04 153.925 182.04C154.312 182.04 154.658 182.107 154.965 182.24L154.645 183.68C154.485 183.627 154.338 183.587 154.205 183.56C154.072 183.533 153.905 183.52 153.705 183.52C153.292 183.52 152.858 183.687 152.405 184.02C151.965 184.353 151.578 184.933 151.245 185.76V192H149.605ZM160.283 192.24C159.416 192.24 158.63 192.04 157.923 191.64C157.216 191.227 156.656 190.64 156.243 189.88C155.83 189.12 155.623 188.213 155.623 187.16C155.623 186.093 155.83 185.18 156.243 184.42C156.67 183.66 157.216 183.073 157.883 182.66C158.55 182.247 159.25 182.04 159.983 182.04C161.223 182.04 162.176 182.453 162.843 183.28C163.523 184.107 163.863 185.213 163.863 186.6C163.863 186.773 163.856 186.947 163.843 187.12C163.843 187.28 163.83 187.42 163.803 187.54H157.243C157.31 188.567 157.63 189.387 158.203 190C158.79 190.613 159.55 190.92 160.483 190.92C160.95 190.92 161.376 190.853 161.763 190.72C162.163 190.573 162.543 190.387 162.903 190.16L163.483 191.24C163.07 191.507 162.596 191.74 162.063 191.94C161.543 192.14 160.95 192.24 160.283 192.24ZM157.223 186.36H162.423C162.423 185.373 162.21 184.627 161.783 184.12C161.37 183.6 160.783 183.34 160.023 183.34C159.343 183.34 158.73 183.607 158.183 184.14C157.65 184.66 157.33 185.4 157.223 186.36ZM169.585 192.24C168.372 192.24 167.398 191.8 166.665 190.92C165.932 190.027 165.565 188.773 165.565 187.16C165.565 186.107 165.758 185.2 166.145 184.44C166.545 183.667 167.065 183.073 167.705 182.66C168.358 182.247 169.052 182.04 169.785 182.04C170.345 182.04 170.832 182.14 171.245 182.34C171.658 182.54 172.078 182.813 172.505 183.16L172.425 181.5V177.76H174.085V192H172.725L172.585 190.86H172.525C172.152 191.233 171.712 191.56 171.205 191.84C170.698 192.107 170.158 192.24 169.585 192.24ZM169.945 190.86C170.798 190.86 171.625 190.413 172.425 189.52V184.44C172.012 184.067 171.612 183.807 171.225 183.66C170.852 183.5 170.465 183.42 170.065 183.42C169.545 183.42 169.072 183.58 168.645 183.9C168.232 184.207 167.898 184.64 167.645 185.2C167.392 185.747 167.265 186.393 167.265 187.14C167.265 188.3 167.498 189.213 167.965 189.88C168.432 190.533 169.092 190.86 169.945 190.86ZM181.299 192.24C180.432 192.24 179.645 192.04 178.939 191.64C178.232 191.227 177.672 190.64 177.259 189.88C176.845 189.12 176.639 188.213 176.639 187.16C176.639 186.093 176.845 185.18 177.259 184.42C177.685 183.66 178.232 183.073 178.899 182.66C179.565 182.247 180.265 182.04 180.999 182.04C182.239 182.04 183.192 182.453 183.859 183.28C184.539 184.107 184.879 185.213 184.879 186.6C184.879 186.773 184.872 186.947 184.859 187.12C184.859 187.28 184.845 187.42 184.819 187.54H178.259C178.325 188.567 178.645 189.387 179.219 190C179.805 190.613 180.565 190.92 181.499 190.92C181.965 190.92 182.392 190.853 182.779 190.72C183.179 190.573 183.559 190.387 183.919 190.16L184.499 191.24C184.085 191.507 183.612 191.74 183.079 191.94C182.559 192.14 181.965 192.24 181.299 192.24ZM178.239 186.36H183.439C183.439 185.373 183.225 184.627 182.799 184.12C182.385 183.6 181.799 183.34 181.039 183.34C180.359 183.34 179.745 183.607 179.199 184.14C178.665 184.66 178.345 185.4 178.239 186.36ZM189.821 192.24C189.127 192.24 188.467 192.113 187.841 191.86C187.214 191.593 186.667 191.273 186.201 190.9L187.021 189.8C187.447 190.133 187.887 190.413 188.341 190.64C188.794 190.853 189.307 190.96 189.881 190.96C190.521 190.96 191.001 190.813 191.321 190.52C191.641 190.213 191.801 189.853 191.801 189.44C191.801 189.107 191.687 188.827 191.461 188.6C191.247 188.373 190.967 188.187 190.621 188.04C190.287 187.88 189.941 187.733 189.581 187.6C189.127 187.427 188.681 187.233 188.241 187.02C187.801 186.793 187.441 186.507 187.161 186.16C186.881 185.8 186.741 185.347 186.741 184.8C186.741 184.013 187.034 183.36 187.621 182.84C188.221 182.307 189.047 182.04 190.101 182.04C190.701 182.04 191.261 182.147 191.781 182.36C192.301 182.573 192.747 182.833 193.121 183.14L192.321 184.18C191.987 183.927 191.641 183.72 191.281 183.56C190.921 183.4 190.527 183.32 190.101 183.32C189.487 183.32 189.034 183.46 188.741 183.74C188.461 184.02 188.321 184.347 188.321 184.72C188.321 185.027 188.421 185.28 188.621 185.48C188.821 185.667 189.081 185.833 189.401 185.98C189.721 186.113 190.061 186.253 190.421 186.4C190.887 186.573 191.347 186.773 191.801 187C192.254 187.213 192.627 187.507 192.921 187.88C193.227 188.24 193.381 188.727 193.381 189.34C193.381 189.86 193.241 190.34 192.961 190.78C192.694 191.22 192.294 191.573 191.761 191.84C191.241 192.107 190.594 192.24 189.821 192.24ZM195.66 192V182.28H197.3V192H195.66ZM196.5 180.28C196.18 180.28 195.913 180.187 195.7 180C195.5 179.8 195.4 179.533 195.4 179.2C195.4 178.88 195.5 178.62 195.7 178.42C195.913 178.22 196.18 178.12 196.5 178.12C196.82 178.12 197.08 178.22 197.28 178.42C197.493 178.62 197.6 178.88 197.6 179.2C197.6 179.533 197.493 179.8 197.28 180C197.08 180.187 196.82 180.28 196.5 180.28ZM203.861 196.48C202.675 196.48 201.708 196.253 200.961 195.8C200.215 195.347 199.841 194.7 199.841 193.86C199.841 193.447 199.968 193.047 200.221 192.66C200.475 192.287 200.821 191.953 201.261 191.66V191.58C201.021 191.433 200.815 191.227 200.641 190.96C200.481 190.693 200.401 190.373 200.401 190C200.401 189.587 200.515 189.227 200.741 188.92C200.968 188.613 201.208 188.373 201.461 188.2V188.12C201.141 187.853 200.848 187.493 200.581 187.04C200.328 186.587 200.201 186.073 200.201 185.5C200.201 184.793 200.368 184.18 200.701 183.66C201.035 183.14 201.481 182.74 202.041 182.46C202.601 182.18 203.208 182.04 203.861 182.04C204.128 182.04 204.381 182.067 204.621 182.12C204.861 182.16 205.068 182.213 205.241 182.28H208.621V183.54H206.621C206.848 183.753 207.035 184.04 207.181 184.4C207.341 184.747 207.421 185.127 207.421 185.54C207.421 186.233 207.261 186.833 206.941 187.34C206.621 187.847 206.195 188.24 205.661 188.52C205.128 188.787 204.528 188.92 203.861 188.92C203.341 188.92 202.855 188.807 202.401 188.58C202.228 188.727 202.081 188.893 201.961 189.08C201.841 189.253 201.781 189.473 201.781 189.74C201.781 190.047 201.901 190.3 202.141 190.5C202.395 190.7 202.848 190.8 203.501 190.8H205.381C206.515 190.8 207.361 190.987 207.921 191.36C208.495 191.72 208.781 192.307 208.781 193.12C208.781 193.72 208.581 194.273 208.181 194.78C207.781 195.287 207.215 195.693 206.481 196C205.748 196.32 204.875 196.48 203.861 196.48ZM203.861 187.82C204.421 187.82 204.901 187.613 205.301 187.2C205.715 186.773 205.921 186.207 205.921 185.5C205.921 184.793 205.721 184.24 205.321 183.84C204.921 183.44 204.435 183.24 203.861 183.24C203.288 183.24 202.801 183.44 202.401 183.84C202.001 184.24 201.801 184.793 201.801 185.5C201.801 186.207 202.001 186.773 202.401 187.2C202.815 187.613 203.301 187.82 203.861 187.82ZM204.101 195.34C205.035 195.34 205.781 195.133 206.341 194.72C206.901 194.32 207.181 193.867 207.181 193.36C207.181 192.907 207.008 192.593 206.661 192.42C206.328 192.247 205.848 192.16 205.221 192.16H203.541C203.355 192.16 203.148 192.147 202.921 192.12C202.708 192.093 202.495 192.053 202.281 192C201.935 192.253 201.681 192.52 201.521 192.8C201.361 193.08 201.281 193.36 201.281 193.64C201.281 194.16 201.528 194.573 202.021 194.88C202.528 195.187 203.221 195.34 204.101 195.34ZM210.66 192V182.28H212.02L212.16 183.68H212.22C212.686 183.213 213.18 182.827 213.7 182.52C214.22 182.2 214.813 182.04 215.48 182.04C216.506 182.04 217.253 182.367 217.72 183.02C218.2 183.66 218.44 184.6 218.44 185.84V192H216.8V186.06C216.8 185.153 216.653 184.493 216.36 184.08C216.066 183.667 215.6 183.46 214.96 183.46C214.466 183.46 214.02 183.587 213.62 183.84C213.233 184.093 212.793 184.467 212.3 184.96V192H210.66Z" fill="black"/>
</svg>
