<svg width="65" height="52" viewBox="0 0 65 52" fill="none" xmlns="http://www.w3.org/2000/svg">
<path d="M37.1429 0C44.881 0 51.4583 2.52778 56.875 7.58333C62.2917 12.6389 65 18.7778 65 26C65 33.2222 62.2917 39.3611 56.875 44.4167C51.4583 49.4722 44.881 52 37.1429 52C29.5015 52 22.9241 49.4722 17.4107 44.4167L21.9085 40.2188C26.0677 44.191 31.1458 46.1771 37.1429 46.1771C43.1399 46.1771 48.2422 44.2135 52.4498 40.2865C56.6574 36.3594 58.7612 31.5972 58.7612 26C58.7612 20.4028 56.6574 15.6406 52.4498 11.7135C48.2422 7.78646 43.1399 5.82292 37.1429 5.82292C31.1458 5.82292 26.0435 7.78646 21.8359 11.7135C17.6283 15.6406 15.5246 20.4028 15.5246 26H24.8103L12.1875 37.6458L12.0424 37.2396L0 26H9.28571C9.28571 18.7778 11.994 12.6389 17.4107 7.58333C22.8274 2.52778 29.4048 0 37.1429 0ZM34.096 14.4896H38.7388V26.6771L49.4754 32.7708L47.2991 36.2917L34.096 28.8438V14.4896Z" fill="white"/>
</svg>
