<svg width="229" height="111" viewBox="0 0 229 111" fill="none" xmlns="http://www.w3.org/2000/svg">
<rect x="1.5" y="1.5" width="226" height="108" rx="54" fill="url(#paint0_linear)" stroke="white" stroke-width="3"/>
<circle cx="57" cy="56" r="42" fill="white"/>
<mask id="path-3-inside-1" fill="white">
<path fill-rule="evenodd" clip-rule="evenodd" d="M78.5571 64.3628C69.2308 68.1044 59.3756 67.1128 53.1427 60.8799C46.4837 54.2209 45.807 43.4273 50.4933 33.5615C40.6453 36.3084 33.411 45.4545 33.411 56.3139C33.411 69.3452 43.8282 79.9091 56.6785 79.9091C66.7414 79.9091 75.3123 73.431 78.5571 64.3628Z"/>
</mask>
<path d="M78.5571 64.3628L80.4401 65.0366L81.9376 60.8516L77.8124 62.5066L78.5571 64.3628ZM50.4933 33.5615L52.2999 34.4196L54.1825 30.4561L49.956 31.6351L50.4933 33.5615ZM77.8124 62.5066C68.9921 66.0453 60.0624 64.9712 54.5569 59.4657L51.7285 62.2941C58.6888 69.2544 69.4696 70.1636 79.3018 66.219L77.8124 62.5066ZM54.5569 59.4657C48.6781 53.5868 47.8522 43.7831 52.2999 34.4196L48.6868 32.7034C43.7619 43.0716 44.2893 54.855 51.7285 62.2941L54.5569 59.4657ZM35.411 56.3139C35.411 46.3586 42.041 37.9955 51.0307 35.488L49.956 31.6351C39.2496 34.6214 31.411 44.5503 31.411 56.3139H35.411ZM56.6785 77.9091C44.9591 77.9091 35.411 68.2671 35.411 56.3139H31.411C31.411 70.4233 42.6974 81.9091 56.6785 81.9091V77.9091ZM76.674 63.689C73.6999 72.0009 65.8559 77.9091 56.6785 77.9091V81.9091C67.627 81.9091 76.9248 74.8611 80.4401 65.0366L76.674 63.689Z" fill="#4E0884" mask="url(#path-3-inside-1)"/>
<path d="M64.6139 50.9564C65.6318 49.9384 66.4019 48.4015 66.9306 47.0926C67.4592 48.4015 68.2293 49.9384 69.2473 50.9564C70.2653 51.9744 71.8022 52.7445 73.1111 53.2731C71.8022 53.8018 70.2653 54.5719 69.2473 55.5899C68.2293 56.6079 67.4592 58.1448 66.9306 59.4537C66.4019 58.1448 65.6318 56.6079 64.6139 55.5899C63.5959 54.5719 62.059 53.8018 60.75 53.2731C62.059 52.7445 63.5959 51.9744 64.6139 50.9564Z" stroke="#4E0884" stroke-width="2"/>
<path d="M55.3808 44.0249C55.8806 43.5252 56.279 42.8618 56.5853 42.2309C56.8916 42.8618 57.29 43.5252 57.7897 44.0249C58.2894 44.5247 58.9529 44.9231 59.5837 45.2294C58.9529 45.5357 58.2894 45.9341 57.7897 46.4338C57.29 46.9335 56.8916 47.597 56.5853 48.2278C56.279 47.597 55.8806 46.9335 55.3808 46.4338C54.8811 45.9341 54.2177 45.5357 53.5868 45.2294C54.2177 44.9231 54.8811 44.5247 55.3808 44.0249Z" stroke="#4E0884" stroke-width="2"/>
<path d="M124.22 66V44.7H131.96C134.28 44.7 136.22 45.18 137.78 46.14C139.34 47.08 140.51 48.36 141.29 49.98C142.07 51.58 142.46 53.36 142.46 55.32C142.46 57.48 142.03 59.36 141.17 60.96C140.31 62.56 139.09 63.8 137.51 64.68C135.93 65.56 134.08 66 131.96 66H124.22ZM138.29 55.32C138.29 53.94 138.04 52.73 137.54 51.69C137.04 50.63 136.32 49.81 135.38 49.23C134.44 48.63 133.3 48.33 131.96 48.33H128.36V62.37H131.96C133.32 62.37 134.47 62.07 135.41 61.47C136.35 60.85 137.06 60.01 137.54 58.95C138.04 57.87 138.29 56.66 138.29 55.32ZM144.049 61.35C144.049 60.33 144.329 59.44 144.889 58.68C145.469 57.9 146.269 57.3 147.289 56.88C148.309 56.46 149.479 56.25 150.799 56.25C151.459 56.25 152.129 56.31 152.809 56.43C153.489 56.53 154.079 56.68 154.579 56.88V56.04C154.579 55.04 154.279 54.27 153.679 53.73C153.099 53.19 152.229 52.92 151.069 52.92C150.209 52.92 149.389 53.07 148.609 53.37C147.829 53.67 147.009 54.11 146.149 54.69L144.859 52.05C145.899 51.37 146.959 50.86 148.039 50.52C149.139 50.18 150.289 50.01 151.489 50.01C153.729 50.01 155.469 50.57 156.709 51.69C157.969 52.81 158.599 54.41 158.599 56.49V61.5C158.599 61.94 158.669 62.25 158.809 62.43C158.949 62.59 159.199 62.69 159.559 62.73V66C159.199 66.08 158.869 66.13 158.569 66.15C158.289 66.19 158.049 66.21 157.849 66.21C157.049 66.21 156.439 66.03 156.019 65.67C155.599 65.31 155.349 64.87 155.269 64.35L155.179 63.54C154.479 64.44 153.619 65.13 152.599 65.61C151.599 66.07 150.569 66.3 149.509 66.3C148.449 66.3 147.509 66.09 146.689 65.67C145.869 65.23 145.219 64.64 144.739 63.9C144.279 63.14 144.049 62.29 144.049 61.35ZM153.829 62.16C154.329 61.68 154.579 61.22 154.579 60.78V59.19C153.539 58.77 152.489 58.56 151.429 58.56C150.369 58.56 149.509 58.79 148.849 59.25C148.189 59.69 147.859 60.28 147.859 61.02C147.859 61.62 148.099 62.16 148.579 62.64C149.059 63.12 149.749 63.36 150.649 63.36C151.249 63.36 151.829 63.25 152.389 63.03C152.969 62.81 153.449 62.52 153.829 62.16ZM171.715 53.76C170.495 53.76 169.405 54 168.445 54.48C167.485 54.94 166.795 55.61 166.375 56.49V66H162.355V50.28H166.045V53.64C166.585 52.56 167.285 51.71 168.145 51.09C169.025 50.47 169.945 50.13 170.905 50.07C171.325 50.07 171.595 50.08 171.715 50.1V53.76ZM184.697 66L180.107 59.22L177.977 61.32V66H173.957V44.1H177.977V57.36L184.307 50.31H188.567L182.717 56.97L188.987 66H184.697Z" fill="white"/>
<defs>
<linearGradient id="paint0_linear" x1="3" y1="56" x2="226" y2="56" gradientUnits="userSpaceOnUse">
<stop stop-color="#85158F"/>
<stop offset="1" stop-color="#0F006B"/>
</linearGradient>
</defs>
</svg>
