<svg width="1440" height="1358" viewBox="0 0 1440 1358" fill="none" xmlns="http://www.w3.org/2000/svg">
<g clip-path="url(#clip0_635_525)">
<rect width="1440" height="1330" fill="#F3F9FF"/>
<path d="M-450.707 183.196L592.303 -269.019L657.54 -80.7928C657.54 -80.7928 654.225 22.483 582.033 96.7658C515.514 165.212 458.766 137.283 372.039 203.943C309.762 251.81 278.926 326.134 215.007 366.301C147.423 408.771 102.617 361.768 -36.94 436.87C-111.775 477.141 -118.751 496.51 -221.184 540.975C-323.945 585.583 -350.099 415.242 -350.099 415.242L-450.707 183.196Z" fill="#00BAE9"/>
<path d="M-319.015 381.079L-319.101 380.768L-319.262 380.489L-432.222 185.666L448.703 -325.101L525.33 -166.459C525.34 -166.31 525.353 -166.125 525.366 -165.904C525.409 -165.226 525.464 -164.214 525.515 -162.895C525.616 -160.257 525.7 -156.392 525.624 -151.518C525.472 -141.768 524.683 -127.989 522.133 -111.916C517.031 -79.7484 504.9 -38.5215 476.84 -1.97495C451.076 31.5811 425.068 43.652 396.394 55.9489C395.139 56.4871 393.879 57.0257 392.614 57.5665C364.854 69.4322 334.6 82.3639 300.499 115.539C276.668 138.725 259.608 166.354 242.964 193.308C241.722 195.32 240.483 197.328 239.243 199.33C221.323 228.259 203.328 255.979 177.221 276.977C153.569 296.002 132.085 299.98 105.354 304.931C101.111 305.717 96.7352 306.527 92.1979 307.426C59.0619 313.991 18.2429 325.204 -40.565 366.308C-64.9185 383.33 -80.5243 396.512 -95.4601 409.128C-99.8205 412.811 -104.124 416.446 -108.571 420.114C-128.228 436.328 -150.908 453.378 -194.263 478.542C-215.449 490.838 -233.55 490.868 -248.889 484.301C-264.388 477.666 -277.383 464.158 -287.863 448.8C-298.319 433.476 -306.114 416.546 -311.301 403.407C-313.892 396.846 -315.824 391.25 -317.107 387.299C-317.749 385.324 -318.228 383.762 -318.546 382.696C-318.704 382.164 -318.823 381.755 -318.901 381.482C-318.92 381.416 -318.936 381.358 -318.951 381.308C-318.966 381.255 -318.978 381.21 -318.988 381.175L-319.009 381.101L-319.014 381.083L-319.015 381.08C-319.015 381.079 -319.015 381.079 -319.093 381.101L-319.015 381.079Z" stroke="#D4F7FF" stroke-width="5"/>
<path d="M-460.826 386.619L-460.923 386.451L-546.847 238.256L122.402 -149.78L180.774 -28.9315C180.783 -28.8067 180.794 -28.6394 180.807 -28.431C180.84 -27.9135 180.882 -27.1423 180.92 -26.138C180.998 -24.1295 181.061 -21.1893 181.003 -17.4825C180.888 -10.0676 180.288 0.408105 178.349 12.6279C174.471 37.0799 165.247 68.4369 143.899 96.2417C124.283 121.79 104.468 130.984 82.69 140.323C81.7387 140.731 80.7838 141.139 79.8251 141.549C58.7635 150.552 35.8616 160.342 10.036 185.466C-8.01325 203.026 -20.9358 223.954 -33.5713 244.417C-34.5122 245.941 -35.4515 247.462 -36.3912 248.979C-49.9887 270.931 -63.6765 292.023 -83.548 308.006C-101.581 322.511 -117.986 325.548 -138.274 329.304C-141.492 329.9 -144.808 330.514 -148.244 331.194C-173.348 336.168 -204.271 344.659 -248.848 375.816C-267.313 388.722 -279.14 398.712 -290.473 408.285C-293.784 411.081 -297.053 413.842 -300.432 416.63C-315.367 428.948 -332.596 441.9 -365.517 461.008C-381.694 470.397 -395.563 470.438 -407.329 465.401C-419.191 460.322 -429.105 450 -437.078 438.317C-445.036 426.654 -450.964 413.776 -454.907 403.791C-456.876 398.803 -458.345 394.548 -459.321 391.543C-459.809 390.041 -460.174 388.852 -460.416 388.041C-460.537 387.635 -460.627 387.324 -460.687 387.115C-460.716 387.011 -460.739 386.932 -460.753 386.88L-460.769 386.823L-460.773 386.809L-460.774 386.806C-460.774 386.806 -460.774 386.806 -461.367 386.969L-460.774 386.806L-460.826 386.619Z" stroke="#D4F7FF" stroke-width="3"/>
<path d="M21.5283 1056.31C20.1819 1051.88 -41.5661 1021.24 -37.3802 1011.78C-33.1943 1002.33 30.6393 1034.94 33.8345 1033.23C37.0298 1031.51 54.1706 965.696 61.9074 966.687C69.6442 967.678 63.4353 1032.77 66.7491 1035.1C70.0628 1037.44 135.655 1033.09 136.75 1042.79C137.845 1052.5 70.4047 1062.99 68.0676 1066.3C65.7306 1069.62 87.2737 1140.38 81.2531 1142.59C75.2325 1144.79 44.2224 1083.23 40.5389 1082.12C36.8554 1081.01 -14.9023 1128.36 -21.5298 1123.69C-28.1573 1119.02 22.8746 1060.73 21.5283 1056.31Z" stroke="#444444" stroke-width="5"/>
<path d="M49.0595 864.4C46.6958 867.554 35.175 871.521 35.175 871.521C35.175 871.521 24.9181 876.799 21.1508 876.51C17.3835 876.221 18.772 867.991 18.772 867.991C18.772 867.991 -0.319951 865.922 -2.59249 863.929C-4.86503 861.936 -9.82068 852.278 -10.3398 850.3C-10.8589 848.321 -10.8565 837.007 -10.3792 834.987C-9.97749 833.287 -3.0936 821.528 -0.508146 818.918C0.784583 817.613 16.5394 807.919 18.5564 807.495C21.9182 806.789 37.9218 809.144 40.6622 809.795C43.4907 810.466 54.8535 820.432 56.3148 823.12C57.7762 825.809 58.1742 838.421 57.688 840.809C57.2019 843.197 45.6143 855.951 45.6143 855.951C45.6143 855.951 51.4232 861.246 49.0595 864.4Z" stroke="#444444" stroke-width="4"/>
<line x1="1.39044" y1="846.369" x2="25.636" y2="859.257" stroke="#444444" stroke-width="4"/>
<line x1="42.8644" y1="828.678" x2="35.1573" y2="855.033" stroke="#444444" stroke-width="4"/>
<line x1="20.1097" y1="830.441" x2="29.7615" y2="856.148" stroke="#444444" stroke-width="4"/>
<path d="M204.031 698.007C205.531 697.007 210.031 670.507 214.031 671.007C218.031 671.507 213.031 699.007 214.031 700.007C215.031 701.007 241.531 700.007 242.031 703.007C242.531 706.007 217.531 711.007 217.031 712.507C216.531 714.007 225.531 738.007 222.031 739.507C218.531 741.007 207.031 717.007 205.531 716.507C204.031 716.007 180.031 732.007 178.531 730.007C177.031 728.007 196.531 709.507 196.531 708.007C196.531 706.507 173.031 692.507 174.031 689.507C175.031 686.507 202.531 699.007 204.031 698.007Z" stroke="#444444" stroke-width="4"/>
<path d="M265.567 758.761C266.189 757.747 261.54 740.728 264.076 739.907C266.613 739.087 271.24 756.841 272.116 757.156C272.993 757.471 288.602 749.472 289.733 751.116C290.865 752.761 277.264 762.72 277.38 763.752C277.496 764.784 289.546 776.544 287.863 778.414C286.181 780.284 272.633 769.223 271.595 769.345C270.558 769.467 260.606 785.689 259.153 784.919C257.699 784.149 264.26 767.696 263.844 766.804C263.428 765.912 245.459 764.152 245.227 762.088C244.994 760.024 264.945 759.775 265.567 758.761Z" stroke="#444444" stroke-width="3"/>
<path d="M308.765 772.106C307.655 768.883 310.037 765.387 314.212 763.73C317.982 762.233 321.671 762.651 324.085 764.878C326.094 766.732 326.477 768.837 325.133 771.365C323.428 774.571 319.514 776.37 315.367 776.139C311.926 775.947 309.643 774.656 308.765 772.106Z" stroke="#444444" stroke-width="4"/>
<path d="M513.557 895.925C510.539 896.707 501.46 893.472 501.46 893.472C501.46 893.472 492.516 891.671 490.33 889.633C488.145 887.595 493.066 883.193 493.066 883.193C493.066 883.193 482.287 872.49 481.867 870.137C481.446 867.783 483.151 859.368 483.806 857.889C484.462 856.41 490.049 849.418 491.341 848.406C492.428 847.553 502.487 843.684 505.374 843.347C506.817 843.179 521.339 844.964 522.795 845.698C525.221 846.921 533.949 856.277 535.322 858.032C536.739 859.843 538.842 871.611 538.418 873.994C537.994 876.377 532.014 884.368 530.535 885.604C529.056 886.84 515.599 889.002 515.599 889.002C515.599 889.002 516.575 895.143 513.557 895.925Z" stroke="#444444" stroke-width="3"/>
<line x1="492.921" y1="861.282" x2="501.544" y2="881.216" stroke="#444444" stroke-width="3"/>
<line x1="527.314" y1="870.722" x2="509.542" y2="883.206" stroke="#444444" stroke-width="3"/>
<line x1="512.35" y1="860.621" x2="505.626" y2="881.273" stroke="#444444" stroke-width="3"/>
<path d="M457.577 868.117C459.577 865.356 463.807 865.296 467.563 867.761C470.954 869.986 472.732 873.246 472.297 876.5C471.934 879.211 470.431 880.734 467.589 881.086C463.987 881.533 458.496 881.526 456.303 878C454.482 875.073 455.995 870.301 457.577 868.117Z" stroke="#444444" stroke-width="4"/>
<path d="M455.549 850.028C456.713 848.421 459.176 848.386 461.362 849.821C463.336 851.117 464.371 853.014 464.117 854.909C463.906 856.486 463.032 857.373 461.377 857.578C459.28 857.838 456.084 857.834 454.807 855.781C453.747 854.078 454.628 851.299 455.549 850.028Z" stroke="#444444" stroke-width="3"/>
<path d="M230.138 1303.86C224.746 1305.25 208.525 1299.47 208.525 1299.47C208.525 1299.47 192.544 1296.26 188.638 1292.61C184.733 1288.97 193.525 1281.11 193.525 1281.11C193.525 1281.11 174.267 1261.98 173.516 1257.78C172.764 1253.57 175.81 1238.54 176.981 1235.9C178.153 1233.25 188.135 1220.76 190.443 1218.95C192.386 1217.43 210.359 1210.52 215.516 1209.91C218.095 1209.61 244.043 1212.8 246.644 1214.11C250.979 1216.3 266.574 1233.02 269.026 1236.15C271.557 1239.39 275.315 1260.41 274.558 1264.67C273.8 1268.93 263.116 1283.21 260.473 1285.42C257.83 1287.62 233.785 1291.49 233.785 1291.49C233.785 1291.49 235.53 1302.46 230.138 1303.86Z" stroke="#444444" stroke-width="3"/>
<line x1="192.184" y1="1242.43" x2="207.59" y2="1278.04" stroke="#444444" stroke-width="3"/>
<line x1="254.04" y1="1257.86" x2="222.285" y2="1280.16" stroke="#444444" stroke-width="3"/>
<line x1="226.859" y1="1240.41" x2="214.845" y2="1277.31" stroke="#444444" stroke-width="3"/>
<path d="M50.6018 1233.02C53.6887 1228.77 60.1827 1228.65 65.9336 1232.42C71.1259 1235.82 73.8365 1240.82 73.149 1245.82C72.5765 1249.99 70.2606 1252.34 65.8955 1252.9C60.3621 1253.61 51.9325 1253.63 48.5865 1248.22C45.8094 1243.73 48.1598 1236.39 50.6018 1233.02Z" stroke="#444444" stroke-width="4"/>
<path d="M308.575 1257.93C312.009 1253.19 319.271 1253.09 325.719 1257.32C331.54 1261.14 334.593 1266.74 333.846 1272.32C333.223 1276.98 330.644 1279.59 325.764 1280.2C319.579 1280.96 310.152 1280.95 306.387 1274.9C303.262 1269.87 305.859 1261.68 308.575 1257.93Z" stroke="#444444" stroke-width="3"/>
<path d="M324.065 873.545C324.065 873.545 310.957 865.961 317.356 854.657C330.015 848.438 335.472 864.206 335.472 864.206C335.472 864.206 337.722 853.984 340.714 851.136C348.915 843.33 383.436 845.107 377.122 854.494C372.885 860.794 349.223 862.712 349.223 862.712C356.877 865.837 364.472 867.262 369.713 873.461C374.743 879.409 377.12 885.211 378.492 893.114C378.492 893.114 397.99 889.707 396.555 897.491C395.128 905.235 376.089 907.258 376.089 907.258L373.614 915.201L365.325 917.19C365.325 917.19 361.601 935.136 353.498 935.233C345.652 935.327 351.12 918.587 351.12 918.587C351.12 918.587 338.376 914.115 332.462 908.266C326.493 902.363 322.988 888.047 322.988 888.047C322.988 888.047 320.708 911.156 313.385 914.977C303.233 920.276 304.161 885.165 311.971 876.799C314.904 873.657 324.065 873.545 324.065 873.545Z" stroke="#A3D8A8" stroke-width="3"/>
<path d="M59.3575 682.769C59.3575 682.769 48.2632 672.462 57.0147 662.862C70.7387 659.612 73.2666 675.879 73.2666 675.879C73.2666 675.879 71.8875 664.415 74.2673 661.039C82.3459 649.577 107.959 632.277 102.954 645.411C98.6785 656.632 85.8532 675.86 85.8532 675.86C92.6214 680.608 100.151 685.622 103.883 692.831C107.465 699.749 108.493 705.934 108.075 713.944C108.075 713.944 127.842 714.955 124.713 722.226C121.601 729.459 102.589 727.2 102.589 727.2L98.4102 734.395L89.8868 734.492C89.8868 734.492 93.7094 751.768 85.788 750.062C78.1175 748.41 75.7268 732.697 75.7268 732.697C75.7268 732.697 64.2951 725.505 59.8283 718.488C55.3204 711.406 55.3551 694.413 55.3551 694.413C55.3551 694.413 26.7641 693.653 15.776 685.338C6.64459 678.427 28.3098 675.665 44.1198 675.197C49.7875 675.029 59.3575 682.769 59.3575 682.769Z" stroke="#A3D8A8" stroke-width="3"/>
<path d="M140.214 821.423C133.815 832.728 146.923 840.312 146.923 840.312C146.923 840.312 137.763 840.424 134.829 843.565C127.019 851.931 126.091 887.042 136.243 881.744C143.566 877.922 145.846 854.814 145.846 854.814C145.846 854.814 149.351 869.13 155.32 875.032C161.234 880.881 173.978 885.353 173.978 885.353C173.978 885.353 177.614 903.382 185.46 903.288C193.562 903.191 188.183 883.956 188.183 883.956L196.472 881.968L198.947 874.024C198.947 874.024 216.374 884.423 217.801 876.68C219.235 868.895 201.35 859.88 201.35 859.88C199.978 851.977 197.601 846.175 192.571 840.227C187.33 834.028 178.874 830.812 171.22 827.687C171.22 827.687 176.61 811.464 178.285 799.574C180.245 785.656 161.806 803.933 156.477 816.903C154.907 820.724 158.953 830.503 158.953 830.503C158.953 830.503 152.873 815.204 140.214 821.423Z" stroke="#A3D8A8" stroke-width="3"/>
</g>
<defs>
<clipPath id="clip0_635_525">
<rect width="1440" height="1358" fill="white"/>
</clipPath>
</defs>
</svg>
