<svg width="103" height="103" viewBox="0 0 103 103" fill="none" xmlns="http://www.w3.org/2000/svg">
<path d="M51.5833 71.0167C62.3161 71.0167 71.0167 62.3161 71.0167 51.5833C71.0167 40.8506 62.3161 32.15 51.5833 32.15C40.8506 32.15 32.15 40.8506 32.15 51.5833C32.15 62.3161 40.8506 71.0167 51.5833 71.0167Z" stroke="#FFC700" stroke-width="5" stroke-linecap="round" stroke-linejoin="round"/>
<path d="M78.3042 24.8625L85.5917 17.575M51.5833 3V12.7167V3ZM51.5833 90.45V100.167V90.45ZM17.575 17.575L24.8625 24.8625L17.575 17.575ZM78.3042 78.3042L85.5917 85.5917L78.3042 78.3042ZM3 51.5833H12.7167H3ZM90.45 51.5833H100.167H90.45ZM17.575 85.5917L24.8625 78.3042L17.575 85.5917Z" stroke="#FFC700" stroke-width="5" stroke-linecap="round" stroke-linejoin="round"/>
</svg>
