<svg width="406" height="92" viewBox="0 0 406 92" fill="none" xmlns="http://www.w3.org/2000/svg">
<rect width="406" height="92" fill="white"/>
<rect width="406" height="92" fill="#007157"/>
<rect width="406" height="92" fill="url(#paint0_linear)"/>
<rect x="123" y="35" width="159.545" height="22.4281" rx="4" fill="white"/>
<g clip-path="url(#clip0)">
<path d="M174.395 49.5409C173.487 49.5409 172.754 49.0387 172.754 48.0464C172.754 47.0541 173.709 46.6753 174.674 46.5999L175.793 46.521V46.3942C175.793 45.7841 175.396 45.4979 174.751 45.4979C174.279 45.4921 173.815 45.6293 173.42 45.892L173.043 45.0848C173.598 44.7584 174.227 44.5859 174.867 44.5844C175.696 44.5844 176.168 44.8003 176.516 45.1345C176.864 45.4687 177.02 45.9023 177.02 46.7079V49.4329H175.834L175.815 48.8828C175.628 49.2256 175.089 49.5409 174.395 49.5409ZM173.989 48.007C173.989 48.4097 174.287 48.6925 174.8 48.6925C174.996 48.6931 175.189 48.6468 175.364 48.5576C175.539 48.4683 175.691 48.3384 175.808 48.1784V47.2889L174.968 47.3386C174.307 47.3763 173.989 47.6025 173.989 48.007V48.007Z" fill="#292D2E"/>
<path d="M179.021 44.6718L179.006 45.4396H179.034C179.117 45.1943 179.271 44.9807 179.477 44.8275C179.682 44.6743 179.928 44.5889 180.182 44.5826C180.351 44.5765 180.519 44.6062 180.675 44.6701L180.588 45.7618H180.53C180.362 45.7214 180.19 45.7018 180.018 45.7035C179.852 45.6952 179.688 45.7342 179.544 45.8159C179.399 45.8977 179.28 46.019 179.199 46.1663C179.076 46.4574 179.018 46.7732 179.031 47.0901V49.4329H177.795V44.6718H179.021Z" fill="#292D2E"/>
<path d="M186.12 45.6161C185.501 45.6161 185.184 46.1577 185.184 46.9735V49.4329H183.948V46.7593C183.948 46.1097 183.78 45.6178 183.197 45.6178C182.559 45.6178 182.28 46.228 182.28 46.9752V49.4329H181.045V44.6718H182.28L182.27 45.3882H182.299C182.511 44.946 183.081 44.5826 183.687 44.5826C184.36 44.5826 184.768 44.8569 184.99 45.4876C185.139 45.207 185.361 44.9739 185.632 44.8141C185.903 44.6544 186.212 44.5743 186.525 44.5826C187.751 44.5826 188.087 45.467 188.087 46.5588V49.4329H186.853V46.7678C186.853 46.1868 186.727 45.6161 186.12 45.6161Z" fill="#292D2E"/>
<path d="M188.615 47.0729C188.615 45.5681 189.714 44.5844 191.151 44.5844C192.589 44.5844 193.673 45.5681 193.673 47.0729C193.673 48.5777 192.572 49.5409 191.151 49.5409C189.731 49.5409 188.615 48.5777 188.615 47.0729ZM191.151 45.5973C190.341 45.5973 189.897 46.2263 189.897 47.0421C189.897 47.8579 190.341 48.4989 191.151 48.4989C191.962 48.4989 192.405 47.8596 192.405 47.0421C192.405 46.2245 191.95 45.5973 191.151 45.5973Z" fill="#292D2E"/>
<path d="M196.489 45.6161C195.727 45.6161 195.467 46.2657 195.467 47.0626V49.4329H194.231V44.6718H195.467L195.46 45.3882H195.489C195.741 44.886 196.213 44.5826 196.887 44.5826C198.232 44.5826 198.568 45.467 198.568 46.6085V49.4329H197.329V46.8861C197.329 46.1766 197.207 45.6161 196.489 45.6161Z" fill="#292D2E"/>
<path d="M199.952 44.6718L201.196 48.0464L202.411 44.6718H203.694L201.515 50.0722C201.179 50.9086 200.792 51.3114 200.135 51.3114C199.76 51.3177 199.386 51.2508 199.036 51.1143L199.286 50.1511C199.467 50.2158 199.655 50.2556 199.846 50.2693C200.088 50.2693 200.29 50.2008 200.387 49.954L200.589 49.4621L198.659 44.6718H199.952Z" fill="#292D2E"/>
<path d="M203.134 42.646H203.598L205.719 48.6754L207.843 42.646H208.276L205.846 49.4432H205.556L203.134 42.646Z" fill="#292D2E"/>
<path d="M210.105 49.5306C208.823 49.5306 208.002 48.5383 208.002 47.1706C208.002 45.7738 208.957 44.8192 210.134 44.8192C211.358 44.8192 212.123 45.7309 212.123 46.9307C212.12 47.0397 212.11 47.1485 212.094 47.2563H208.434C208.483 48.3772 209.159 49.1416 210.191 49.1416C210.757 49.1522 211.306 48.9412 211.724 48.552L211.928 48.8468C211.955 48.8434 211.396 49.5306 210.105 49.5306ZM210.105 45.2031C209.063 45.2031 208.475 46.1286 208.446 46.8655H211.707C211.706 46.2554 211.262 45.2031 210.105 45.2031V45.2031Z" fill="#292D2E"/>
<path d="M215.937 46.7079C215.937 45.9812 215.744 45.1928 214.75 45.1928C213.785 45.1928 213.333 46.0686 213.333 47.1895V49.4329H212.928V44.898H213.323V45.7738C213.446 45.4855 213.65 45.2409 213.91 45.071C214.169 44.901 214.472 44.8134 214.78 44.8192C216.053 44.8192 216.342 45.6453 216.342 46.7181V49.4329H215.937V46.7079Z" fill="#292D2E"/>
<path d="M218.627 49.5306C218.472 49.5438 218.316 49.5153 218.175 49.448C218.035 49.3806 217.914 49.2767 217.825 49.1467C217.657 48.8622 217.623 48.4097 217.623 47.6625V45.311H216.951V44.9186H217.623V43.4532H218.028V44.9186H219.166V45.311H218.018V48.0533C218.018 48.7114 218.095 49.1639 218.691 49.1639C218.859 49.1655 219.026 49.1218 219.173 49.037L219.22 49.4004C219.04 49.504 218.833 49.5494 218.627 49.5306Z" fill="#292D2E"/>
<path d="M222.907 48.5777C222.779 48.8623 222.574 49.1036 222.316 49.2726C222.058 49.4415 221.758 49.5311 221.451 49.5306C220.254 49.5306 219.916 48.8039 219.916 47.5939V44.898H220.321V47.7019C220.321 48.3995 220.457 49.157 221.479 49.157C222.501 49.157 222.907 48.1441 222.907 47.2392V44.898H223.312V49.4329H222.907V48.5777Z" fill="#292D2E"/>
<path d="M224.505 44.898H224.899V45.7052C225.121 45.1054 225.556 44.8192 226.038 44.8192C226.216 44.8207 226.394 44.8408 226.568 44.8791L226.511 45.311C226.338 45.2624 226.159 45.2393 225.98 45.2425C225.834 45.2481 225.691 45.2863 225.561 45.3544C225.431 45.4225 225.317 45.5189 225.228 45.6367C225.074 45.8423 224.892 46.1508 224.892 46.8467V49.4329H224.497L224.505 44.898Z" fill="#292D2E"/>
<path d="M228.844 49.5306C227.561 49.5306 226.741 48.5383 226.741 47.1706C226.741 45.7738 227.696 44.8192 228.874 44.8192C230.098 44.8192 230.871 45.7241 230.871 46.9341C230.869 47.0432 230.858 47.152 230.841 47.2597H227.177C227.224 48.3806 227.899 49.145 228.932 49.145C229.498 49.1553 230.047 48.9444 230.466 48.5554L230.668 48.8502C230.688 48.8434 230.137 49.5306 228.844 49.5306ZM228.844 45.2031C227.804 45.2031 227.213 46.1286 227.185 46.8655H230.446C230.446 46.2554 230.002 45.2031 228.844 45.2031V45.2031Z" fill="#292D2E"/>
<path d="M232.438 42.646H232.853V49.0387H235.237V49.4329H232.438V42.646Z" fill="#292D2E"/>
<path d="M238.747 48.744C238.552 48.9854 238.308 49.1809 238.031 49.3167C237.754 49.4525 237.452 49.5255 237.145 49.5306C236.286 49.5306 235.698 48.9308 235.698 48.1732C235.698 47.4157 236.286 46.8364 237.56 46.8021L238.756 46.7627V46.4919C238.756 45.6161 238.216 45.2031 237.411 45.2031C236.959 45.2129 236.518 45.3385 236.126 45.5681L235.958 45.263C236.386 44.9851 236.88 44.8316 237.387 44.8192C238.603 44.8192 239.171 45.3899 239.171 46.629V49.4329H238.757L238.747 48.744ZM237.608 47.1603C236.508 47.1895 236.132 47.6231 236.132 48.1887C236.132 48.7028 236.537 49.1519 237.251 49.1519C237.907 49.1519 238.524 48.6377 238.747 48.2778V47.1312L237.608 47.1603Z" fill="#292D2E"/>
<path d="M240.102 42.646H240.497V45.9709C240.719 45.2853 241.462 44.8192 242.215 44.8192C243.547 44.8192 244.401 45.8029 244.401 47.1603C244.401 48.5177 243.649 49.5306 242.318 49.5306C241.497 49.5306 240.783 49.1467 240.504 48.5383V49.4329H240.099L240.102 42.646ZM243.969 47.1706C243.969 46.0789 243.332 45.1928 242.214 45.1928C241.205 45.1928 240.485 46.0789 240.485 47.1706C240.485 48.2624 241.134 49.1587 242.254 49.1587C243.374 49.1587 243.97 48.2726 243.97 47.1706H243.969Z" fill="#292D2E"/>
<path d="M246.398 49.1467C247.045 49.1467 247.489 48.8519 247.489 48.2726C247.489 47.731 246.862 47.4363 246.312 47.2443C245.675 47.0181 245.076 46.7301 245.076 46.0154C245.076 45.1979 245.791 44.8243 246.408 44.8243C246.661 44.81 246.914 44.8591 247.144 44.9673C247.374 45.0754 247.575 45.2393 247.729 45.4447L247.469 45.7309C247.132 45.3882 246.89 45.1996 246.389 45.1996C245.888 45.1996 245.482 45.4756 245.482 45.9675C245.482 46.4096 245.946 46.6359 246.542 46.8724C247.277 47.1569 247.887 47.4431 247.887 48.2195C247.887 49.0662 247.215 49.5272 246.374 49.5272C246.058 49.5308 245.746 49.4516 245.468 49.2971C245.19 49.1425 244.956 48.9178 244.787 48.6445L245.087 48.3686C245.433 48.8159 245.809 49.1467 246.398 49.1467Z" fill="#292D2E"/>
<path d="M167.692 45.3607V42.646H166.438V49.4329H167.692V46.4319H170.489V45.3607H167.692Z" fill="#292D2E"/>
<path d="M170.799 42.646V44.6718V45.3607V46.4319V47.2889V49.4329H172.044V42.646H170.799Z" fill="#292D2E"/>
<path d="M157.969 46.701C157.816 45.983 157.925 45.2329 158.276 44.5907C158.626 43.9486 159.193 43.4584 159.872 43.2115C159.744 43.2222 159.617 43.2406 159.492 43.2664C158.722 43.4364 158.051 43.9111 157.624 44.5861C157.198 45.261 157.052 46.081 157.219 46.8655C157.386 47.6501 157.851 48.335 158.514 48.7695C159.176 49.2041 159.98 49.3527 160.749 49.1827C160.875 49.1531 160.998 49.1159 161.119 49.0713C160.401 49.1331 159.686 48.9268 159.106 48.4907C158.527 48.0546 158.123 47.4185 157.969 46.701V46.701Z" fill="#044E59"/>
<path d="M160.941 42.9459C160.816 42.975 160.693 43.0122 160.573 43.0573C161.291 42.9953 162.006 43.2018 162.585 43.6382C163.165 44.0745 163.568 44.7109 163.721 45.4286C163.874 46.1462 163.765 46.896 163.415 47.538C163.066 48.1799 162.499 48.6701 161.82 48.9171C161.946 48.9063 162.071 48.8874 162.195 48.8605C162.585 48.7858 162.956 48.6322 163.287 48.4088C163.617 48.1854 163.901 47.8967 164.12 47.5598C164.339 47.2229 164.49 46.8447 164.564 46.4473C164.637 46.05 164.632 45.6416 164.548 45.2464C164.464 44.8512 164.304 44.4771 164.076 44.1462C163.848 43.8153 163.557 43.5343 163.221 43.3199C162.885 43.1054 162.51 42.9619 162.118 42.8976C161.726 42.8334 161.326 42.8498 160.941 42.9459V42.9459Z" fill="#007157"/>
</g>
<defs>
<linearGradient id="paint0_linear" x1="41.8303" y1="8.5" x2="183.66" y2="201.129" gradientUnits="userSpaceOnUse">
<stop offset="0.149305" stop-color="#044E59" stop-opacity="0"/>
<stop offset="1" stop-color="#044E59"/>
</linearGradient>
<clipPath id="clip0">
<rect width="90.7319" height="8.66541" fill="white" transform="translate(157.152 42.646)"/>
</clipPath>
</defs>
</svg>
